%TF.GenerationSoftware,KiCad,Pcbnew,(6.0.10)*%
%TF.CreationDate,2023-01-30T18:20:24-07:00*%
%TF.ProjectId,nepcropad,6e657063-726f-4706-9164-2e6b69636164,rev?*%
%TF.SameCoordinates,Original*%
%TF.FileFunction,Copper,L2,Bot*%
%TF.FilePolarity,Positive*%
%FSLAX46Y46*%
G04 Gerber Fmt 4.6, Leading zero omitted, Abs format (unit mm)*
G04 Created by KiCad (PCBNEW (6.0.10)) date 2023-01-30 18:20:24*
%MOMM*%
%LPD*%
G01*
G04 APERTURE LIST*
G04 Aperture macros list*
%AMRoundRect*
0 Rectangle with rounded corners*
0 $1 Rounding radius*
0 $2 $3 $4 $5 $6 $7 $8 $9 X,Y pos of 4 corners*
0 Add a 4 corners polygon primitive as box body*
4,1,4,$2,$3,$4,$5,$6,$7,$8,$9,$2,$3,0*
0 Add four circle primitives for the rounded corners*
1,1,$1+$1,$2,$3*
1,1,$1+$1,$4,$5*
1,1,$1+$1,$6,$7*
1,1,$1+$1,$8,$9*
0 Add four rect primitives between the rounded corners*
20,1,$1+$1,$2,$3,$4,$5,0*
20,1,$1+$1,$4,$5,$6,$7,0*
20,1,$1+$1,$6,$7,$8,$9,0*
20,1,$1+$1,$8,$9,$2,$3,0*%
%AMHorizOval*
0 Thick line with rounded ends*
0 $1 width*
0 $2 $3 position (X,Y) of the first rounded end (center of the circle)*
0 $4 $5 position (X,Y) of the second rounded end (center of the circle)*
0 Add line between two ends*
20,1,$1,$2,$3,$4,$5,0*
0 Add two circle primitives to create the rounded ends*
1,1,$1,$2,$3*
1,1,$1,$4,$5*%
%AMRotRect*
0 Rectangle, with rotation*
0 The origin of the aperture is its center*
0 $1 length*
0 $2 width*
0 $3 Rotation angle, in degrees counterclockwise*
0 Add horizontal line*
21,1,$1,$2,0,0,$3*%
G04 Aperture macros list end*
%TA.AperFunction,ComponentPad*%
%ADD10HorizOval,2.250000X0.655001X0.730000X-0.655001X-0.730000X0*%
%TD*%
%TA.AperFunction,ComponentPad*%
%ADD11C,2.250000*%
%TD*%
%TA.AperFunction,ComponentPad*%
%ADD12HorizOval,2.250000X0.020000X0.290000X-0.020000X-0.290000X0*%
%TD*%
%TA.AperFunction,SMDPad,CuDef*%
%ADD13RoundRect,0.250000X0.250000X0.475000X-0.250000X0.475000X-0.250000X-0.475000X0.250000X-0.475000X0*%
%TD*%
%TA.AperFunction,SMDPad,CuDef*%
%ADD14R,0.900000X1.200000*%
%TD*%
%TA.AperFunction,SMDPad,CuDef*%
%ADD15RoundRect,0.250000X0.450000X-0.262500X0.450000X0.262500X-0.450000X0.262500X-0.450000X-0.262500X0*%
%TD*%
%TA.AperFunction,SMDPad,CuDef*%
%ADD16R,1.200000X0.900000*%
%TD*%
%TA.AperFunction,SMDPad,CuDef*%
%ADD17RoundRect,0.250000X0.512652X0.159099X0.159099X0.512652X-0.512652X-0.159099X-0.159099X-0.512652X0*%
%TD*%
%TA.AperFunction,SMDPad,CuDef*%
%ADD18RoundRect,0.250000X-0.450000X0.262500X-0.450000X-0.262500X0.450000X-0.262500X0.450000X0.262500X0*%
%TD*%
%TA.AperFunction,SMDPad,CuDef*%
%ADD19RoundRect,0.250000X0.262500X0.450000X-0.262500X0.450000X-0.262500X-0.450000X0.262500X-0.450000X0*%
%TD*%
%TA.AperFunction,SMDPad,CuDef*%
%ADD20RoundRect,0.250000X-0.375000X-0.625000X0.375000X-0.625000X0.375000X0.625000X-0.375000X0.625000X0*%
%TD*%
%TA.AperFunction,ComponentPad*%
%ADD21C,0.650000*%
%TD*%
%TA.AperFunction,ComponentPad*%
%ADD22O,0.900000X1.700000*%
%TD*%
%TA.AperFunction,ComponentPad*%
%ADD23O,0.900000X2.400000*%
%TD*%
%TA.AperFunction,SMDPad,CuDef*%
%ADD24R,1.800000X1.100000*%
%TD*%
%TA.AperFunction,SMDPad,CuDef*%
%ADD25RoundRect,0.250000X-0.262500X-0.450000X0.262500X-0.450000X0.262500X0.450000X-0.262500X0.450000X0*%
%TD*%
%TA.AperFunction,SMDPad,CuDef*%
%ADD26RoundRect,0.250000X-0.512652X-0.159099X-0.159099X-0.512652X0.512652X0.159099X0.159099X0.512652X0*%
%TD*%
%TA.AperFunction,SMDPad,CuDef*%
%ADD27RotRect,1.500000X0.550000X315.000000*%
%TD*%
%TA.AperFunction,SMDPad,CuDef*%
%ADD28RotRect,1.500000X0.550000X225.000000*%
%TD*%
%TA.AperFunction,SMDPad,CuDef*%
%ADD29RoundRect,0.250000X-0.250000X-0.475000X0.250000X-0.475000X0.250000X0.475000X-0.250000X0.475000X0*%
%TD*%
%TA.AperFunction,SMDPad,CuDef*%
%ADD30RotRect,1.400000X1.200000X135.000000*%
%TD*%
%TA.AperFunction,SMDPad,CuDef*%
%ADD31RoundRect,0.250000X-0.159099X0.512652X-0.512652X0.159099X0.159099X-0.512652X0.512652X-0.159099X0*%
%TD*%
%TA.AperFunction,SMDPad,CuDef*%
%ADD32RoundRect,0.250000X-0.475000X0.250000X-0.475000X-0.250000X0.475000X-0.250000X0.475000X0.250000X0*%
%TD*%
%TA.AperFunction,ViaPad*%
%ADD33C,0.800000*%
%TD*%
%TA.AperFunction,Conductor*%
%ADD34C,0.250000*%
%TD*%
%TA.AperFunction,Conductor*%
%ADD35C,0.200000*%
%TD*%
G04 APERTURE END LIST*
D10*
%TO.P,MX7,1,COL*%
%TO.N,COL0*%
X131782501Y-106267500D03*
D11*
X132437500Y-105537500D03*
%TO.P,MX7,2,ROW*%
%TO.N,Net-(D7-Pad2)*%
X137477500Y-104457500D03*
D12*
X137457500Y-104747500D03*
%TD*%
D11*
%TO.P,MX4,1,COL*%
%TO.N,COL0*%
X132437500Y-86487500D03*
D10*
X131782501Y-87217500D03*
D12*
%TO.P,MX4,2,ROW*%
%TO.N,Net-(D4-Pad2)*%
X137457500Y-85697500D03*
D11*
X137477500Y-85407500D03*
%TD*%
%TO.P,MX6,1,COL*%
%TO.N,COL2*%
X170537500Y-86487500D03*
D10*
X169882501Y-87217500D03*
D12*
%TO.P,MX6,2,ROW*%
%TO.N,Net-(D6-Pad2)*%
X175557500Y-85697500D03*
D11*
X175577500Y-85407500D03*
%TD*%
D10*
%TO.P,MX8,1,COL*%
%TO.N,COL1*%
X150832501Y-106267500D03*
D11*
X151487500Y-105537500D03*
%TO.P,MX8,2,ROW*%
%TO.N,Net-(D8-Pad2)*%
X156527500Y-104457500D03*
D12*
X156507500Y-104747500D03*
%TD*%
D10*
%TO.P,MX2,1,COL*%
%TO.N,COL1*%
X150832501Y-68167500D03*
D11*
X151487500Y-67437500D03*
%TO.P,MX2,2,ROW*%
%TO.N,Net-(D2-Pad2)*%
X156527500Y-66357500D03*
D12*
X156507500Y-66647500D03*
%TD*%
D11*
%TO.P,MX3,1,COL*%
%TO.N,COL2*%
X170537500Y-67437500D03*
D10*
X169882501Y-68167500D03*
D12*
%TO.P,MX3,2,ROW*%
%TO.N,Net-(D3-Pad2)*%
X175557500Y-66647500D03*
D11*
X175577500Y-66357500D03*
%TD*%
D10*
%TO.P,MX1,1,COL*%
%TO.N,COL0*%
X131782501Y-68167500D03*
D11*
X132437500Y-67437500D03*
%TO.P,MX1,2,ROW*%
%TO.N,Net-(D1-Pad2)*%
X137477500Y-66357500D03*
D12*
X137457500Y-66647500D03*
%TD*%
D10*
%TO.P,MX9,1,COL*%
%TO.N,COL2*%
X169882501Y-106267500D03*
D11*
X170537500Y-105537500D03*
D12*
%TO.P,MX9,2,ROW*%
%TO.N,Net-(D9-Pad2)*%
X175557500Y-104747500D03*
D11*
X175577500Y-104457500D03*
%TD*%
D10*
%TO.P,MX5,1,COL*%
%TO.N,COL1*%
X150832501Y-87217500D03*
D11*
X151487500Y-86487500D03*
%TO.P,MX5,2,ROW*%
%TO.N,Net-(D5-Pad2)*%
X156527500Y-85407500D03*
D12*
X156507500Y-85697500D03*
%TD*%
D13*
%TO.P,C8,1*%
%TO.N,+5V*%
X164018000Y-68224400D03*
%TO.P,C8,2*%
%TO.N,GND*%
X162118000Y-68224400D03*
%TD*%
D14*
%TO.P,D2,1,K*%
%TO.N,ROW0*%
X163448000Y-66040000D03*
%TO.P,D2,2,A*%
%TO.N,Net-(D2-Pad2)*%
X160148000Y-66040000D03*
%TD*%
D15*
%TO.P,R6,1*%
%TO.N,Net-(J1-PadB5)*%
X135890000Y-58570500D03*
%TO.P,R6,2*%
%TO.N,GND*%
X135890000Y-56745500D03*
%TD*%
D16*
%TO.P,D5,1,K*%
%TO.N,ROW1*%
X161290000Y-94614000D03*
%TO.P,D5,2,A*%
%TO.N,Net-(D5-Pad2)*%
X161290000Y-91314000D03*
%TD*%
%TO.P,D4,1,K*%
%TO.N,ROW1*%
X142875000Y-92137500D03*
%TO.P,D4,2,A*%
%TO.N,Net-(D4-Pad2)*%
X142875000Y-88837500D03*
%TD*%
D17*
%TO.P,C3,1*%
%TO.N,Net-(C3-Pad1)*%
X159929751Y-69505751D03*
%TO.P,C3,2*%
%TO.N,GND*%
X158586249Y-68162249D03*
%TD*%
D16*
%TO.P,D6,1,K*%
%TO.N,ROW1*%
X180975000Y-92137500D03*
%TO.P,D6,2,A*%
%TO.N,Net-(D6-Pad2)*%
X180975000Y-88837500D03*
%TD*%
D18*
%TO.P,R2,1*%
%TO.N,D+*%
X146050000Y-70207500D03*
%TO.P,R2,2*%
%TO.N,Net-(R2-Pad2)*%
X146050000Y-72032500D03*
%TD*%
D16*
%TO.P,D7,1,K*%
%TO.N,ROW2*%
X142875000Y-111187500D03*
%TO.P,D7,2,A*%
%TO.N,Net-(D7-Pad2)*%
X142875000Y-107887500D03*
%TD*%
D19*
%TO.P,R5,1*%
%TO.N,Net-(J1-PadA5)*%
X142644500Y-62992000D03*
%TO.P,R5,2*%
%TO.N,GND*%
X140819500Y-62992000D03*
%TD*%
D18*
%TO.P,R3,1*%
%TO.N,D-*%
X143510000Y-70207500D03*
%TO.P,R3,2*%
%TO.N,Net-(R3-Pad2)*%
X143510000Y-72032500D03*
%TD*%
D20*
%TO.P,F1,1*%
%TO.N,VCC*%
X153540000Y-57785000D03*
%TO.P,F1,2*%
%TO.N,+5V*%
X156340000Y-57785000D03*
%TD*%
D21*
%TO.P,J1,A1,GND*%
%TO.N,GND*%
X141805000Y-61175000D03*
%TO.P,J1,A4,VBUS*%
%TO.N,VCC*%
X142655000Y-61175000D03*
%TO.P,J1,A5,CC1*%
%TO.N,Net-(J1-PadA5)*%
X143505000Y-61175000D03*
%TO.P,J1,A6,D+*%
%TO.N,D+*%
X144355000Y-61175000D03*
%TO.P,J1,A7,D-*%
%TO.N,D-*%
X145205000Y-61175000D03*
%TO.P,J1,A8,SBU1*%
%TO.N,unconnected-(J1-PadA8)*%
X146055000Y-61175000D03*
%TO.P,J1,A9,VBUS*%
%TO.N,VCC*%
X146905000Y-61175000D03*
%TO.P,J1,A12,GND*%
%TO.N,GND*%
X147755000Y-61175000D03*
%TO.P,J1,B1,GND*%
X147760000Y-59850000D03*
%TO.P,J1,B4,VBUS*%
%TO.N,VCC*%
X146910000Y-59850000D03*
%TO.P,J1,B5,CC2*%
%TO.N,Net-(J1-PadB5)*%
X146060000Y-59850000D03*
%TO.P,J1,B6,D+*%
%TO.N,D+*%
X145210000Y-59850000D03*
%TO.P,J1,B7,D-*%
%TO.N,D-*%
X144360000Y-59850000D03*
%TO.P,J1,B8,SBU2*%
%TO.N,unconnected-(J1-PadB8)*%
X143510000Y-59850000D03*
%TO.P,J1,B9,VBUS*%
%TO.N,VCC*%
X142660000Y-59850000D03*
%TO.P,J1,B12,GND*%
%TO.N,GND*%
X141805000Y-59850000D03*
D22*
%TO.P,J1,S1,SHIELD*%
X140455000Y-56815000D03*
D23*
X149105000Y-60195000D03*
X140455000Y-60195000D03*
D22*
X149105000Y-56815000D03*
%TD*%
D24*
%TO.P,SW1,1,1*%
%TO.N,GND*%
X173684000Y-61286000D03*
%TO.P,SW1,2,2*%
%TO.N,Net-(R1-Pad2)*%
X179884000Y-57586000D03*
%TO.P,SW1,3*%
%TO.N,N/C*%
X173684000Y-57586000D03*
%TO.P,SW1,4*%
X179884000Y-61286000D03*
%TD*%
D13*
%TO.P,C7,1*%
%TO.N,+5V*%
X155636000Y-60198000D03*
%TO.P,C7,2*%
%TO.N,GND*%
X153736000Y-60198000D03*
%TD*%
D25*
%TO.P,R1,1*%
%TO.N,+5V*%
X166727500Y-60960000D03*
%TO.P,R1,2*%
%TO.N,Net-(R1-Pad2)*%
X168552500Y-60960000D03*
%TD*%
D14*
%TO.P,D1,1,K*%
%TO.N,ROW0*%
X142874000Y-67310000D03*
%TO.P,D1,2,A*%
%TO.N,Net-(D1-Pad2)*%
X139574000Y-67310000D03*
%TD*%
D16*
%TO.P,D3,1,K*%
%TO.N,ROW0*%
X180975000Y-72516000D03*
%TO.P,D3,2,A*%
%TO.N,Net-(D3-Pad2)*%
X180975000Y-69216000D03*
%TD*%
D26*
%TO.P,C5,1*%
%TO.N,+5V*%
X159602249Y-86450249D03*
%TO.P,C5,2*%
%TO.N,GND*%
X160945751Y-87793751D03*
%TD*%
D27*
%TO.P,U1,1,PE6*%
%TO.N,unconnected-(U1-Pad1)*%
X156653564Y-77537918D03*
%TO.P,U1,2,UVCC*%
%TO.N,+5V*%
X157219250Y-76972233D03*
%TO.P,U1,3,D-*%
%TO.N,Net-(R3-Pad2)*%
X157784935Y-76406548D03*
%TO.P,U1,4,D+*%
%TO.N,Net-(R2-Pad2)*%
X158350620Y-75840862D03*
%TO.P,U1,5,UGND*%
%TO.N,GND*%
X158916306Y-75275177D03*
%TO.P,U1,6,UCAP*%
%TO.N,Net-(C3-Pad1)*%
X159481991Y-74709491D03*
%TO.P,U1,7,VBUS*%
%TO.N,+5V*%
X160047677Y-74143806D03*
%TO.P,U1,8,PB0*%
%TO.N,unconnected-(U1-Pad8)*%
X160613362Y-73578120D03*
%TO.P,U1,9,PB1*%
%TO.N,unconnected-(U1-Pad9)*%
X161179048Y-73012435D03*
%TO.P,U1,10,PB2*%
%TO.N,unconnected-(U1-Pad10)*%
X161744733Y-72446750D03*
%TO.P,U1,11,PB3*%
%TO.N,unconnected-(U1-Pad11)*%
X162310418Y-71881064D03*
D28*
%TO.P,U1,12,PB7*%
%TO.N,unconnected-(U1-Pad12)*%
X164714582Y-71881064D03*
%TO.P,U1,13,~{RESET}*%
%TO.N,Net-(R1-Pad2)*%
X165280267Y-72446750D03*
%TO.P,U1,14,VCC*%
%TO.N,+5V*%
X165845952Y-73012435D03*
%TO.P,U1,15,GND*%
%TO.N,GND*%
X166411638Y-73578120D03*
%TO.P,U1,16,XTAL2*%
%TO.N,Net-(C2-Pad2)*%
X166977323Y-74143806D03*
%TO.P,U1,17,XTAL1*%
%TO.N,Net-(C1-Pad2)*%
X167543009Y-74709491D03*
%TO.P,U1,18,PD0*%
%TO.N,unconnected-(U1-Pad18)*%
X168108694Y-75275177D03*
%TO.P,U1,19,PD1*%
%TO.N,unconnected-(U1-Pad19)*%
X168674380Y-75840862D03*
%TO.P,U1,20,PD2*%
%TO.N,unconnected-(U1-Pad20)*%
X169240065Y-76406548D03*
%TO.P,U1,21,PD3*%
%TO.N,unconnected-(U1-Pad21)*%
X169805750Y-76972233D03*
%TO.P,U1,22,PD5*%
%TO.N,unconnected-(U1-Pad22)*%
X170371436Y-77537918D03*
D27*
%TO.P,U1,23,GND*%
%TO.N,GND*%
X170371436Y-79942082D03*
%TO.P,U1,24,AVCC*%
%TO.N,+5V*%
X169805750Y-80507767D03*
%TO.P,U1,25,PD4*%
%TO.N,unconnected-(U1-Pad25)*%
X169240065Y-81073452D03*
%TO.P,U1,26,PD6*%
%TO.N,ROW0*%
X168674380Y-81639138D03*
%TO.P,U1,27,PD7*%
%TO.N,ROW1*%
X168108694Y-82204823D03*
%TO.P,U1,28,PB4*%
%TO.N,COL2*%
X167543009Y-82770509D03*
%TO.P,U1,29,PB5*%
%TO.N,ROW2*%
X166977323Y-83336194D03*
%TO.P,U1,30,PB6*%
%TO.N,COL1*%
X166411638Y-83901880D03*
%TO.P,U1,31,PC6*%
%TO.N,COL0*%
X165845952Y-84467565D03*
%TO.P,U1,32,PC7*%
%TO.N,unconnected-(U1-Pad32)*%
X165280267Y-85033250D03*
%TO.P,U1,33,~{HWB}/PE2*%
%TO.N,Net-(R4-Pad2)*%
X164714582Y-85598936D03*
D28*
%TO.P,U1,34,VCC*%
%TO.N,+5V*%
X162310418Y-85598936D03*
%TO.P,U1,35,GND*%
%TO.N,GND*%
X161744733Y-85033250D03*
%TO.P,U1,36,PF7*%
%TO.N,unconnected-(U1-Pad36)*%
X161179048Y-84467565D03*
%TO.P,U1,37,PF6*%
%TO.N,unconnected-(U1-Pad37)*%
X160613362Y-83901880D03*
%TO.P,U1,38,PF5*%
%TO.N,unconnected-(U1-Pad38)*%
X160047677Y-83336194D03*
%TO.P,U1,39,PF4*%
%TO.N,unconnected-(U1-Pad39)*%
X159481991Y-82770509D03*
%TO.P,U1,40,PF1*%
%TO.N,unconnected-(U1-Pad40)*%
X158916306Y-82204823D03*
%TO.P,U1,41,PF0*%
%TO.N,unconnected-(U1-Pad41)*%
X158350620Y-81639138D03*
%TO.P,U1,42,AREF*%
%TO.N,unconnected-(U1-Pad42)*%
X157784935Y-81073452D03*
%TO.P,U1,43,GND*%
%TO.N,GND*%
X157219250Y-80507767D03*
%TO.P,U1,44,AVCC*%
%TO.N,+5V*%
X156653564Y-79942082D03*
%TD*%
D29*
%TO.P,C4,1*%
%TO.N,+5V*%
X171617600Y-82194400D03*
%TO.P,C4,2*%
%TO.N,GND*%
X173517600Y-82194400D03*
%TD*%
D16*
%TO.P,D8,1,K*%
%TO.N,ROW2*%
X161925000Y-111187500D03*
%TO.P,D8,2,A*%
%TO.N,Net-(D8-Pad2)*%
X161925000Y-107887500D03*
%TD*%
D17*
%TO.P,C2,1*%
%TO.N,GND*%
X178217751Y-74839751D03*
%TO.P,C2,2*%
%TO.N,Net-(C2-Pad2)*%
X176874249Y-73496249D03*
%TD*%
D30*
%TO.P,Y1,1,1*%
%TO.N,Net-(C1-Pad2)*%
X175436777Y-77578858D03*
%TO.P,Y1,2,2*%
%TO.N,GND*%
X173881142Y-76023223D03*
%TO.P,Y1,3,3*%
%TO.N,Net-(C2-Pad2)*%
X175083223Y-74821142D03*
%TO.P,Y1,4,4*%
%TO.N,GND*%
X176638858Y-76376777D03*
%TD*%
D25*
%TO.P,R4,1*%
%TO.N,GND*%
X162409500Y-89408000D03*
%TO.P,R4,2*%
%TO.N,Net-(R4-Pad2)*%
X164234500Y-89408000D03*
%TD*%
D31*
%TO.P,C1,1*%
%TO.N,GND*%
X178217751Y-77814249D03*
%TO.P,C1,2*%
%TO.N,Net-(C1-Pad2)*%
X176874249Y-79157751D03*
%TD*%
D32*
%TO.P,C6,1*%
%TO.N,+5V*%
X152908000Y-77790000D03*
%TO.P,C6,2*%
%TO.N,GND*%
X152908000Y-79690000D03*
%TD*%
D16*
%TO.P,D9,1,K*%
%TO.N,ROW2*%
X180975000Y-111187500D03*
%TO.P,D9,2,A*%
%TO.N,Net-(D9-Pad2)*%
X180975000Y-107887500D03*
%TD*%
D33*
%TO.N,+5V*%
X163576000Y-70866000D03*
X163322000Y-86995000D03*
X160528000Y-61976000D03*
X155829000Y-78613000D03*
%TO.N,ROW0*%
X153035000Y-64770000D03*
X142494000Y-65532000D03*
%TO.N,ROW2*%
X166878000Y-93472000D03*
X166878000Y-96012000D03*
%TO.N,Net-(R1-Pad2)*%
X171450000Y-60960000D03*
X166370000Y-66040000D03*
%TO.N,D+*%
X145542000Y-64008000D03*
%TO.N,D-*%
X144018000Y-64008000D03*
%TO.N,Net-(J1-PadB5)*%
X138684000Y-58420000D03*
%TD*%
D34*
%TO.N,GND*%
X161744733Y-85033250D02*
X161461891Y-85033250D01*
X176596700Y-76334619D02*
X174192538Y-76334619D01*
X160011508Y-77715508D02*
X162228832Y-79932832D01*
X156356401Y-69163901D02*
X157584597Y-69163901D01*
X176638858Y-76376777D02*
X176596700Y-76334619D01*
X152908000Y-79690000D02*
X154178000Y-79690000D01*
X176638858Y-76376777D02*
X176780279Y-76376777D01*
X141800000Y-59850000D02*
X140800000Y-59850000D01*
X141800000Y-61170000D02*
X141805000Y-61175000D01*
X148760000Y-59850000D02*
X149105000Y-60195000D01*
X140455000Y-56815000D02*
X140455000Y-60195000D01*
X159314750Y-85033250D02*
X158242000Y-86106000D01*
X141805000Y-62006500D02*
X140819500Y-62992000D01*
X178217751Y-77814249D02*
X179832000Y-79428498D01*
X173517600Y-80787200D02*
X173532800Y-80772000D01*
X171993250Y-63210750D02*
X173684000Y-61520000D01*
X157584597Y-69163901D02*
X158586249Y-68162249D01*
X158916306Y-75275177D02*
X159400404Y-75759275D01*
X160782000Y-89408000D02*
X162409500Y-89408000D01*
X173532800Y-80772000D02*
X171201354Y-80772000D01*
X160224453Y-85033250D02*
X159314750Y-85033250D01*
X155479866Y-80991866D02*
X156735151Y-80991866D01*
X159400404Y-75759275D02*
X161222725Y-75759275D01*
X156356401Y-69163901D02*
X156356401Y-72536401D01*
X156735151Y-80991866D02*
X157219250Y-80507767D01*
X176780279Y-76376777D02*
X178217751Y-77814249D01*
X135959500Y-56815000D02*
X135890000Y-56745500D01*
X150403250Y-63210750D02*
X171993250Y-63210750D01*
X160977792Y-85517349D02*
X160708552Y-85517349D01*
X158242000Y-86868000D02*
X160782000Y-89408000D01*
X154178000Y-79690000D02*
X155479866Y-80991866D01*
X160708552Y-85517349D02*
X160224453Y-85033250D01*
X164230483Y-75759275D02*
X166188629Y-75759275D01*
X161461891Y-85033250D02*
X160977792Y-85517349D01*
X160945751Y-87944251D02*
X162409500Y-89408000D01*
X153733000Y-60195000D02*
X149105000Y-60195000D01*
X160011508Y-77715508D02*
X157219250Y-80507767D01*
X176638858Y-76376777D02*
X176680725Y-76376777D01*
X173517600Y-82194400D02*
X173517600Y-80787200D01*
X179832000Y-80772000D02*
X173532800Y-80772000D01*
X141805000Y-61175000D02*
X141805000Y-62006500D01*
X161222725Y-75759275D02*
X164230483Y-75759275D01*
X161222725Y-76504292D02*
X160011508Y-77715508D01*
X147755000Y-59850000D02*
X148760000Y-59850000D01*
X141800000Y-59850000D02*
X141800000Y-61170000D01*
X149105000Y-61912500D02*
X149105000Y-60195000D01*
X173684000Y-61520000D02*
X173684000Y-61286000D01*
X174192538Y-76334619D02*
X173881142Y-76023223D01*
X140455000Y-56815000D02*
X149105000Y-56815000D01*
X156356401Y-69163901D02*
X150403250Y-63210750D01*
X153736000Y-60198000D02*
X153733000Y-60195000D01*
X162118000Y-68224400D02*
X158648400Y-68224400D01*
X164230483Y-75759275D02*
X166411638Y-73578120D01*
X140455000Y-56815000D02*
X135959500Y-56815000D01*
X158648400Y-68224400D02*
X158586249Y-68162249D01*
X158916306Y-75096306D02*
X158916306Y-75275177D01*
X171201354Y-80772000D02*
X170371436Y-79942082D01*
X162228832Y-79932832D02*
X162228832Y-84549151D01*
X147755000Y-59850000D02*
X147755000Y-61175000D01*
X162228832Y-84549151D02*
X161744733Y-85033250D01*
X158242000Y-86106000D02*
X158242000Y-86868000D01*
X179832000Y-79428498D02*
X179832000Y-80772000D01*
X160945751Y-87793751D02*
X160945751Y-87944251D01*
X161222725Y-75759275D02*
X161222725Y-76504292D01*
X176680725Y-76376777D02*
X178217751Y-74839751D01*
X166188629Y-75759275D02*
X170371436Y-79942082D01*
X140800000Y-59850000D02*
X140455000Y-60195000D01*
X150403250Y-63210750D02*
X149105000Y-61912500D01*
X156356401Y-72536401D02*
X158916306Y-75096306D01*
%TO.N,Net-(C1-Pad2)*%
X172828858Y-77578858D02*
X169164000Y-73914000D01*
X175436777Y-77578858D02*
X175436777Y-77720279D01*
X175436777Y-77578858D02*
X172828858Y-77578858D01*
X169164000Y-73914000D02*
X168338500Y-73914000D01*
X175436777Y-77720279D02*
X176874249Y-79157751D01*
X168338500Y-73914000D02*
X167543009Y-74709491D01*
%TO.N,Net-(C2-Pad2)*%
X174588248Y-74326167D02*
X170338167Y-74326167D01*
X175083223Y-74821142D02*
X174588248Y-74326167D01*
X175083223Y-74821142D02*
X175549356Y-74821142D01*
X167715129Y-73406000D02*
X166977323Y-74143806D01*
X169418000Y-73406000D02*
X167715129Y-73406000D01*
X175549356Y-74821142D02*
X176874249Y-73496249D01*
X170338167Y-74326167D02*
X169418000Y-73406000D01*
%TO.N,Net-(C3-Pad1)*%
X159481991Y-74709491D02*
X157480000Y-72707500D01*
X157480000Y-70866000D02*
X158840249Y-69505751D01*
X157480000Y-72707500D02*
X157480000Y-70866000D01*
X158840249Y-69505751D02*
X159929751Y-69505751D01*
%TO.N,+5V*%
X162310418Y-85598936D02*
X162310418Y-85983418D01*
X164018000Y-70424000D02*
X163576000Y-70866000D01*
X163576000Y-74579808D02*
X163624096Y-74627904D01*
X160528000Y-61976000D02*
X165711500Y-61976000D01*
X165747565Y-73012435D02*
X164132096Y-74627904D01*
X162310418Y-85593582D02*
X168402000Y-79502000D01*
X161459105Y-86450249D02*
X162310418Y-85598936D01*
X155829000Y-78613000D02*
X155829000Y-79117518D01*
X160531775Y-74627904D02*
X160047677Y-74143806D01*
X155829000Y-79117518D02*
X156653564Y-79942082D01*
X156183068Y-76488134D02*
X156735151Y-76488134D01*
X169805750Y-80585750D02*
X171262000Y-82042000D01*
X155603780Y-78387780D02*
X155603780Y-77067422D01*
X155636000Y-58489000D02*
X156340000Y-57785000D01*
X165845952Y-73012435D02*
X165747565Y-73012435D01*
X169805750Y-80507767D02*
X169805750Y-80585750D01*
X156340000Y-57788000D02*
X160528000Y-61976000D01*
X156340000Y-57785000D02*
X156340000Y-57788000D01*
X163045690Y-56200000D02*
X160505690Y-56200000D01*
X165711500Y-61976000D02*
X166727500Y-60960000D01*
X159602249Y-86450249D02*
X161459105Y-86450249D01*
X155636000Y-60198000D02*
X155636000Y-58489000D01*
X156735151Y-76488134D02*
X157219250Y-76972233D01*
X163624096Y-74627904D02*
X160531775Y-74627904D01*
X160505690Y-56200000D02*
X157925000Y-56200000D01*
X163576000Y-70866000D02*
X163576000Y-74579808D01*
X168402000Y-79502000D02*
X168799983Y-79502000D01*
X168799983Y-79502000D02*
X169805750Y-80507767D01*
X155829000Y-78613000D02*
X155603780Y-78387780D01*
X164132096Y-74627904D02*
X163624096Y-74627904D01*
X157925000Y-56200000D02*
X156340000Y-57785000D01*
X162310418Y-85983418D02*
X163322000Y-86995000D01*
X155603780Y-77067422D02*
X156183068Y-76488134D01*
X155006000Y-77790000D02*
X155829000Y-78613000D01*
X162310418Y-85598936D02*
X162310418Y-85593582D01*
X152908000Y-77790000D02*
X155006000Y-77790000D01*
X164018000Y-68224400D02*
X164018000Y-70424000D01*
%TO.N,ROW0*%
X170601242Y-83566000D02*
X180594000Y-83566000D01*
X182372000Y-81788000D02*
X182372000Y-73913000D01*
X182372000Y-71119000D02*
X180975000Y-72516000D01*
X181356000Y-64643000D02*
X182372000Y-65659000D01*
X180594000Y-83566000D02*
X182372000Y-81788000D01*
X164845000Y-64643000D02*
X181356000Y-64643000D01*
X142874000Y-67310000D02*
X142874000Y-65912000D01*
X182372000Y-65659000D02*
X182372000Y-71119000D01*
X168674380Y-81639138D02*
X170601242Y-83566000D01*
X163448000Y-66040000D02*
X162178000Y-64770000D01*
X182372000Y-73913000D02*
X180975000Y-72516000D01*
X142874000Y-65912000D02*
X142494000Y-65532000D01*
X163448000Y-66040000D02*
X164845000Y-64643000D01*
X153035000Y-64770000D02*
X162178000Y-64770000D01*
%TO.N,Net-(D1-Pad2)*%
X138621500Y-66357500D02*
X139574000Y-67310000D01*
X137477500Y-66357500D02*
X138621500Y-66357500D01*
%TO.N,Net-(D2-Pad2)*%
X156487500Y-66937500D02*
X157385000Y-66040000D01*
X157385000Y-66040000D02*
X160148000Y-66040000D01*
%TO.N,Net-(D3-Pad2)*%
X177482500Y-66357500D02*
X175577500Y-66357500D01*
X178117500Y-66357500D02*
X177482500Y-66357500D01*
X180975000Y-69216000D02*
X180975000Y-69215000D01*
X180975000Y-69215000D02*
X178117500Y-66357500D01*
%TO.N,ROW1*%
X180256099Y-92856401D02*
X180975000Y-92137500D01*
X176383599Y-92856401D02*
X180256099Y-92856401D01*
X176383599Y-90196885D02*
X176383599Y-92856401D01*
X161290000Y-94614000D02*
X174626000Y-94614000D01*
X145351500Y-94614000D02*
X142875000Y-92137500D01*
X168108694Y-82204823D02*
X168391537Y-82204823D01*
X161290000Y-94614000D02*
X145351500Y-94614000D01*
X168391537Y-82204823D02*
X176383599Y-90196885D01*
X174626000Y-94614000D02*
X176383599Y-92856401D01*
%TO.N,Net-(D4-Pad2)*%
X142875000Y-87312500D02*
X140970000Y-85407500D01*
X140970000Y-85407500D02*
X137477500Y-85407500D01*
X142875000Y-88837500D02*
X142875000Y-87312500D01*
%TO.N,Net-(D5-Pad2)*%
X161290000Y-91314000D02*
X161290000Y-90790000D01*
X161290000Y-90790000D02*
X156487500Y-85987500D01*
%TO.N,Net-(D6-Pad2)*%
X180975000Y-88837500D02*
X180975000Y-87312500D01*
X179070000Y-85407500D02*
X175577500Y-85407500D01*
X180975000Y-87312500D02*
X179070000Y-85407500D01*
%TO.N,ROW2*%
X169164000Y-85522871D02*
X166977323Y-83336194D01*
X162643901Y-111906401D02*
X161925000Y-111187500D01*
X161206099Y-111906401D02*
X143593901Y-111906401D01*
X180256099Y-111906401D02*
X164953599Y-111906401D01*
X180975000Y-111187500D02*
X180256099Y-111906401D01*
X166878000Y-93472000D02*
X166707499Y-93301499D01*
X166707499Y-93301499D02*
X166707499Y-88054501D01*
X164953599Y-111906401D02*
X162643901Y-111906401D01*
X166707499Y-88054501D02*
X169164000Y-85598000D01*
X143593901Y-111906401D02*
X142875000Y-111187500D01*
X169164000Y-85598000D02*
X169164000Y-85522871D01*
X166878000Y-106234500D02*
X166878000Y-96012000D01*
X161925000Y-111187500D02*
X166878000Y-106234500D01*
X161925000Y-111187500D02*
X161206099Y-111906401D01*
%TO.N,Net-(D7-Pad2)*%
X140970000Y-104457500D02*
X137477500Y-104457500D01*
X142875000Y-106362500D02*
X140970000Y-104457500D01*
X142875000Y-107887500D02*
X142875000Y-106362500D01*
%TO.N,Net-(D8-Pad2)*%
X161925000Y-106362500D02*
X160020000Y-104457500D01*
X161925000Y-107887500D02*
X161925000Y-106362500D01*
X160020000Y-104457500D02*
X156527500Y-104457500D01*
%TO.N,Net-(D9-Pad2)*%
X180975000Y-106362500D02*
X179070000Y-104457500D01*
X180975000Y-107887500D02*
X180975000Y-106362500D01*
X179070000Y-104457500D02*
X175577500Y-104457500D01*
%TO.N,VCC*%
X146615000Y-59200000D02*
X147395000Y-58420000D01*
X146900000Y-59485000D02*
X146900000Y-59850000D01*
X147395000Y-58420000D02*
X150495000Y-58420000D01*
X142650000Y-59850000D02*
X142650000Y-59390381D01*
X146615000Y-59200000D02*
X146900000Y-59485000D01*
X142650000Y-59390381D02*
X142840381Y-59200000D01*
X142840381Y-59200000D02*
X146615000Y-59200000D01*
X150495000Y-58420000D02*
X152905000Y-58420000D01*
X146905000Y-59855000D02*
X146900000Y-59850000D01*
X146905000Y-61175000D02*
X146905000Y-59855000D01*
X142650000Y-59850000D02*
X142650000Y-61170000D01*
X152905000Y-58420000D02*
X153540000Y-57785000D01*
X142650000Y-61170000D02*
X142655000Y-61175000D01*
%TO.N,COL0*%
X165845952Y-84467565D02*
X166330051Y-84951664D01*
X166330051Y-86399949D02*
X165354000Y-87376000D01*
X159258000Y-92710000D02*
X156356401Y-89808401D01*
X165354000Y-92710000D02*
X159258000Y-92710000D01*
X156356401Y-89262861D02*
X150913540Y-83820000D01*
X165354000Y-87376000D02*
X165354000Y-92710000D01*
X166330051Y-84951664D02*
X166330051Y-86399949D01*
X156356401Y-89808401D02*
X156356401Y-89262861D01*
X150913540Y-83820000D02*
X135105000Y-83820000D01*
X135105000Y-83820000D02*
X132437500Y-86487500D01*
%TO.N,COL1*%
X166116000Y-93472000D02*
X150622000Y-93472000D01*
X166411638Y-83901880D02*
X168107758Y-85598000D01*
X166116000Y-87630000D02*
X166116000Y-93472000D01*
X150177500Y-93027500D02*
X150177500Y-87947500D01*
X168148000Y-85598000D02*
X166116000Y-87630000D01*
X150622000Y-93472000D02*
X150177500Y-93027500D01*
%TO.N,COL2*%
X170537500Y-85765000D02*
X170537500Y-86487500D01*
X167543009Y-82770509D02*
X170537500Y-85765000D01*
%TO.N,Net-(R1-Pad2)*%
X168552500Y-60960000D02*
X171450000Y-60960000D01*
X166370000Y-69850000D02*
X166370000Y-71357017D01*
X166370000Y-69850000D02*
X166370000Y-66040000D01*
X172974000Y-59436000D02*
X178816000Y-59436000D01*
X166370000Y-71357017D02*
X165280267Y-72446750D01*
X178816000Y-59436000D02*
X179884000Y-58368000D01*
X179884000Y-58368000D02*
X179884000Y-57586000D01*
X171450000Y-60960000D02*
X172974000Y-59436000D01*
D35*
%TO.N,D+*%
X144355000Y-61175000D02*
X144355000Y-60877000D01*
X145200000Y-60032000D02*
X145200000Y-59850000D01*
X144355000Y-60877000D02*
X145200000Y-60032000D01*
X145542000Y-69699500D02*
X146050000Y-70207500D01*
X145542000Y-64008000D02*
X145542000Y-69699500D01*
D34*
%TO.N,Net-(R2-Pad2)*%
X156316159Y-73806401D02*
X158350620Y-75840862D01*
X147823901Y-73806401D02*
X156316159Y-73806401D01*
X146050000Y-72032500D02*
X147823901Y-73806401D01*
D35*
%TO.N,D-*%
X145205000Y-61175000D02*
X145205000Y-62821000D01*
X144018000Y-69699500D02*
X143510000Y-70207500D01*
X144018000Y-64008000D02*
X144018000Y-69699500D01*
X145205000Y-62821000D02*
X144018000Y-64008000D01*
D34*
%TO.N,Net-(R3-Pad2)*%
X145733901Y-74256401D02*
X155634788Y-74256401D01*
X155634788Y-74256401D02*
X157784935Y-76406548D01*
X143510000Y-72032500D02*
X145733901Y-74256401D01*
%TO.N,Net-(R4-Pad2)*%
X164714582Y-85598936D02*
X164714582Y-88927918D01*
X164714582Y-88927918D02*
X164234500Y-89408000D01*
%TO.N,Net-(J1-PadA5)*%
X143505000Y-61175000D02*
X143505000Y-62131500D01*
X143505000Y-62131500D02*
X142644500Y-62992000D01*
%TO.N,Net-(J1-PadB5)*%
X136040500Y-58420000D02*
X135890000Y-58570500D01*
X138684000Y-58420000D02*
X136040500Y-58420000D01*
%TD*%
M02*
