%TF.GenerationSoftware,KiCad,Pcbnew,(6.0.10)*%
%TF.CreationDate,2023-01-31T01:35:29-07:00*%
%TF.ProjectId,nepcropad,6e657063-726f-4706-9164-2e6b69636164,rev?*%
%TF.SameCoordinates,Original*%
%TF.FileFunction,Soldermask,Bot*%
%TF.FilePolarity,Negative*%
%FSLAX46Y46*%
G04 Gerber Fmt 4.6, Leading zero omitted, Abs format (unit mm)*
G04 Created by KiCad (PCBNEW (6.0.10)) date 2023-01-31 01:35:29*
%MOMM*%
%LPD*%
G01*
G04 APERTURE LIST*
G04 Aperture macros list*
%AMRoundRect*
0 Rectangle with rounded corners*
0 $1 Rounding radius*
0 $2 $3 $4 $5 $6 $7 $8 $9 X,Y pos of 4 corners*
0 Add a 4 corners polygon primitive as box body*
4,1,4,$2,$3,$4,$5,$6,$7,$8,$9,$2,$3,0*
0 Add four circle primitives for the rounded corners*
1,1,$1+$1,$2,$3*
1,1,$1+$1,$4,$5*
1,1,$1+$1,$6,$7*
1,1,$1+$1,$8,$9*
0 Add four rect primitives between the rounded corners*
20,1,$1+$1,$2,$3,$4,$5,0*
20,1,$1+$1,$4,$5,$6,$7,0*
20,1,$1+$1,$6,$7,$8,$9,0*
20,1,$1+$1,$8,$9,$2,$3,0*%
%AMHorizOval*
0 Thick line with rounded ends*
0 $1 width*
0 $2 $3 position (X,Y) of the first rounded end (center of the circle)*
0 $4 $5 position (X,Y) of the second rounded end (center of the circle)*
0 Add line between two ends*
20,1,$1,$2,$3,$4,$5,0*
0 Add two circle primitives to create the rounded ends*
1,1,$1,$2,$3*
1,1,$1,$4,$5*%
%AMRotRect*
0 Rectangle, with rotation*
0 The origin of the aperture is its center*
0 $1 length*
0 $2 width*
0 $3 Rotation angle, in degrees counterclockwise*
0 Add horizontal line*
21,1,$1,$2,0,0,$3*%
G04 Aperture macros list end*
%ADD10RoundRect,0.250000X0.450000X-0.262500X0.450000X0.262500X-0.450000X0.262500X-0.450000X-0.262500X0*%
%ADD11C,0.670000*%
%ADD12R,0.250000X1.450000*%
%ADD13R,0.300000X1.450000*%
%ADD14RoundRect,0.500000X0.000000X-0.600000X0.000000X-0.600000X0.000000X0.600000X0.000000X0.600000X0*%
%ADD15RoundRect,0.500000X0.000000X-0.300000X0.000000X-0.300000X0.000000X0.300000X0.000000X0.300000X0*%
%ADD16C,1.750000*%
%ADD17C,3.987800*%
%ADD18HorizOval,2.250000X0.655001X0.730000X-0.655001X-0.730000X0*%
%ADD19C,2.250000*%
%ADD20HorizOval,2.250000X0.020000X0.290000X-0.020000X-0.290000X0*%
%ADD21RoundRect,0.250000X0.250000X0.475000X-0.250000X0.475000X-0.250000X-0.475000X0.250000X-0.475000X0*%
%ADD22R,0.900000X1.200000*%
%ADD23R,1.200000X0.900000*%
%ADD24RoundRect,0.250000X0.512652X0.159099X0.159099X0.512652X-0.512652X-0.159099X-0.159099X-0.512652X0*%
%ADD25RoundRect,0.250000X-0.450000X0.262500X-0.450000X-0.262500X0.450000X-0.262500X0.450000X0.262500X0*%
%ADD26RoundRect,0.250000X-0.375000X-0.625000X0.375000X-0.625000X0.375000X0.625000X-0.375000X0.625000X0*%
%ADD27R,1.800000X1.100000*%
%ADD28RoundRect,0.250000X-0.262500X-0.450000X0.262500X-0.450000X0.262500X0.450000X-0.262500X0.450000X0*%
%ADD29RoundRect,0.250000X-0.512652X-0.159099X-0.159099X-0.512652X0.512652X0.159099X0.159099X0.512652X0*%
%ADD30RotRect,1.500000X0.550000X315.000000*%
%ADD31RotRect,1.500000X0.550000X225.000000*%
%ADD32RoundRect,0.250000X-0.250000X-0.475000X0.250000X-0.475000X0.250000X0.475000X-0.250000X0.475000X0*%
%ADD33RotRect,1.400000X1.200000X135.000000*%
%ADD34RoundRect,0.250000X-0.159099X0.512652X-0.512652X0.159099X0.159099X-0.512652X0.512652X-0.159099X0*%
%ADD35RoundRect,0.250000X-0.475000X0.250000X-0.475000X-0.250000X0.475000X-0.250000X0.475000X0.250000X0*%
G04 APERTURE END LIST*
D10*
%TO.C,R5*%
X138112500Y-63618750D03*
X138112500Y-61793750D03*
%TD*%
D11*
%TO.C,J1*%
X148007524Y-59847500D03*
X142207524Y-59847500D03*
D12*
X141732524Y-61297500D03*
X142532524Y-61297500D03*
X143857524Y-61297500D03*
X144857524Y-61297500D03*
X145357524Y-61297500D03*
X146357524Y-61297500D03*
X147682524Y-61297500D03*
X148482524Y-61297500D03*
D13*
X148207524Y-61297500D03*
X147407524Y-61297500D03*
D12*
X146857524Y-61297500D03*
X145857524Y-61297500D03*
X144357524Y-61297500D03*
X143357524Y-61297500D03*
D13*
X142807524Y-61297500D03*
X142007524Y-61297500D03*
D14*
X149427524Y-60377500D03*
D15*
X140787524Y-56197500D03*
D14*
X140787524Y-60377500D03*
D15*
X149427524Y-56197500D03*
%TD*%
D16*
%TO.C,MX7*%
X129857500Y-109537500D03*
X140017500Y-109537500D03*
D17*
X134937500Y-109537500D03*
D18*
X131782501Y-106267500D03*
D19*
X132437500Y-105537500D03*
X137477500Y-104457500D03*
D20*
X137457500Y-104747500D03*
%TD*%
D16*
%TO.C,MX4*%
X140017500Y-90487500D03*
D17*
X134937500Y-90487500D03*
D16*
X129857500Y-90487500D03*
D19*
X132437500Y-86487500D03*
D18*
X131782501Y-87217500D03*
D20*
X137457500Y-85697500D03*
D19*
X137477500Y-85407500D03*
%TD*%
D17*
%TO.C,MX6*%
X173037500Y-90487500D03*
D16*
X167957500Y-90487500D03*
X178117500Y-90487500D03*
D19*
X170537500Y-86487500D03*
D18*
X169882501Y-87217500D03*
D20*
X175557500Y-85697500D03*
D19*
X175577500Y-85407500D03*
%TD*%
D17*
%TO.C,MX8*%
X153987500Y-109537500D03*
D16*
X159067500Y-109537500D03*
X148907500Y-109537500D03*
D18*
X150832501Y-106267500D03*
D19*
X151487500Y-105537500D03*
X156527500Y-104457500D03*
D20*
X156507500Y-104747500D03*
%TD*%
D16*
%TO.C,MX2*%
X148907500Y-71437500D03*
D17*
X153987500Y-71437500D03*
D16*
X159067500Y-71437500D03*
D18*
X150832501Y-68167500D03*
D19*
X151487500Y-67437500D03*
X156527500Y-66357500D03*
D20*
X156507500Y-66647500D03*
%TD*%
D16*
%TO.C,MX3*%
X178117500Y-71437500D03*
D17*
X173037500Y-71437500D03*
D16*
X167957500Y-71437500D03*
D19*
X170537500Y-67437500D03*
D18*
X169882501Y-68167500D03*
D20*
X175557500Y-66647500D03*
D19*
X175577500Y-66357500D03*
%TD*%
D16*
%TO.C,MX1*%
X140017500Y-71437500D03*
X129857500Y-71437500D03*
D17*
X134937500Y-71437500D03*
D18*
X131782501Y-68167500D03*
D19*
X132437500Y-67437500D03*
X137477500Y-66357500D03*
D20*
X137457500Y-66647500D03*
%TD*%
D17*
%TO.C,MX9*%
X173037500Y-109537500D03*
D16*
X167957500Y-109537500D03*
X178117500Y-109537500D03*
D18*
X169882501Y-106267500D03*
D19*
X170537500Y-105537500D03*
D20*
X175557500Y-104747500D03*
D19*
X175577500Y-104457500D03*
%TD*%
D16*
%TO.C,MX5*%
X148907500Y-90487500D03*
X159067500Y-90487500D03*
D17*
X153987500Y-90487500D03*
D18*
X150832501Y-87217500D03*
D19*
X151487500Y-86487500D03*
X156527500Y-85407500D03*
D20*
X156507500Y-85697500D03*
%TD*%
D21*
%TO.C,C8*%
X164018000Y-68224400D03*
X162118000Y-68224400D03*
%TD*%
D22*
%TO.C,D2*%
X163448000Y-66040000D03*
X160148000Y-66040000D03*
%TD*%
D10*
%TO.C,R6*%
X135890000Y-58570500D03*
X135890000Y-56745500D03*
%TD*%
D23*
%TO.C,D5*%
X161290000Y-94614000D03*
X161290000Y-91314000D03*
%TD*%
%TO.C,D4*%
X142875000Y-92137500D03*
X142875000Y-88837500D03*
%TD*%
D24*
%TO.C,C3*%
X159929751Y-69505751D03*
X158586249Y-68162249D03*
%TD*%
D23*
%TO.C,D6*%
X180975000Y-92137500D03*
X180975000Y-88837500D03*
%TD*%
D25*
%TO.C,R2*%
X146050000Y-70207500D03*
X146050000Y-72032500D03*
%TD*%
D23*
%TO.C,D7*%
X142875000Y-111187500D03*
X142875000Y-107887500D03*
%TD*%
D25*
%TO.C,R3*%
X143510000Y-70207500D03*
X143510000Y-72032500D03*
%TD*%
D26*
%TO.C,F1*%
X153540000Y-57785000D03*
X156340000Y-57785000D03*
%TD*%
D27*
%TO.C,SW1*%
X173684000Y-61286000D03*
X179884000Y-57586000D03*
X173684000Y-57586000D03*
X179884000Y-61286000D03*
%TD*%
D21*
%TO.C,C7*%
X155636000Y-60198000D03*
X153736000Y-60198000D03*
%TD*%
D28*
%TO.C,R1*%
X166727500Y-60960000D03*
X168552500Y-60960000D03*
%TD*%
D22*
%TO.C,D1*%
X142874000Y-67310000D03*
X139574000Y-67310000D03*
%TD*%
D23*
%TO.C,D3*%
X180975000Y-72516000D03*
X180975000Y-69216000D03*
%TD*%
D29*
%TO.C,C5*%
X159602249Y-86450249D03*
X160945751Y-87793751D03*
%TD*%
D30*
%TO.C,U1*%
X156653564Y-77537918D03*
X157219250Y-76972233D03*
X157784935Y-76406548D03*
X158350620Y-75840862D03*
X158916306Y-75275177D03*
X159481991Y-74709491D03*
X160047677Y-74143806D03*
X160613362Y-73578120D03*
X161179048Y-73012435D03*
X161744733Y-72446750D03*
X162310418Y-71881064D03*
D31*
X164714582Y-71881064D03*
X165280267Y-72446750D03*
X165845952Y-73012435D03*
X166411638Y-73578120D03*
X166977323Y-74143806D03*
X167543009Y-74709491D03*
X168108694Y-75275177D03*
X168674380Y-75840862D03*
X169240065Y-76406548D03*
X169805750Y-76972233D03*
X170371436Y-77537918D03*
D30*
X170371436Y-79942082D03*
X169805750Y-80507767D03*
X169240065Y-81073452D03*
X168674380Y-81639138D03*
X168108694Y-82204823D03*
X167543009Y-82770509D03*
X166977323Y-83336194D03*
X166411638Y-83901880D03*
X165845952Y-84467565D03*
X165280267Y-85033250D03*
X164714582Y-85598936D03*
D31*
X162310418Y-85598936D03*
X161744733Y-85033250D03*
X161179048Y-84467565D03*
X160613362Y-83901880D03*
X160047677Y-83336194D03*
X159481991Y-82770509D03*
X158916306Y-82204823D03*
X158350620Y-81639138D03*
X157784935Y-81073452D03*
X157219250Y-80507767D03*
X156653564Y-79942082D03*
%TD*%
D32*
%TO.C,C4*%
X171617600Y-82194400D03*
X173517600Y-82194400D03*
%TD*%
D23*
%TO.C,D8*%
X161925000Y-111187500D03*
X161925000Y-107887500D03*
%TD*%
D24*
%TO.C,C2*%
X178217751Y-74839751D03*
X176874249Y-73496249D03*
%TD*%
D33*
%TO.C,Y1*%
X175436777Y-77578858D03*
X173881142Y-76023223D03*
X175083223Y-74821142D03*
X176638858Y-76376777D03*
%TD*%
D28*
%TO.C,R4*%
X162409500Y-89408000D03*
X164234500Y-89408000D03*
%TD*%
D34*
%TO.C,C1*%
X178217751Y-77814249D03*
X176874249Y-79157751D03*
%TD*%
D35*
%TO.C,C6*%
X152908000Y-77790000D03*
X152908000Y-79690000D03*
%TD*%
D23*
%TO.C,D9*%
X180975000Y-111187500D03*
X180975000Y-107887500D03*
%TD*%
M02*
