%TF.GenerationSoftware,KiCad,Pcbnew,(6.0.9)*%
%TF.CreationDate,2022-11-30T16:04:33-07:00*%
%TF.ProjectId,nepcropad,6e657063-726f-4706-9164-2e6b69636164,rev?*%
%TF.SameCoordinates,Original*%
%TF.FileFunction,Copper,L1,Top*%
%TF.FilePolarity,Positive*%
%FSLAX46Y46*%
G04 Gerber Fmt 4.6, Leading zero omitted, Abs format (unit mm)*
G04 Created by KiCad (PCBNEW (6.0.9)) date 2022-11-30 16:04:33*
%MOMM*%
%LPD*%
G01*
G04 APERTURE LIST*
G04 Aperture macros list*
%AMHorizOval*
0 Thick line with rounded ends*
0 $1 width*
0 $2 $3 position (X,Y) of the first rounded end (center of the circle)*
0 $4 $5 position (X,Y) of the second rounded end (center of the circle)*
0 Add line between two ends*
20,1,$1,$2,$3,$4,$5,0*
0 Add two circle primitives to create the rounded ends*
1,1,$1,$2,$3*
1,1,$1,$4,$5*%
G04 Aperture macros list end*
%TA.AperFunction,ComponentPad*%
%ADD10HorizOval,2.250000X0.655001X0.730000X-0.655001X-0.730000X0*%
%TD*%
%TA.AperFunction,ComponentPad*%
%ADD11C,2.250000*%
%TD*%
%TA.AperFunction,ComponentPad*%
%ADD12HorizOval,2.250000X0.020000X0.290000X-0.020000X-0.290000X0*%
%TD*%
%TA.AperFunction,ComponentPad*%
%ADD13O,1.700000X2.700000*%
%TD*%
%TA.AperFunction,ViaPad*%
%ADD14C,0.800000*%
%TD*%
%TA.AperFunction,Conductor*%
%ADD15C,0.250000*%
%TD*%
G04 APERTURE END LIST*
D10*
%TO.P,MX7,1,COL*%
%TO.N,COL0*%
X131782501Y-106267500D03*
D11*
X132437500Y-105537500D03*
%TO.P,MX7,2,ROW*%
%TO.N,Net-(D7-Pad2)*%
X137477500Y-104457500D03*
D12*
X137457500Y-104747500D03*
%TD*%
D11*
%TO.P,MX4,1,COL*%
%TO.N,COL0*%
X132437500Y-86487500D03*
D10*
X131782501Y-87217500D03*
D11*
%TO.P,MX4,2,ROW*%
%TO.N,Net-(D4-Pad2)*%
X137477500Y-85407500D03*
D12*
X137457500Y-85697500D03*
%TD*%
D11*
%TO.P,MX3,1,COL*%
%TO.N,COL2*%
X170537500Y-67437500D03*
D10*
X169882501Y-68167500D03*
D12*
%TO.P,MX3,2,ROW*%
%TO.N,Net-(D3-Pad2)*%
X175557500Y-66647500D03*
D11*
X175577500Y-66357500D03*
%TD*%
%TO.P,MX1,1,COL*%
%TO.N,COL0*%
X132437500Y-67437500D03*
D10*
X131782501Y-68167500D03*
D12*
%TO.P,MX1,2,ROW*%
%TO.N,Net-(D1-Pad2)*%
X137457500Y-66647500D03*
D11*
X137477500Y-66357500D03*
%TD*%
%TO.P,MX6,1,COL*%
%TO.N,COL2*%
X170537500Y-86487500D03*
D10*
X169882501Y-87217500D03*
D12*
%TO.P,MX6,2,ROW*%
%TO.N,Net-(D6-Pad2)*%
X175557500Y-85697500D03*
D11*
X175577500Y-85407500D03*
%TD*%
D10*
%TO.P,MX8,1,COL*%
%TO.N,COL1*%
X150832501Y-106267500D03*
D11*
X151487500Y-105537500D03*
%TO.P,MX8,2,ROW*%
%TO.N,Net-(D8-Pad2)*%
X156527500Y-104457500D03*
D12*
X156507500Y-104747500D03*
%TD*%
D10*
%TO.P,MX2,1,COL*%
%TO.N,COL1*%
X150832501Y-68167500D03*
D11*
X151487500Y-67437500D03*
D12*
%TO.P,MX2,2,ROW*%
%TO.N,Net-(D2-Pad2)*%
X156507500Y-66647500D03*
D11*
X156527500Y-66357500D03*
%TD*%
%TO.P,MX9,1,COL*%
%TO.N,COL2*%
X170537500Y-105537500D03*
D10*
X169882501Y-106267500D03*
D12*
%TO.P,MX9,2,ROW*%
%TO.N,Net-(D9-Pad2)*%
X175557500Y-104747500D03*
D11*
X175577500Y-104457500D03*
%TD*%
%TO.P,MX5,1,COL*%
%TO.N,COL1*%
X151487500Y-86487500D03*
D10*
X150832501Y-87217500D03*
D12*
%TO.P,MX5,2,ROW*%
%TO.N,Net-(D5-Pad2)*%
X156507500Y-85697500D03*
D11*
X156527500Y-85407500D03*
%TD*%
D13*
%TO.P,USB1,6,SHIELD*%
%TO.N,unconnected-(USB1-Pad6)*%
X94931250Y-67206250D03*
X94931250Y-62706250D03*
X87631250Y-62706250D03*
X87631250Y-67206250D03*
%TD*%
D14*
%TO.N,+5V*%
X101600000Y-87312500D03*
X102790625Y-96440625D03*
X122237500Y-88106250D03*
X118268750Y-100806250D03*
X101600000Y-82550000D03*
%TO.N,Net-(R1-Pad2)*%
X98425000Y-97631250D03*
X98425000Y-84137500D03*
%TD*%
D15*
%TO.N,+5V*%
X102790625Y-96440625D02*
X107156250Y-100806250D01*
X101600000Y-82550000D02*
X101600000Y-95250000D01*
X122237500Y-98425000D02*
X122237500Y-88106250D01*
X119856250Y-100806250D02*
X122237500Y-98425000D01*
X107156250Y-100806250D02*
X119856250Y-100806250D01*
X101600000Y-95250000D02*
X102790625Y-96440625D01*
%TO.N,COL0*%
X131127500Y-68897500D02*
X131127500Y-87947500D01*
X131127500Y-87947500D02*
X131127500Y-106997500D01*
%TO.N,COL1*%
X150177500Y-87947500D02*
X150177500Y-106997500D01*
X150177500Y-68897500D02*
X150177500Y-87947500D01*
%TO.N,COL2*%
X169227500Y-87947500D02*
X169227500Y-68897500D01*
X169227500Y-106997500D02*
X169227500Y-87947500D01*
%TO.N,Net-(R1-Pad2)*%
X98425000Y-84137500D02*
X98425000Y-97631250D01*
%TD*%
M02*
