M48
; DRILL file {KiCad (6.0.9)} date Wed 30 Nov 2022 04:05:43 PM MST
; FORMAT={-:-/ absolute / inch / decimal}
; #@! TF.CreationDate,2022-11-30T16:05:43-07:00
; #@! TF.GenerationSoftware,Kicad,Pcbnew,(6.0.9)
; #@! TF.FileFunction,Plated,1,2,PTH
FMAT,2
INCH
; #@! TA.AperFunction,Plated,PTH,ViaDrill
T1C0.0157
; #@! TA.AperFunction,Plated,PTH,ComponentDrill
T2C0.0276
; #@! TA.AperFunction,Plated,PTH,ComponentDrill
T3C0.0579
%
G90
G05
T1
X3.875Y-3.3125
X3.875Y-3.8438
X4.0Y-3.25
X4.0Y-3.4375
X4.0469Y-3.7969
X4.6562Y-3.9688
X4.8125Y-3.4688
T3
X5.1625Y-2.7125
X5.1625Y-3.4625
X5.1625Y-4.2125
X5.2141Y-2.655
X5.2141Y-3.405
X5.2141Y-4.155
X5.4109Y-2.6353
X5.4109Y-3.3853
X5.4109Y-4.1353
X5.4125Y-2.6125
X5.4125Y-3.3625
X5.4125Y-4.1125
X5.9125Y-2.7125
X5.9125Y-3.4625
X5.9125Y-4.2125
X5.9641Y-2.655
X5.9641Y-3.405
X5.9641Y-4.155
X6.1609Y-2.6353
X6.1609Y-3.3853
X6.1609Y-4.1353
X6.1625Y-2.6125
X6.1625Y-3.3625
X6.1625Y-4.1125
X6.6625Y-2.7125
X6.6625Y-3.4625
X6.6625Y-4.2125
X6.7141Y-2.655
X6.7141Y-3.405
X6.7141Y-4.155
X6.9109Y-2.6353
X6.9109Y-3.3853
X6.9109Y-4.1353
X6.9125Y-2.6125
X6.9125Y-3.3625
X6.9125Y-4.1125
T2
G00X3.45Y-2.4451
M15
G01X3.45Y-2.4924
M16
G05
G00X3.45Y-2.6223
M15
G01X3.45Y-2.6695
M16
G05
G00X3.7375Y-2.4451
M15
G01X3.7375Y-2.4924
M16
G05
G00X3.7375Y-2.6223
M15
G01X3.7375Y-2.6695
M16
G05
T0
M30
