%TF.GenerationSoftware,KiCad,Pcbnew,(6.0.9)*%
%TF.CreationDate,2022-11-30T16:04:33-07:00*%
%TF.ProjectId,nepcropad,6e657063-726f-4706-9164-2e6b69636164,rev?*%
%TF.SameCoordinates,Original*%
%TF.FileFunction,Copper,L2,Bot*%
%TF.FilePolarity,Positive*%
%FSLAX46Y46*%
G04 Gerber Fmt 4.6, Leading zero omitted, Abs format (unit mm)*
G04 Created by KiCad (PCBNEW (6.0.9)) date 2022-11-30 16:04:33*
%MOMM*%
%LPD*%
G01*
G04 APERTURE LIST*
G04 Aperture macros list*
%AMRoundRect*
0 Rectangle with rounded corners*
0 $1 Rounding radius*
0 $2 $3 $4 $5 $6 $7 $8 $9 X,Y pos of 4 corners*
0 Add a 4 corners polygon primitive as box body*
4,1,4,$2,$3,$4,$5,$6,$7,$8,$9,$2,$3,0*
0 Add four circle primitives for the rounded corners*
1,1,$1+$1,$2,$3*
1,1,$1+$1,$4,$5*
1,1,$1+$1,$6,$7*
1,1,$1+$1,$8,$9*
0 Add four rect primitives between the rounded corners*
20,1,$1+$1,$2,$3,$4,$5,0*
20,1,$1+$1,$4,$5,$6,$7,0*
20,1,$1+$1,$6,$7,$8,$9,0*
20,1,$1+$1,$8,$9,$2,$3,0*%
%AMHorizOval*
0 Thick line with rounded ends*
0 $1 width*
0 $2 $3 position (X,Y) of the first rounded end (center of the circle)*
0 $4 $5 position (X,Y) of the second rounded end (center of the circle)*
0 Add line between two ends*
20,1,$1,$2,$3,$4,$5,0*
0 Add two circle primitives to create the rounded ends*
1,1,$1,$2,$3*
1,1,$1,$4,$5*%
G04 Aperture macros list end*
%TA.AperFunction,NonConductor*%
%ADD10C,0.200000*%
%TD*%
%TA.AperFunction,ComponentPad*%
%ADD11HorizOval,2.250000X0.655001X0.730000X-0.655001X-0.730000X0*%
%TD*%
%TA.AperFunction,ComponentPad*%
%ADD12C,2.250000*%
%TD*%
%TA.AperFunction,ComponentPad*%
%ADD13HorizOval,2.250000X0.020000X0.290000X-0.020000X-0.290000X0*%
%TD*%
%TA.AperFunction,SMDPad,CuDef*%
%ADD14R,1.200000X0.900000*%
%TD*%
%TA.AperFunction,SMDPad,CuDef*%
%ADD15RoundRect,0.250000X0.250000X0.475000X-0.250000X0.475000X-0.250000X-0.475000X0.250000X-0.475000X0*%
%TD*%
%TA.AperFunction,SMDPad,CuDef*%
%ADD16RoundRect,0.250000X-0.450000X0.262500X-0.450000X-0.262500X0.450000X-0.262500X0.450000X0.262500X0*%
%TD*%
%TA.AperFunction,SMDPad,CuDef*%
%ADD17RoundRect,0.250000X-0.625000X0.375000X-0.625000X-0.375000X0.625000X-0.375000X0.625000X0.375000X0*%
%TD*%
%TA.AperFunction,SMDPad,CuDef*%
%ADD18R,0.500000X2.250000*%
%TD*%
%TA.AperFunction,ComponentPad*%
%ADD19O,1.700000X2.700000*%
%TD*%
%TA.AperFunction,SMDPad,CuDef*%
%ADD20R,1.800000X1.100000*%
%TD*%
%TA.AperFunction,SMDPad,CuDef*%
%ADD21RoundRect,0.250000X-0.475000X0.250000X-0.475000X-0.250000X0.475000X-0.250000X0.475000X0.250000X0*%
%TD*%
%TA.AperFunction,SMDPad,CuDef*%
%ADD22RoundRect,0.250000X0.475000X-0.250000X0.475000X0.250000X-0.475000X0.250000X-0.475000X-0.250000X0*%
%TD*%
%TA.AperFunction,SMDPad,CuDef*%
%ADD23R,1.500000X0.550000*%
%TD*%
%TA.AperFunction,SMDPad,CuDef*%
%ADD24R,0.550000X1.500000*%
%TD*%
%TA.AperFunction,SMDPad,CuDef*%
%ADD25R,1.400000X1.200000*%
%TD*%
%TA.AperFunction,SMDPad,CuDef*%
%ADD26RoundRect,0.250000X0.450000X-0.262500X0.450000X0.262500X-0.450000X0.262500X-0.450000X-0.262500X0*%
%TD*%
%TA.AperFunction,ViaPad*%
%ADD27C,0.800000*%
%TD*%
%TA.AperFunction,Conductor*%
%ADD28C,0.250000*%
%TD*%
%TA.AperFunction,Conductor*%
%ADD29C,0.200000*%
%TD*%
G04 APERTURE END LIST*
D10*
X95250000Y-71437500D02*
X95250000Y-86518750D01*
X95250000Y-71437500D02*
X92868750Y-68262500D01*
X92868750Y-68262500D02*
X92868750Y-67468750D01*
D11*
%TO.P,MX7,1,COL*%
%TO.N,COL0*%
X131782501Y-106267500D03*
D12*
X132437500Y-105537500D03*
%TO.P,MX7,2,ROW*%
%TO.N,Net-(D7-Pad2)*%
X137477500Y-104457500D03*
D13*
X137457500Y-104747500D03*
%TD*%
D12*
%TO.P,MX4,1,COL*%
%TO.N,COL0*%
X132437500Y-86487500D03*
D11*
X131782501Y-87217500D03*
D12*
%TO.P,MX4,2,ROW*%
%TO.N,Net-(D4-Pad2)*%
X137477500Y-85407500D03*
D13*
X137457500Y-85697500D03*
%TD*%
D12*
%TO.P,MX3,1,COL*%
%TO.N,COL2*%
X170537500Y-67437500D03*
D11*
X169882501Y-68167500D03*
D13*
%TO.P,MX3,2,ROW*%
%TO.N,Net-(D3-Pad2)*%
X175557500Y-66647500D03*
D12*
X175577500Y-66357500D03*
%TD*%
%TO.P,MX1,1,COL*%
%TO.N,COL0*%
X132437500Y-67437500D03*
D11*
X131782501Y-68167500D03*
D13*
%TO.P,MX1,2,ROW*%
%TO.N,Net-(D1-Pad2)*%
X137457500Y-66647500D03*
D12*
X137477500Y-66357500D03*
%TD*%
%TO.P,MX6,1,COL*%
%TO.N,COL2*%
X170537500Y-86487500D03*
D11*
X169882501Y-87217500D03*
D13*
%TO.P,MX6,2,ROW*%
%TO.N,Net-(D6-Pad2)*%
X175557500Y-85697500D03*
D12*
X175577500Y-85407500D03*
%TD*%
D11*
%TO.P,MX8,1,COL*%
%TO.N,COL1*%
X150832501Y-106267500D03*
D12*
X151487500Y-105537500D03*
%TO.P,MX8,2,ROW*%
%TO.N,Net-(D8-Pad2)*%
X156527500Y-104457500D03*
D13*
X156507500Y-104747500D03*
%TD*%
D11*
%TO.P,MX2,1,COL*%
%TO.N,COL1*%
X150832501Y-68167500D03*
D12*
X151487500Y-67437500D03*
D13*
%TO.P,MX2,2,ROW*%
%TO.N,Net-(D2-Pad2)*%
X156507500Y-66647500D03*
D12*
X156527500Y-66357500D03*
%TD*%
%TO.P,MX9,1,COL*%
%TO.N,COL2*%
X170537500Y-105537500D03*
D11*
X169882501Y-106267500D03*
D13*
%TO.P,MX9,2,ROW*%
%TO.N,Net-(D9-Pad2)*%
X175557500Y-104747500D03*
D12*
X175577500Y-104457500D03*
%TD*%
%TO.P,MX5,1,COL*%
%TO.N,COL1*%
X151487500Y-86487500D03*
D11*
X150832501Y-87217500D03*
D13*
%TO.P,MX5,2,ROW*%
%TO.N,Net-(D5-Pad2)*%
X156507500Y-85697500D03*
D12*
X156527500Y-85407500D03*
%TD*%
D14*
%TO.P,D2,1,K*%
%TO.N,ROW0*%
X161925000Y-73150000D03*
%TO.P,D2,2,A*%
%TO.N,Net-(D2-Pad2)*%
X161925000Y-69850000D03*
%TD*%
%TO.P,D5,1,K*%
%TO.N,ROW1*%
X161925000Y-92137500D03*
%TO.P,D5,2,A*%
%TO.N,Net-(D5-Pad2)*%
X161925000Y-88837500D03*
%TD*%
%TO.P,D4,1,K*%
%TO.N,ROW1*%
X142875000Y-92137500D03*
%TO.P,D4,2,A*%
%TO.N,Net-(D4-Pad2)*%
X142875000Y-88837500D03*
%TD*%
D15*
%TO.P,C3,1*%
%TO.N,Net-(C3-Pad1)*%
X102550000Y-89693750D03*
%TO.P,C3,2*%
%TO.N,GND*%
X100650000Y-89693750D03*
%TD*%
D14*
%TO.P,D6,1,K*%
%TO.N,ROW1*%
X180975000Y-92137500D03*
%TO.P,D6,2,A*%
%TO.N,Net-(D6-Pad2)*%
X180975000Y-88837500D03*
%TD*%
D16*
%TO.P,R2,1*%
%TO.N,D+*%
X92868750Y-71318750D03*
%TO.P,R2,2*%
%TO.N,Net-(R2-Pad2)*%
X92868750Y-73143750D03*
%TD*%
D14*
%TO.P,D7,1,K*%
%TO.N,ROW2*%
X142875000Y-111187500D03*
%TO.P,D7,2,A*%
%TO.N,Net-(D7-Pad2)*%
X142875000Y-107887500D03*
%TD*%
D16*
%TO.P,R3,1*%
%TO.N,D-*%
X88900000Y-71318750D03*
%TO.P,R3,2*%
%TO.N,Net-(R3-Pad2)*%
X88900000Y-73143750D03*
%TD*%
D17*
%TO.P,F1,1*%
%TO.N,VCC*%
X84931250Y-77975000D03*
%TO.P,F1,2*%
%TO.N,+5V*%
X84931250Y-80775000D03*
%TD*%
D18*
%TO.P,USB1,1,GND*%
%TO.N,GND*%
X92881250Y-67206250D03*
%TO.P,USB1,2,ID*%
%TO.N,unconnected-(USB1-Pad2)*%
X92081250Y-67206250D03*
%TO.P,USB1,3,D+*%
%TO.N,D+*%
X91281250Y-67206250D03*
%TO.P,USB1,4,D-*%
%TO.N,D-*%
X90481250Y-67206250D03*
%TO.P,USB1,5,VBUS*%
%TO.N,VCC*%
X89681250Y-67206250D03*
D19*
%TO.P,USB1,6,SHIELD*%
%TO.N,unconnected-(USB1-Pad6)*%
X94931250Y-67206250D03*
X94931250Y-62706250D03*
X87631250Y-62706250D03*
X87631250Y-67206250D03*
%TD*%
D20*
%TO.P,SW1,1,1*%
%TO.N,GND*%
X90562500Y-101068750D03*
%TO.P,SW1,2,2*%
%TO.N,Net-(R1-Pad2)*%
X96762500Y-97368750D03*
%TO.P,SW1,3*%
%TO.N,N/C*%
X90562500Y-97368750D03*
%TO.P,SW1,4*%
X96762500Y-101068750D03*
%TD*%
D21*
%TO.P,C7,1*%
%TO.N,+5V*%
X101600000Y-97475000D03*
%TO.P,C7,2*%
%TO.N,GND*%
X101600000Y-99375000D03*
%TD*%
D16*
%TO.P,R1,1*%
%TO.N,+5V*%
X100012500Y-82431250D03*
%TO.P,R1,2*%
%TO.N,Net-(R1-Pad2)*%
X100012500Y-84256250D03*
%TD*%
D14*
%TO.P,D1,1,K*%
%TO.N,ROW0*%
X142875000Y-73087500D03*
%TO.P,D1,2,A*%
%TO.N,Net-(D1-Pad2)*%
X142875000Y-69787500D03*
%TD*%
%TO.P,D3,1,K*%
%TO.N,ROW0*%
X180975000Y-73087500D03*
%TO.P,D3,2,A*%
%TO.N,Net-(D3-Pad2)*%
X180975000Y-69787500D03*
%TD*%
D22*
%TO.P,C5,1*%
%TO.N,+5V*%
X120650000Y-87625000D03*
%TO.P,C5,2*%
%TO.N,GND*%
X120650000Y-85725000D03*
%TD*%
D23*
%TO.P,U1,1,PE6*%
%TO.N,unconnected-(U1-Pad1)*%
X105425000Y-95281250D03*
%TO.P,U1,2,UVCC*%
%TO.N,+5V*%
X105425000Y-94481250D03*
%TO.P,U1,3,D-*%
%TO.N,Net-(R3-Pad2)*%
X105425000Y-93681250D03*
%TO.P,U1,4,D+*%
%TO.N,Net-(R2-Pad2)*%
X105425000Y-92881250D03*
%TO.P,U1,5,UGND*%
%TO.N,GND*%
X105425000Y-92081250D03*
%TO.P,U1,6,UCAP*%
%TO.N,Net-(C3-Pad1)*%
X105425000Y-91281250D03*
%TO.P,U1,7,VBUS*%
%TO.N,+5V*%
X105425000Y-90481250D03*
%TO.P,U1,8,PB0*%
%TO.N,unconnected-(U1-Pad8)*%
X105425000Y-89681250D03*
%TO.P,U1,9,PB1*%
%TO.N,unconnected-(U1-Pad9)*%
X105425000Y-88881250D03*
%TO.P,U1,10,PB2*%
%TO.N,unconnected-(U1-Pad10)*%
X105425000Y-88081250D03*
%TO.P,U1,11,PB3*%
%TO.N,unconnected-(U1-Pad11)*%
X105425000Y-87281250D03*
D24*
%TO.P,U1,12,PB7*%
%TO.N,unconnected-(U1-Pad12)*%
X107125000Y-85581250D03*
%TO.P,U1,13,~{RESET}*%
%TO.N,Net-(R1-Pad2)*%
X107925000Y-85581250D03*
%TO.P,U1,14,VCC*%
%TO.N,+5V*%
X108725000Y-85581250D03*
%TO.P,U1,15,GND*%
%TO.N,GND*%
X109525000Y-85581250D03*
%TO.P,U1,16,XTAL2*%
%TO.N,Net-(C2-Pad2)*%
X110325000Y-85581250D03*
%TO.P,U1,17,XTAL1*%
%TO.N,Net-(C1-Pad2)*%
X111125000Y-85581250D03*
%TO.P,U1,18,PD0*%
%TO.N,unconnected-(U1-Pad18)*%
X111925000Y-85581250D03*
%TO.P,U1,19,PD1*%
%TO.N,unconnected-(U1-Pad19)*%
X112725000Y-85581250D03*
%TO.P,U1,20,PD2*%
%TO.N,unconnected-(U1-Pad20)*%
X113525000Y-85581250D03*
%TO.P,U1,21,PD3*%
%TO.N,unconnected-(U1-Pad21)*%
X114325000Y-85581250D03*
%TO.P,U1,22,PD5*%
%TO.N,unconnected-(U1-Pad22)*%
X115125000Y-85581250D03*
D23*
%TO.P,U1,23,GND*%
%TO.N,GND*%
X116825000Y-87281250D03*
%TO.P,U1,24,AVCC*%
%TO.N,+5V*%
X116825000Y-88081250D03*
%TO.P,U1,25,PD4*%
%TO.N,unconnected-(U1-Pad25)*%
X116825000Y-88881250D03*
%TO.P,U1,26,PD6*%
%TO.N,ROW0*%
X116825000Y-89681250D03*
%TO.P,U1,27,PD7*%
%TO.N,ROW1*%
X116825000Y-90481250D03*
%TO.P,U1,28,PB4*%
%TO.N,COL2*%
X116825000Y-91281250D03*
%TO.P,U1,29,PB5*%
%TO.N,COL1*%
X116825000Y-92081250D03*
%TO.P,U1,30,PB6*%
%TO.N,COL0*%
X116825000Y-92881250D03*
%TO.P,U1,31,PC6*%
%TO.N,ROW2*%
X116825000Y-93681250D03*
%TO.P,U1,32,PC7*%
%TO.N,unconnected-(U1-Pad32)*%
X116825000Y-94481250D03*
%TO.P,U1,33,~{HWB}/PE2*%
%TO.N,Net-(R4-Pad2)*%
X116825000Y-95281250D03*
D24*
%TO.P,U1,34,VCC*%
%TO.N,+5V*%
X115125000Y-96981250D03*
%TO.P,U1,35,GND*%
%TO.N,GND*%
X114325000Y-96981250D03*
%TO.P,U1,36,PF7*%
%TO.N,unconnected-(U1-Pad36)*%
X113525000Y-96981250D03*
%TO.P,U1,37,PF6*%
%TO.N,unconnected-(U1-Pad37)*%
X112725000Y-96981250D03*
%TO.P,U1,38,PF5*%
%TO.N,unconnected-(U1-Pad38)*%
X111925000Y-96981250D03*
%TO.P,U1,39,PF4*%
%TO.N,unconnected-(U1-Pad39)*%
X111125000Y-96981250D03*
%TO.P,U1,40,PF1*%
%TO.N,unconnected-(U1-Pad40)*%
X110325000Y-96981250D03*
%TO.P,U1,41,PF0*%
%TO.N,unconnected-(U1-Pad41)*%
X109525000Y-96981250D03*
%TO.P,U1,42,AREF*%
%TO.N,unconnected-(U1-Pad42)*%
X108725000Y-96981250D03*
%TO.P,U1,43,GND*%
%TO.N,GND*%
X107925000Y-96981250D03*
%TO.P,U1,44,AVCC*%
%TO.N,+5V*%
X107125000Y-96981250D03*
%TD*%
D22*
%TO.P,C4,1*%
%TO.N,+5V*%
X103187500Y-84293750D03*
%TO.P,C4,2*%
%TO.N,GND*%
X103187500Y-82393750D03*
%TD*%
D14*
%TO.P,D8,1,K*%
%TO.N,ROW2*%
X161925000Y-111187500D03*
%TO.P,D8,2,A*%
%TO.N,Net-(D8-Pad2)*%
X161925000Y-107887500D03*
%TD*%
D22*
%TO.P,C2,1*%
%TO.N,GND*%
X107156250Y-79531250D03*
%TO.P,C2,2*%
%TO.N,Net-(C2-Pad2)*%
X107156250Y-77631250D03*
%TD*%
D25*
%TO.P,Y1,1,1*%
%TO.N,Net-(C1-Pad2)*%
X112225000Y-79431250D03*
%TO.P,Y1,2,2*%
%TO.N,GND*%
X110025000Y-79431250D03*
%TO.P,Y1,3,3*%
%TO.N,Net-(C2-Pad2)*%
X110025000Y-77731250D03*
%TO.P,Y1,4,4*%
%TO.N,GND*%
X112225000Y-77731250D03*
%TD*%
D26*
%TO.P,R4,1*%
%TO.N,GND*%
X120650000Y-97750000D03*
%TO.P,R4,2*%
%TO.N,Net-(R4-Pad2)*%
X120650000Y-95925000D03*
%TD*%
D21*
%TO.P,C1,1*%
%TO.N,GND*%
X115093750Y-77631250D03*
%TO.P,C1,2*%
%TO.N,Net-(C1-Pad2)*%
X115093750Y-79531250D03*
%TD*%
D15*
%TO.P,C6,1*%
%TO.N,+5V*%
X116837500Y-100806250D03*
%TO.P,C6,2*%
%TO.N,GND*%
X114937500Y-100806250D03*
%TD*%
D14*
%TO.P,D9,1,K*%
%TO.N,ROW2*%
X180975000Y-111187500D03*
%TO.P,D9,2,A*%
%TO.N,Net-(D9-Pad2)*%
X180975000Y-107887500D03*
%TD*%
D27*
%TO.N,+5V*%
X101600000Y-87312500D03*
X102790625Y-96440625D03*
X122237500Y-88106250D03*
X118268750Y-100806250D03*
X101600000Y-82550000D03*
%TO.N,Net-(R1-Pad2)*%
X98425000Y-97631250D03*
X98425000Y-84137500D03*
%TD*%
D28*
%TO.N,Net-(R2-Pad2)*%
X92868750Y-73143750D02*
X92868750Y-73818750D01*
X92868750Y-73818750D02*
X91281250Y-75406250D01*
X91281250Y-75406250D02*
X91281250Y-88900000D01*
X91281250Y-88900000D02*
X95262500Y-92881250D01*
X95262500Y-92881250D02*
X105425000Y-92881250D01*
%TO.N,ROW0*%
X123043750Y-89681250D02*
X139637500Y-73087500D01*
X139637500Y-73087500D02*
X142875000Y-73087500D01*
%TO.N,ROW1*%
X116825000Y-90481250D02*
X128083481Y-90481250D01*
X142143750Y-92868750D02*
X142875000Y-92137500D01*
X128083481Y-90481250D02*
X130470981Y-92868750D01*
X130470981Y-92868750D02*
X142143750Y-92868750D01*
%TO.N,ROW2*%
X116825000Y-93681250D02*
X119931923Y-93681250D01*
X119931923Y-93681250D02*
X119950673Y-93662500D01*
X123825000Y-109537500D02*
X126193901Y-111906401D01*
X119950673Y-93662500D02*
X121443750Y-93662500D01*
X121443750Y-93662500D02*
X123825000Y-96043750D01*
X123825000Y-96043750D02*
X123825000Y-109537500D01*
X126193901Y-111906401D02*
X142156099Y-111906401D01*
X142156099Y-111906401D02*
X142875000Y-111187500D01*
%TO.N,COL0*%
X116825000Y-92881250D02*
X121431250Y-92881250D01*
X121431250Y-92881250D02*
X121443750Y-92868750D01*
X121443750Y-92868750D02*
X127793750Y-99218750D01*
X127793750Y-99218750D02*
X127793750Y-106362500D01*
X127793750Y-106362500D02*
X128428750Y-106997500D01*
%TO.N,COL2*%
X159861250Y-97631250D02*
X169227500Y-106997500D01*
X116825000Y-91281250D02*
X121443750Y-91281250D01*
X121443750Y-91281250D02*
X127793750Y-97631250D01*
X127793750Y-97631250D02*
X159861250Y-97631250D01*
%TO.N,COL1*%
X116825000Y-92081250D02*
X121450000Y-92081250D01*
X121450000Y-92081250D02*
X127793750Y-98425000D01*
X127793750Y-98425000D02*
X141605000Y-98425000D01*
X141605000Y-98425000D02*
X150177500Y-106997500D01*
%TO.N,COL0*%
X128428750Y-106997500D02*
X131127500Y-106997500D01*
%TO.N,ROW0*%
X116825000Y-89681250D02*
X123043750Y-89681250D01*
X161925000Y-73150000D02*
X162581401Y-73806401D01*
X180256099Y-73806401D02*
X180975000Y-73087500D01*
X162581401Y-73806401D02*
X180256099Y-73806401D01*
%TO.N,GND*%
X111918750Y-76200000D02*
X105568750Y-76200000D01*
X92881250Y-67206250D02*
X92881250Y-67481250D01*
X115887500Y-103187500D02*
X118268750Y-103187500D01*
X103187500Y-82393750D02*
X104618750Y-82393750D01*
X107950000Y-80962500D02*
X107156250Y-80962500D01*
X111125000Y-88900000D02*
X109525000Y-87300000D01*
X108743750Y-94456250D02*
X107925000Y-95275000D01*
X107793750Y-99375000D02*
X107950000Y-99218750D01*
X114325000Y-94481250D02*
X114300000Y-94456250D01*
X115918750Y-87281250D02*
X116825000Y-87281250D01*
X90562500Y-103112500D02*
X90487500Y-103187500D01*
X114325000Y-96981250D02*
X114325000Y-100193750D01*
X100812500Y-92081250D02*
X105425000Y-92081250D01*
X107950000Y-99218750D02*
X107925000Y-99193750D01*
X120650000Y-100806250D02*
X120650000Y-97750000D01*
X104775000Y-82550000D02*
X109537500Y-82550000D01*
X107156250Y-80962500D02*
X107156250Y-79531250D01*
X90487500Y-103187500D02*
X100012500Y-103187500D01*
X114300000Y-94456250D02*
X108743750Y-94456250D01*
X116825000Y-87281250D02*
X117506250Y-87281250D01*
X105568750Y-79375000D02*
X105725000Y-79531250D01*
X112225000Y-77731250D02*
X111975000Y-77731250D01*
X90562500Y-101068750D02*
X90562500Y-103112500D01*
X104618750Y-82393750D02*
X104775000Y-82550000D01*
X100012500Y-103187500D02*
X101600000Y-101600000D01*
X114325000Y-96981250D02*
X114325000Y-94481250D01*
X114300000Y-88900000D02*
X115918750Y-87281250D01*
X114937500Y-100806250D02*
X114937500Y-102237500D01*
X114937500Y-102237500D02*
X115887500Y-103187500D01*
X109537500Y-83318750D02*
X109537500Y-82550000D01*
X118268750Y-103187500D02*
X120650000Y-100806250D01*
X114300000Y-88900000D02*
X111125000Y-88900000D01*
X112225000Y-76506250D02*
X111918750Y-76200000D01*
X105568750Y-76200000D02*
X105568750Y-79375000D01*
X119062500Y-85725000D02*
X120650000Y-85725000D01*
X110275000Y-79431250D02*
X110025000Y-79431250D01*
X115093750Y-77631250D02*
X114993750Y-77731250D01*
X101600000Y-101600000D02*
X101600000Y-99375000D01*
X103037500Y-92081250D02*
X105425000Y-92081250D01*
X95250000Y-86518750D02*
X100812500Y-92081250D01*
X114325000Y-100193750D02*
X114937500Y-100806250D01*
X100650000Y-89693750D02*
X103037500Y-92081250D01*
X117506250Y-87281250D02*
X119062500Y-85725000D01*
X109537500Y-82550000D02*
X107950000Y-80962500D01*
X108743750Y-94456250D02*
X106368750Y-92081250D01*
X112225000Y-77731250D02*
X112225000Y-76506250D01*
X101600000Y-99375000D02*
X107793750Y-99375000D01*
X111975000Y-77731250D02*
X110275000Y-79431250D01*
X105725000Y-79531250D02*
X107156250Y-79531250D01*
X106368750Y-92081250D02*
X105425000Y-92081250D01*
X114300000Y-94456250D02*
X114300000Y-88900000D01*
X109525000Y-85581250D02*
X109525000Y-83331250D01*
X107925000Y-99193750D02*
X107925000Y-96981250D01*
X109525000Y-83331250D02*
X109537500Y-83318750D01*
X114993750Y-77731250D02*
X112225000Y-77731250D01*
X109525000Y-87300000D02*
X109525000Y-85581250D01*
X107925000Y-95275000D02*
X107925000Y-96981250D01*
%TO.N,Net-(C1-Pad2)*%
X112225000Y-81450000D02*
X111125000Y-82550000D01*
X111125000Y-82550000D02*
X111125000Y-85581250D01*
X114993750Y-79431250D02*
X115093750Y-79531250D01*
X112225000Y-79431250D02*
X112225000Y-81450000D01*
X112225000Y-79431250D02*
X114993750Y-79431250D01*
%TO.N,Net-(C2-Pad2)*%
X108743750Y-78912500D02*
X108743750Y-80962500D01*
X108743750Y-80962500D02*
X110325000Y-82543750D01*
X110325000Y-82543750D02*
X110325000Y-85581250D01*
X110025000Y-77731250D02*
X109925000Y-77731250D01*
X110025000Y-77731250D02*
X107256250Y-77731250D01*
X109925000Y-77731250D02*
X108743750Y-78912500D01*
X107256250Y-77731250D02*
X107156250Y-77631250D01*
%TO.N,Net-(C3-Pad1)*%
X102550000Y-89693750D02*
X104137500Y-91281250D01*
X104137500Y-91281250D02*
X105425000Y-91281250D01*
%TO.N,+5V*%
X89693750Y-95250000D02*
X84931250Y-90487500D01*
X121131250Y-88106250D02*
X120650000Y-87625000D01*
X102790625Y-97234375D02*
X102790625Y-96440625D01*
X120650000Y-87625000D02*
X120193750Y-88081250D01*
X103981250Y-98425000D02*
X102790625Y-97234375D01*
X116837500Y-100806250D02*
X115125000Y-99093750D01*
X101481250Y-82431250D02*
X101600000Y-82550000D01*
X106362500Y-98425000D02*
X103981250Y-98425000D01*
X101600000Y-97475000D02*
X104593750Y-94481250D01*
X108725000Y-83362500D02*
X108743750Y-83343750D01*
X99375000Y-95250000D02*
X89693750Y-95250000D01*
X100012500Y-82431250D02*
X101481250Y-82431250D01*
X122237500Y-88106250D02*
X121131250Y-88106250D01*
X106362500Y-98425000D02*
X107125000Y-97662500D01*
X120193750Y-88081250D02*
X116825000Y-88081250D01*
X103187500Y-84293750D02*
X101875000Y-84293750D01*
X108743750Y-83343750D02*
X104137500Y-83343750D01*
X84931250Y-90487500D02*
X84931250Y-80775000D01*
X118268750Y-100806250D02*
X116837500Y-100806250D01*
X104593750Y-94481250D02*
X105425000Y-94481250D01*
X104550000Y-90481250D02*
X105425000Y-90481250D01*
X104350000Y-90281250D02*
X104550000Y-90481250D01*
X107125000Y-97662500D02*
X107125000Y-96981250D01*
X101875000Y-84293750D02*
X100012500Y-82431250D01*
X101600000Y-87312500D02*
X103187500Y-87312500D01*
X104350000Y-88475000D02*
X104350000Y-90281250D01*
X101600000Y-97475000D02*
X99375000Y-95250000D01*
X108725000Y-85581250D02*
X108725000Y-83362500D01*
X103187500Y-87312500D02*
X104350000Y-88475000D01*
X104137500Y-83343750D02*
X103187500Y-84293750D01*
X115125000Y-99093750D02*
X115125000Y-96981250D01*
%TO.N,ROW0*%
X143593901Y-73806401D02*
X161268599Y-73806401D01*
X161268599Y-73806401D02*
X161925000Y-73150000D01*
X142875000Y-73087500D02*
X143593901Y-73806401D01*
%TO.N,Net-(D1-Pad2)*%
X142875000Y-68262500D02*
X140970000Y-66357500D01*
X140970000Y-66357500D02*
X137477500Y-66357500D01*
X142875000Y-69787500D02*
X142875000Y-68262500D01*
%TO.N,Net-(D2-Pad2)*%
X161925000Y-68262500D02*
X160020000Y-66357500D01*
X160020000Y-66357500D02*
X156527500Y-66357500D01*
X161925000Y-69850000D02*
X161925000Y-68262500D01*
%TO.N,Net-(D3-Pad2)*%
X180975000Y-69787500D02*
X180975000Y-68262500D01*
X179070000Y-66357500D02*
X175577500Y-66357500D01*
X180975000Y-68262500D02*
X179070000Y-66357500D01*
%TO.N,ROW1*%
X180256099Y-92856401D02*
X180975000Y-92137500D01*
X162643901Y-92856401D02*
X180256099Y-92856401D01*
X143593901Y-92856401D02*
X161206099Y-92856401D01*
X161206099Y-92856401D02*
X161925000Y-92137500D01*
X161925000Y-92137500D02*
X162643901Y-92856401D01*
X142875000Y-92137500D02*
X143593901Y-92856401D01*
%TO.N,Net-(D4-Pad2)*%
X142875000Y-87312500D02*
X140970000Y-85407500D01*
X140970000Y-85407500D02*
X137477500Y-85407500D01*
X142875000Y-88837500D02*
X142875000Y-87312500D01*
%TO.N,Net-(D5-Pad2)*%
X160020000Y-85407500D02*
X156527500Y-85407500D01*
X161925000Y-87312500D02*
X160020000Y-85407500D01*
X161925000Y-88837500D02*
X161925000Y-87312500D01*
%TO.N,Net-(D6-Pad2)*%
X180975000Y-88837500D02*
X180975000Y-87312500D01*
X179070000Y-85407500D02*
X175577500Y-85407500D01*
X180975000Y-87312500D02*
X179070000Y-85407500D01*
%TO.N,ROW2*%
X162643901Y-111906401D02*
X161925000Y-111187500D01*
X161206099Y-111906401D02*
X143593901Y-111906401D01*
X180975000Y-111187500D02*
X180256099Y-111906401D01*
X143593901Y-111906401D02*
X142875000Y-111187500D01*
X180256099Y-111906401D02*
X162643901Y-111906401D01*
X161925000Y-111187500D02*
X161206099Y-111906401D01*
%TO.N,Net-(D7-Pad2)*%
X140970000Y-104457500D02*
X137477500Y-104457500D01*
X142875000Y-106362500D02*
X140970000Y-104457500D01*
X142875000Y-107887500D02*
X142875000Y-106362500D01*
%TO.N,Net-(D8-Pad2)*%
X161925000Y-106362500D02*
X160020000Y-104457500D01*
X161925000Y-107887500D02*
X161925000Y-106362500D01*
X160020000Y-104457500D02*
X156527500Y-104457500D01*
%TO.N,Net-(D9-Pad2)*%
X180975000Y-106362500D02*
X179070000Y-104457500D01*
X180975000Y-107887500D02*
X180975000Y-106362500D01*
X179070000Y-104457500D02*
X175577500Y-104457500D01*
%TO.N,VCC*%
X85725000Y-69850000D02*
X87912500Y-69850000D01*
X87912500Y-69850000D02*
X89681250Y-68081250D01*
X89681250Y-68081250D02*
X89681250Y-67206250D01*
X84931250Y-77975000D02*
X84931250Y-70643750D01*
X84931250Y-70643750D02*
X85725000Y-69850000D01*
%TO.N,Net-(R1-Pad2)*%
X107356250Y-84137500D02*
X107925000Y-84706250D01*
X100012500Y-84256250D02*
X98543750Y-84256250D01*
X98425000Y-97631250D02*
X97025000Y-97631250D01*
X106362500Y-84137500D02*
X107356250Y-84137500D01*
X97025000Y-97631250D02*
X96762500Y-97368750D01*
X104775000Y-85725000D02*
X106362500Y-84137500D01*
X98543750Y-84256250D02*
X98425000Y-84137500D01*
X100012500Y-84256250D02*
X101481250Y-85725000D01*
X107925000Y-84706250D02*
X107925000Y-85581250D01*
X101481250Y-85725000D02*
X104775000Y-85725000D01*
D29*
%TO.N,D+*%
X91281250Y-67206250D02*
X91281250Y-69731250D01*
X91281250Y-69731250D02*
X92868750Y-71318750D01*
%TO.N,D-*%
X90481250Y-69737500D02*
X88900000Y-71318750D01*
X90481250Y-67206250D02*
X90481250Y-69737500D01*
D28*
%TO.N,Net-(R3-Pad2)*%
X88900000Y-73818750D02*
X90487500Y-75406250D01*
X90487500Y-75406250D02*
X90487500Y-88900000D01*
X88900000Y-73143750D02*
X88900000Y-73818750D01*
X90487500Y-88900000D02*
X95268750Y-93681250D01*
X95268750Y-93681250D02*
X105425000Y-93681250D01*
%TO.N,Net-(R4-Pad2)*%
X120006250Y-95281250D02*
X116825000Y-95281250D01*
X120650000Y-95925000D02*
X120006250Y-95281250D01*
%TD*%
%TA.AperFunction,Conductor*%
%TO.N,GND*%
G36*
X86284499Y-61647252D02*
G01*
X86330992Y-61700908D01*
X86341096Y-61771182D01*
X86334818Y-61796236D01*
X86314913Y-61851075D01*
X86313964Y-61856324D01*
X86313963Y-61856327D01*
X86274627Y-62073858D01*
X86274626Y-62073865D01*
X86273889Y-62077942D01*
X86272750Y-62102094D01*
X86272750Y-63264140D01*
X86287330Y-63435970D01*
X86288668Y-63441125D01*
X86288669Y-63441131D01*
X86343907Y-63653953D01*
X86345249Y-63659122D01*
X86439938Y-63869325D01*
X86568691Y-64060569D01*
X86727826Y-64227385D01*
X86912792Y-64365004D01*
X86917543Y-64367420D01*
X86917547Y-64367422D01*
X87015547Y-64417247D01*
X87118301Y-64469490D01*
X87123395Y-64471072D01*
X87123398Y-64471073D01*
X87323270Y-64533135D01*
X87338477Y-64537857D01*
X87343766Y-64538558D01*
X87561739Y-64567448D01*
X87561744Y-64567448D01*
X87567024Y-64568148D01*
X87572353Y-64567948D01*
X87572355Y-64567948D01*
X87682216Y-64563823D01*
X87797408Y-64559499D01*
X88023041Y-64512157D01*
X88028000Y-64510199D01*
X88028002Y-64510198D01*
X88232506Y-64429435D01*
X88232508Y-64429434D01*
X88237471Y-64427474D01*
X88336434Y-64367422D01*
X88430007Y-64310640D01*
X88430006Y-64310640D01*
X88434567Y-64307873D01*
X88438597Y-64304376D01*
X88604662Y-64160273D01*
X88604664Y-64160271D01*
X88608695Y-64156773D01*
X88642766Y-64115220D01*
X88751490Y-63982623D01*
X88751494Y-63982617D01*
X88754874Y-63978495D01*
X88868925Y-63778136D01*
X88947587Y-63561425D01*
X88970273Y-63435970D01*
X88987873Y-63338642D01*
X88987874Y-63338635D01*
X88988611Y-63334558D01*
X88989750Y-63310406D01*
X88989750Y-62148360D01*
X88978239Y-62012697D01*
X88975621Y-61981841D01*
X88975620Y-61981837D01*
X88975170Y-61976530D01*
X88973832Y-61971375D01*
X88973831Y-61971369D01*
X88925434Y-61784904D01*
X88927681Y-61713943D01*
X88967936Y-61655462D01*
X89033418Y-61628027D01*
X89047393Y-61627250D01*
X93516378Y-61627250D01*
X93584499Y-61647252D01*
X93630992Y-61700908D01*
X93641096Y-61771182D01*
X93634818Y-61796236D01*
X93614913Y-61851075D01*
X93613964Y-61856324D01*
X93613963Y-61856327D01*
X93574627Y-62073858D01*
X93574626Y-62073865D01*
X93573889Y-62077942D01*
X93572750Y-62102094D01*
X93572750Y-63264140D01*
X93587330Y-63435970D01*
X93588668Y-63441125D01*
X93588669Y-63441131D01*
X93643907Y-63653953D01*
X93645249Y-63659122D01*
X93739938Y-63869325D01*
X93868691Y-64060569D01*
X94027826Y-64227385D01*
X94212792Y-64365004D01*
X94217543Y-64367420D01*
X94217547Y-64367422D01*
X94315547Y-64417247D01*
X94418301Y-64469490D01*
X94423395Y-64471072D01*
X94423398Y-64471073D01*
X94623270Y-64533135D01*
X94638477Y-64537857D01*
X94643766Y-64538558D01*
X94861739Y-64567448D01*
X94861744Y-64567448D01*
X94867024Y-64568148D01*
X94872353Y-64567948D01*
X94872355Y-64567948D01*
X94982216Y-64563823D01*
X95097408Y-64559499D01*
X95323041Y-64512157D01*
X95328000Y-64510199D01*
X95328002Y-64510198D01*
X95532506Y-64429435D01*
X95532508Y-64429434D01*
X95537471Y-64427474D01*
X95636434Y-64367422D01*
X95730007Y-64310640D01*
X95730006Y-64310640D01*
X95734567Y-64307873D01*
X95738597Y-64304376D01*
X95904662Y-64160273D01*
X95904664Y-64160271D01*
X95908695Y-64156773D01*
X95942766Y-64115220D01*
X96051490Y-63982623D01*
X96051494Y-63982617D01*
X96054874Y-63978495D01*
X96168925Y-63778136D01*
X96247587Y-63561425D01*
X96270273Y-63435970D01*
X96287873Y-63338642D01*
X96287874Y-63338635D01*
X96288611Y-63334558D01*
X96289750Y-63310406D01*
X96289750Y-62148360D01*
X96278239Y-62012697D01*
X96275621Y-61981841D01*
X96275620Y-61981837D01*
X96275170Y-61976530D01*
X96273832Y-61971375D01*
X96273831Y-61971369D01*
X96225434Y-61784904D01*
X96227681Y-61713943D01*
X96267936Y-61655462D01*
X96333418Y-61628027D01*
X96347393Y-61627250D01*
X125286500Y-61627250D01*
X125354621Y-61647252D01*
X125401114Y-61700908D01*
X125412500Y-61753250D01*
X125412500Y-86364405D01*
X125392498Y-86432526D01*
X125375595Y-86453500D01*
X123308725Y-88520370D01*
X123246413Y-88554396D01*
X123175598Y-88549331D01*
X123118762Y-88506784D01*
X123093951Y-88440264D01*
X123099797Y-88392338D01*
X123129003Y-88302453D01*
X123131042Y-88296178D01*
X123138944Y-88221000D01*
X123150314Y-88112815D01*
X123151004Y-88106250D01*
X123150314Y-88099685D01*
X123131732Y-87922885D01*
X123131732Y-87922883D01*
X123131042Y-87916322D01*
X123072027Y-87734694D01*
X123049512Y-87695696D01*
X123032630Y-87666457D01*
X122976540Y-87569306D01*
X122848753Y-87427384D01*
X122702886Y-87321405D01*
X122699594Y-87319013D01*
X122699593Y-87319012D01*
X122694252Y-87315132D01*
X122688224Y-87312448D01*
X122688222Y-87312447D01*
X122525819Y-87240141D01*
X122525818Y-87240141D01*
X122519788Y-87237456D01*
X122407607Y-87213611D01*
X122339444Y-87199122D01*
X122339439Y-87199122D01*
X122332987Y-87197750D01*
X122142013Y-87197750D01*
X122135561Y-87199122D01*
X122135556Y-87199122D01*
X121993901Y-87229232D01*
X121923110Y-87223830D01*
X121866477Y-87181013D01*
X121848180Y-87145861D01*
X121835692Y-87108428D01*
X121816550Y-87051054D01*
X121723478Y-86900652D01*
X121598303Y-86775695D01*
X121593765Y-86772898D01*
X121553176Y-86715647D01*
X121549946Y-86644724D01*
X121585572Y-86583313D01*
X121594068Y-86575938D01*
X121604207Y-86567902D01*
X121718739Y-86453171D01*
X121727751Y-86441760D01*
X121812816Y-86303757D01*
X121818963Y-86290576D01*
X121870138Y-86136290D01*
X121873005Y-86122914D01*
X121882672Y-86028562D01*
X121883000Y-86022146D01*
X121883000Y-85997115D01*
X121878525Y-85981876D01*
X121877135Y-85980671D01*
X121869452Y-85979000D01*
X119435116Y-85979000D01*
X119419877Y-85983475D01*
X119418672Y-85984865D01*
X119417001Y-85992548D01*
X119417001Y-86022095D01*
X119417338Y-86028614D01*
X119427257Y-86124206D01*
X119430149Y-86137600D01*
X119481588Y-86291784D01*
X119487761Y-86304962D01*
X119573063Y-86442807D01*
X119582099Y-86454208D01*
X119696828Y-86568738D01*
X119705762Y-86575794D01*
X119746823Y-86633712D01*
X119750053Y-86704635D01*
X119714426Y-86766046D01*
X119706593Y-86772846D01*
X119700652Y-86776522D01*
X119575695Y-86901697D01*
X119571855Y-86907927D01*
X119571854Y-86907928D01*
X119487209Y-87045248D01*
X119482885Y-87052262D01*
X119480581Y-87059209D01*
X119440351Y-87180500D01*
X119427203Y-87220139D01*
X119426503Y-87226975D01*
X119426502Y-87226978D01*
X119417740Y-87312500D01*
X119416500Y-87324600D01*
X119416500Y-87327819D01*
X119416482Y-87328172D01*
X119393034Y-87395185D01*
X119337078Y-87438883D01*
X119290646Y-87447750D01*
X117986589Y-87447750D01*
X117918468Y-87427748D01*
X117911024Y-87422576D01*
X117874476Y-87395185D01*
X117821705Y-87355635D01*
X117685316Y-87304505D01*
X117623134Y-87297750D01*
X116026866Y-87297750D01*
X115964684Y-87304505D01*
X115828295Y-87355635D01*
X115711739Y-87442989D01*
X115706358Y-87450169D01*
X115706357Y-87450170D01*
X115680392Y-87484815D01*
X115623533Y-87527330D01*
X115593926Y-87532663D01*
X115569877Y-87539725D01*
X115568672Y-87541115D01*
X115567001Y-87548798D01*
X115567001Y-87600919D01*
X115567371Y-87607740D01*
X115573748Y-87666457D01*
X115571002Y-87666755D01*
X115571060Y-87695696D01*
X115573255Y-87695934D01*
X115566500Y-87758116D01*
X115566500Y-88404384D01*
X115566869Y-88407781D01*
X115573255Y-88466566D01*
X115570826Y-88466830D01*
X115570826Y-88495670D01*
X115573255Y-88495934D01*
X115566500Y-88558116D01*
X115566500Y-89204384D01*
X115566869Y-89207781D01*
X115573255Y-89266566D01*
X115570826Y-89266830D01*
X115570826Y-89295670D01*
X115573255Y-89295934D01*
X115566500Y-89358116D01*
X115566500Y-90004384D01*
X115566869Y-90007781D01*
X115573255Y-90066566D01*
X115570826Y-90066830D01*
X115570826Y-90095670D01*
X115573255Y-90095934D01*
X115566500Y-90158116D01*
X115566500Y-90804384D01*
X115566869Y-90807781D01*
X115573255Y-90866566D01*
X115570826Y-90866830D01*
X115570826Y-90895670D01*
X115573255Y-90895934D01*
X115570394Y-90922275D01*
X115566500Y-90958116D01*
X115566500Y-91604384D01*
X115566869Y-91607781D01*
X115573255Y-91666566D01*
X115570826Y-91666830D01*
X115570826Y-91695670D01*
X115573255Y-91695934D01*
X115566500Y-91758116D01*
X115566500Y-92404384D01*
X115566869Y-92407781D01*
X115573255Y-92466566D01*
X115570826Y-92466830D01*
X115570826Y-92495670D01*
X115573255Y-92495934D01*
X115566500Y-92558116D01*
X115566500Y-93204384D01*
X115566869Y-93207781D01*
X115573255Y-93266566D01*
X115570826Y-93266830D01*
X115570826Y-93295670D01*
X115573255Y-93295934D01*
X115566500Y-93358116D01*
X115566500Y-94004384D01*
X115566869Y-94007781D01*
X115573255Y-94066566D01*
X115570826Y-94066830D01*
X115570826Y-94095670D01*
X115573255Y-94095934D01*
X115568577Y-94139001D01*
X115566500Y-94158116D01*
X115566500Y-94804384D01*
X115566869Y-94807781D01*
X115573255Y-94866566D01*
X115570826Y-94866830D01*
X115570826Y-94895670D01*
X115573255Y-94895934D01*
X115566500Y-94958116D01*
X115566500Y-95596750D01*
X115546498Y-95664871D01*
X115492842Y-95711364D01*
X115440500Y-95722750D01*
X114801866Y-95722750D01*
X114798469Y-95723119D01*
X114770706Y-95726135D01*
X114739684Y-95729505D01*
X114739452Y-95727366D01*
X114710488Y-95727416D01*
X114710207Y-95729998D01*
X114651486Y-95723619D01*
X114644672Y-95723250D01*
X114597115Y-95723250D01*
X114581876Y-95727725D01*
X114580671Y-95729115D01*
X114576121Y-95750033D01*
X114574903Y-95749768D01*
X114558998Y-95803937D01*
X114528565Y-95836642D01*
X114497355Y-95860033D01*
X114486739Y-95867989D01*
X114451694Y-95914750D01*
X114425826Y-95949265D01*
X114368967Y-95991780D01*
X114298148Y-95996806D01*
X114235855Y-95962746D01*
X114224174Y-95949265D01*
X114198306Y-95914750D01*
X114163261Y-95867989D01*
X114152646Y-95860033D01*
X114121435Y-95836642D01*
X114078920Y-95779783D01*
X114073587Y-95750176D01*
X114066525Y-95726127D01*
X114065135Y-95724922D01*
X114057452Y-95723251D01*
X114005331Y-95723251D01*
X113998510Y-95723621D01*
X113939793Y-95729998D01*
X113939495Y-95727252D01*
X113910554Y-95727310D01*
X113910316Y-95729505D01*
X113851531Y-95723119D01*
X113848134Y-95722750D01*
X113201866Y-95722750D01*
X113198469Y-95723119D01*
X113170706Y-95726135D01*
X113139684Y-95729505D01*
X113139420Y-95727076D01*
X113110580Y-95727076D01*
X113110316Y-95729505D01*
X113051531Y-95723119D01*
X113048134Y-95722750D01*
X112401866Y-95722750D01*
X112398469Y-95723119D01*
X112370706Y-95726135D01*
X112339684Y-95729505D01*
X112339420Y-95727076D01*
X112310580Y-95727076D01*
X112310316Y-95729505D01*
X112251531Y-95723119D01*
X112248134Y-95722750D01*
X111601866Y-95722750D01*
X111598469Y-95723119D01*
X111570706Y-95726135D01*
X111539684Y-95729505D01*
X111539420Y-95727076D01*
X111510580Y-95727076D01*
X111510316Y-95729505D01*
X111451531Y-95723119D01*
X111448134Y-95722750D01*
X110801866Y-95722750D01*
X110798469Y-95723119D01*
X110770706Y-95726135D01*
X110739684Y-95729505D01*
X110739420Y-95727076D01*
X110710580Y-95727076D01*
X110710316Y-95729505D01*
X110651531Y-95723119D01*
X110648134Y-95722750D01*
X110001866Y-95722750D01*
X109998469Y-95723119D01*
X109970706Y-95726135D01*
X109939684Y-95729505D01*
X109939420Y-95727076D01*
X109910580Y-95727076D01*
X109910316Y-95729505D01*
X109851531Y-95723119D01*
X109848134Y-95722750D01*
X109201866Y-95722750D01*
X109198469Y-95723119D01*
X109170706Y-95726135D01*
X109139684Y-95729505D01*
X109139420Y-95727076D01*
X109110580Y-95727076D01*
X109110316Y-95729505D01*
X109051531Y-95723119D01*
X109048134Y-95722750D01*
X108401866Y-95722750D01*
X108398469Y-95723119D01*
X108370706Y-95726135D01*
X108339684Y-95729505D01*
X108339452Y-95727366D01*
X108310488Y-95727416D01*
X108310207Y-95729998D01*
X108251486Y-95723619D01*
X108244672Y-95723250D01*
X108197115Y-95723250D01*
X108181876Y-95727725D01*
X108180671Y-95729115D01*
X108176121Y-95750033D01*
X108174903Y-95749768D01*
X108158998Y-95803937D01*
X108128565Y-95836642D01*
X108097355Y-95860033D01*
X108086739Y-95867989D01*
X108051694Y-95914750D01*
X108025826Y-95949265D01*
X107968967Y-95991780D01*
X107898148Y-95996806D01*
X107835855Y-95962746D01*
X107824174Y-95949265D01*
X107798306Y-95914750D01*
X107763261Y-95867989D01*
X107752646Y-95860033D01*
X107721435Y-95836642D01*
X107678920Y-95779783D01*
X107673587Y-95750176D01*
X107666525Y-95726127D01*
X107665135Y-95724922D01*
X107657452Y-95723251D01*
X107605331Y-95723251D01*
X107598510Y-95723621D01*
X107539793Y-95729998D01*
X107539495Y-95727252D01*
X107510554Y-95727310D01*
X107510316Y-95729505D01*
X107451531Y-95723119D01*
X107448134Y-95722750D01*
X106809500Y-95722750D01*
X106741379Y-95702748D01*
X106694886Y-95649092D01*
X106683500Y-95596750D01*
X106683500Y-94958116D01*
X106676745Y-94895934D01*
X106679174Y-94895670D01*
X106679174Y-94866830D01*
X106676745Y-94866566D01*
X106683131Y-94807781D01*
X106683500Y-94804384D01*
X106683500Y-94158116D01*
X106681424Y-94139001D01*
X106676745Y-94095934D01*
X106679174Y-94095670D01*
X106679174Y-94066830D01*
X106676745Y-94066566D01*
X106683131Y-94007781D01*
X106683500Y-94004384D01*
X106683500Y-93358116D01*
X106676745Y-93295934D01*
X106679174Y-93295670D01*
X106679174Y-93266830D01*
X106676745Y-93266566D01*
X106683131Y-93207781D01*
X106683500Y-93204384D01*
X106683500Y-92558116D01*
X106676745Y-92495934D01*
X106678884Y-92495702D01*
X106678834Y-92466738D01*
X106676252Y-92466457D01*
X106682631Y-92407736D01*
X106683000Y-92400922D01*
X106683000Y-92353365D01*
X106678525Y-92338126D01*
X106677135Y-92336921D01*
X106656217Y-92332371D01*
X106656482Y-92331153D01*
X106602313Y-92315248D01*
X106569608Y-92284815D01*
X106543643Y-92250170D01*
X106543642Y-92250169D01*
X106538261Y-92242989D01*
X106456985Y-92182076D01*
X106414470Y-92125217D01*
X106409444Y-92054398D01*
X106443504Y-91992105D01*
X106456985Y-91980424D01*
X106531081Y-91924892D01*
X106538261Y-91919511D01*
X106550070Y-91903755D01*
X106569608Y-91877685D01*
X106626467Y-91835170D01*
X106656074Y-91829837D01*
X106680123Y-91822775D01*
X106681328Y-91821385D01*
X106682999Y-91813702D01*
X106682999Y-91761581D01*
X106682629Y-91754760D01*
X106676252Y-91696043D01*
X106678998Y-91695745D01*
X106678940Y-91666804D01*
X106676745Y-91666566D01*
X106683131Y-91607781D01*
X106683500Y-91604384D01*
X106683500Y-90958116D01*
X106679607Y-90922275D01*
X106676745Y-90895934D01*
X106679174Y-90895670D01*
X106679174Y-90866830D01*
X106676745Y-90866566D01*
X106683131Y-90807781D01*
X106683500Y-90804384D01*
X106683500Y-90158116D01*
X106676745Y-90095934D01*
X106679174Y-90095670D01*
X106679174Y-90066830D01*
X106676745Y-90066566D01*
X106683131Y-90007781D01*
X106683500Y-90004384D01*
X106683500Y-89358116D01*
X106676745Y-89295934D01*
X106679174Y-89295670D01*
X106679174Y-89266830D01*
X106676745Y-89266566D01*
X106683131Y-89207781D01*
X106683500Y-89204384D01*
X106683500Y-88558116D01*
X106676745Y-88495934D01*
X106679174Y-88495670D01*
X106679174Y-88466830D01*
X106676745Y-88466566D01*
X106683131Y-88407781D01*
X106683500Y-88404384D01*
X106683500Y-87758116D01*
X106676745Y-87695934D01*
X106679174Y-87695670D01*
X106679174Y-87666830D01*
X106676745Y-87666566D01*
X106683131Y-87607781D01*
X106683500Y-87604384D01*
X106683500Y-86965750D01*
X106703502Y-86897629D01*
X106757158Y-86851136D01*
X106809500Y-86839750D01*
X107448134Y-86839750D01*
X107453483Y-86839169D01*
X107510316Y-86832995D01*
X107510580Y-86835424D01*
X107539420Y-86835424D01*
X107539684Y-86832995D01*
X107596518Y-86839169D01*
X107601866Y-86839750D01*
X108248134Y-86839750D01*
X108253483Y-86839169D01*
X108310316Y-86832995D01*
X108310580Y-86835424D01*
X108339420Y-86835424D01*
X108339684Y-86832995D01*
X108396518Y-86839169D01*
X108401866Y-86839750D01*
X109048134Y-86839750D01*
X109053483Y-86839169D01*
X109110316Y-86832995D01*
X109110548Y-86835134D01*
X109139512Y-86835084D01*
X109139793Y-86832502D01*
X109198514Y-86838881D01*
X109205328Y-86839250D01*
X109252885Y-86839250D01*
X109268124Y-86834775D01*
X109269329Y-86833385D01*
X109273879Y-86812467D01*
X109275097Y-86812732D01*
X109291002Y-86758563D01*
X109321435Y-86725858D01*
X109356080Y-86699893D01*
X109356081Y-86699892D01*
X109363261Y-86694511D01*
X109424174Y-86613235D01*
X109481033Y-86570720D01*
X109551852Y-86565694D01*
X109614145Y-86599754D01*
X109625825Y-86613234D01*
X109686739Y-86694511D01*
X109693919Y-86699892D01*
X109693920Y-86699893D01*
X109728565Y-86725858D01*
X109771080Y-86782717D01*
X109776413Y-86812324D01*
X109783475Y-86836373D01*
X109784865Y-86837578D01*
X109792548Y-86839249D01*
X109844669Y-86839249D01*
X109851490Y-86838879D01*
X109910207Y-86832502D01*
X109910505Y-86835248D01*
X109939446Y-86835190D01*
X109939684Y-86832995D01*
X109996518Y-86839169D01*
X110001866Y-86839750D01*
X110648134Y-86839750D01*
X110653483Y-86839169D01*
X110710316Y-86832995D01*
X110710580Y-86835424D01*
X110739420Y-86835424D01*
X110739684Y-86832995D01*
X110796518Y-86839169D01*
X110801866Y-86839750D01*
X111448134Y-86839750D01*
X111453483Y-86839169D01*
X111510316Y-86832995D01*
X111510580Y-86835424D01*
X111539420Y-86835424D01*
X111539684Y-86832995D01*
X111596518Y-86839169D01*
X111601866Y-86839750D01*
X112248134Y-86839750D01*
X112253483Y-86839169D01*
X112310316Y-86832995D01*
X112310580Y-86835424D01*
X112339420Y-86835424D01*
X112339684Y-86832995D01*
X112396518Y-86839169D01*
X112401866Y-86839750D01*
X113048134Y-86839750D01*
X113053483Y-86839169D01*
X113110316Y-86832995D01*
X113110580Y-86835424D01*
X113139420Y-86835424D01*
X113139684Y-86832995D01*
X113196518Y-86839169D01*
X113201866Y-86839750D01*
X113848134Y-86839750D01*
X113853483Y-86839169D01*
X113910316Y-86832995D01*
X113910580Y-86835424D01*
X113939420Y-86835424D01*
X113939684Y-86832995D01*
X113996518Y-86839169D01*
X114001866Y-86839750D01*
X114648134Y-86839750D01*
X114653483Y-86839169D01*
X114710316Y-86832995D01*
X114710580Y-86835424D01*
X114739420Y-86835424D01*
X114739684Y-86832995D01*
X114796518Y-86839169D01*
X114801866Y-86839750D01*
X115441000Y-86839750D01*
X115509121Y-86859752D01*
X115555614Y-86913408D01*
X115567000Y-86965750D01*
X115567000Y-87009135D01*
X115571475Y-87024374D01*
X115572865Y-87025579D01*
X115580548Y-87027250D01*
X116552885Y-87027250D01*
X116568124Y-87022775D01*
X116569329Y-87021385D01*
X116571000Y-87013702D01*
X116571000Y-87009135D01*
X117079000Y-87009135D01*
X117083475Y-87024374D01*
X117084865Y-87025579D01*
X117092548Y-87027250D01*
X118064884Y-87027250D01*
X118080123Y-87022775D01*
X118081328Y-87021385D01*
X118082999Y-87013702D01*
X118082999Y-86961581D01*
X118082629Y-86954760D01*
X118077105Y-86903898D01*
X118073479Y-86888646D01*
X118028324Y-86768196D01*
X118019786Y-86752601D01*
X117943285Y-86650526D01*
X117930724Y-86637965D01*
X117828649Y-86561464D01*
X117813054Y-86552926D01*
X117692606Y-86507772D01*
X117677351Y-86504145D01*
X117626486Y-86498619D01*
X117619672Y-86498250D01*
X117097115Y-86498250D01*
X117081876Y-86502725D01*
X117080671Y-86504115D01*
X117079000Y-86511798D01*
X117079000Y-87009135D01*
X116571000Y-87009135D01*
X116571000Y-86516366D01*
X116566525Y-86501127D01*
X116565135Y-86499922D01*
X116557452Y-86498251D01*
X116034500Y-86498251D01*
X115966379Y-86478249D01*
X115919886Y-86424593D01*
X115908500Y-86372251D01*
X115908500Y-85452885D01*
X119417000Y-85452885D01*
X119421475Y-85468124D01*
X119422865Y-85469329D01*
X119430548Y-85471000D01*
X120377885Y-85471000D01*
X120393124Y-85466525D01*
X120394329Y-85465135D01*
X120396000Y-85457452D01*
X120396000Y-85452885D01*
X120904000Y-85452885D01*
X120908475Y-85468124D01*
X120909865Y-85469329D01*
X120917548Y-85471000D01*
X121864884Y-85471000D01*
X121880123Y-85466525D01*
X121881328Y-85465135D01*
X121882999Y-85457452D01*
X121882999Y-85427905D01*
X121882662Y-85421386D01*
X121872743Y-85325794D01*
X121869851Y-85312400D01*
X121818412Y-85158216D01*
X121812239Y-85145038D01*
X121726937Y-85007193D01*
X121717901Y-84995792D01*
X121603171Y-84881261D01*
X121591760Y-84872249D01*
X121453757Y-84787184D01*
X121440576Y-84781037D01*
X121286290Y-84729862D01*
X121272914Y-84726995D01*
X121178562Y-84717328D01*
X121172145Y-84717000D01*
X120922115Y-84717000D01*
X120906876Y-84721475D01*
X120905671Y-84722865D01*
X120904000Y-84730548D01*
X120904000Y-85452885D01*
X120396000Y-85452885D01*
X120396000Y-84735116D01*
X120391525Y-84719877D01*
X120390135Y-84718672D01*
X120382452Y-84717001D01*
X120127905Y-84717001D01*
X120121386Y-84717338D01*
X120025794Y-84727257D01*
X120012400Y-84730149D01*
X119858216Y-84781588D01*
X119845038Y-84787761D01*
X119707193Y-84873063D01*
X119695792Y-84882099D01*
X119581261Y-84996829D01*
X119572249Y-85008240D01*
X119487184Y-85146243D01*
X119481037Y-85159424D01*
X119429862Y-85313710D01*
X119426995Y-85327086D01*
X119417328Y-85421438D01*
X119417000Y-85427855D01*
X119417000Y-85452885D01*
X115908500Y-85452885D01*
X115908500Y-84783116D01*
X115901745Y-84720934D01*
X115850615Y-84584545D01*
X115763261Y-84467989D01*
X115646705Y-84380635D01*
X115510316Y-84329505D01*
X115448134Y-84322750D01*
X114801866Y-84322750D01*
X114739684Y-84329505D01*
X114739420Y-84327076D01*
X114710580Y-84327076D01*
X114710316Y-84329505D01*
X114651531Y-84323119D01*
X114648134Y-84322750D01*
X114001866Y-84322750D01*
X113939684Y-84329505D01*
X113939420Y-84327076D01*
X113910580Y-84327076D01*
X113910316Y-84329505D01*
X113851531Y-84323119D01*
X113848134Y-84322750D01*
X113201866Y-84322750D01*
X113139684Y-84329505D01*
X113139420Y-84327076D01*
X113110580Y-84327076D01*
X113110316Y-84329505D01*
X113051531Y-84323119D01*
X113048134Y-84322750D01*
X112401866Y-84322750D01*
X112339684Y-84329505D01*
X112339420Y-84327076D01*
X112310580Y-84327076D01*
X112310316Y-84329505D01*
X112251531Y-84323119D01*
X112248134Y-84322750D01*
X111884500Y-84322750D01*
X111816379Y-84302748D01*
X111769886Y-84249092D01*
X111758500Y-84196750D01*
X111758500Y-82864595D01*
X111778502Y-82796474D01*
X111795405Y-82775499D01*
X112617258Y-81953647D01*
X112625537Y-81946113D01*
X112632018Y-81942000D01*
X112678644Y-81892348D01*
X112681398Y-81889507D01*
X112701135Y-81869770D01*
X112703615Y-81866573D01*
X112711320Y-81857551D01*
X112736159Y-81831100D01*
X112741586Y-81825321D01*
X112745405Y-81818375D01*
X112745407Y-81818372D01*
X112751348Y-81807566D01*
X112762199Y-81791047D01*
X112769758Y-81781301D01*
X112774614Y-81775041D01*
X112777759Y-81767772D01*
X112777762Y-81767768D01*
X112792174Y-81734463D01*
X112797391Y-81723813D01*
X112818695Y-81685060D01*
X112823733Y-81665437D01*
X112830137Y-81646734D01*
X112835033Y-81635420D01*
X112835033Y-81635419D01*
X112838181Y-81628145D01*
X112839420Y-81620322D01*
X112839423Y-81620312D01*
X112845099Y-81584476D01*
X112847505Y-81572856D01*
X112856528Y-81537711D01*
X112856528Y-81537710D01*
X112858500Y-81530030D01*
X112858500Y-81509776D01*
X112860051Y-81490065D01*
X112861980Y-81477886D01*
X112863220Y-81470057D01*
X112859059Y-81426038D01*
X112858500Y-81414181D01*
X112858500Y-80665134D01*
X112878502Y-80597013D01*
X112932158Y-80550520D01*
X112973207Y-80540424D01*
X112973134Y-80539750D01*
X113035316Y-80532995D01*
X113171705Y-80481865D01*
X113288261Y-80394511D01*
X113375615Y-80277955D01*
X113424888Y-80146520D01*
X113467530Y-80089756D01*
X113534091Y-80065056D01*
X113542870Y-80064750D01*
X113831969Y-80064750D01*
X113900090Y-80084752D01*
X113939113Y-80124447D01*
X114020272Y-80255598D01*
X114145447Y-80380555D01*
X114151677Y-80384395D01*
X114151678Y-80384396D01*
X114289038Y-80469066D01*
X114296012Y-80473365D01*
X114331142Y-80485017D01*
X114457361Y-80526882D01*
X114457363Y-80526882D01*
X114463889Y-80529047D01*
X114470725Y-80529747D01*
X114470728Y-80529748D01*
X114513781Y-80534159D01*
X114568350Y-80539750D01*
X115619150Y-80539750D01*
X115622396Y-80539413D01*
X115622400Y-80539413D01*
X115718058Y-80529488D01*
X115718062Y-80529487D01*
X115724916Y-80528776D01*
X115731452Y-80526595D01*
X115731454Y-80526595D01*
X115881669Y-80476479D01*
X115892696Y-80472800D01*
X116043098Y-80379728D01*
X116168055Y-80254553D01*
X116177882Y-80238611D01*
X116257025Y-80110218D01*
X116257026Y-80110216D01*
X116260865Y-80103988D01*
X116316547Y-79936111D01*
X116318043Y-79921517D01*
X116321659Y-79886219D01*
X116327250Y-79831650D01*
X116327250Y-79230850D01*
X116321689Y-79177250D01*
X116316988Y-79131942D01*
X116316987Y-79131938D01*
X116316276Y-79125084D01*
X116307320Y-79098238D01*
X116262618Y-78964252D01*
X116260300Y-78957304D01*
X116167228Y-78806902D01*
X116042053Y-78681945D01*
X116037515Y-78679148D01*
X115996926Y-78621897D01*
X115993696Y-78550974D01*
X116029322Y-78489563D01*
X116037818Y-78482188D01*
X116047957Y-78474152D01*
X116162489Y-78359421D01*
X116171501Y-78348010D01*
X116256566Y-78210007D01*
X116262713Y-78196826D01*
X116313888Y-78042540D01*
X116316755Y-78029164D01*
X116326422Y-77934812D01*
X116326750Y-77928396D01*
X116326750Y-77903365D01*
X116322275Y-77888126D01*
X116320885Y-77886921D01*
X116313202Y-77885250D01*
X113878866Y-77885250D01*
X113863627Y-77889725D01*
X113862422Y-77891115D01*
X113860751Y-77898798D01*
X113860751Y-77928345D01*
X113861088Y-77934864D01*
X113871007Y-78030456D01*
X113873899Y-78043850D01*
X113925338Y-78198034D01*
X113931511Y-78211212D01*
X114016813Y-78349057D01*
X114025849Y-78360458D01*
X114140578Y-78474988D01*
X114149512Y-78482044D01*
X114190573Y-78539962D01*
X114193803Y-78610885D01*
X114158176Y-78672296D01*
X114150343Y-78679096D01*
X114144402Y-78682772D01*
X114106307Y-78720934D01*
X114066542Y-78760768D01*
X114004260Y-78794847D01*
X113977369Y-78797750D01*
X113542870Y-78797750D01*
X113474749Y-78777748D01*
X113428256Y-78724092D01*
X113424888Y-78715980D01*
X113390694Y-78624768D01*
X113385511Y-78553960D01*
X113390694Y-78536309D01*
X113423478Y-78448859D01*
X113427105Y-78433601D01*
X113432631Y-78382736D01*
X113433000Y-78375922D01*
X113433000Y-78003365D01*
X113428525Y-77988126D01*
X113427135Y-77986921D01*
X113419452Y-77985250D01*
X112097000Y-77985250D01*
X112028879Y-77965248D01*
X111982386Y-77911592D01*
X111971000Y-77859250D01*
X111971000Y-77459135D01*
X112479000Y-77459135D01*
X112483475Y-77474374D01*
X112484865Y-77475579D01*
X112492548Y-77477250D01*
X113414884Y-77477250D01*
X113430123Y-77472775D01*
X113431328Y-77471385D01*
X113432999Y-77463702D01*
X113432999Y-77359135D01*
X113860750Y-77359135D01*
X113865225Y-77374374D01*
X113866615Y-77375579D01*
X113874298Y-77377250D01*
X114821635Y-77377250D01*
X114836874Y-77372775D01*
X114838079Y-77371385D01*
X114839750Y-77363702D01*
X114839750Y-77359135D01*
X115347750Y-77359135D01*
X115352225Y-77374374D01*
X115353615Y-77375579D01*
X115361298Y-77377250D01*
X116308634Y-77377250D01*
X116323873Y-77372775D01*
X116325078Y-77371385D01*
X116326749Y-77363702D01*
X116326749Y-77334155D01*
X116326412Y-77327636D01*
X116316493Y-77232044D01*
X116313601Y-77218650D01*
X116262162Y-77064466D01*
X116255989Y-77051288D01*
X116170687Y-76913443D01*
X116161651Y-76902042D01*
X116046921Y-76787511D01*
X116035510Y-76778499D01*
X115897507Y-76693434D01*
X115884326Y-76687287D01*
X115730040Y-76636112D01*
X115716664Y-76633245D01*
X115622312Y-76623578D01*
X115615895Y-76623250D01*
X115365865Y-76623250D01*
X115350626Y-76627725D01*
X115349421Y-76629115D01*
X115347750Y-76636798D01*
X115347750Y-77359135D01*
X114839750Y-77359135D01*
X114839750Y-76641366D01*
X114835275Y-76626127D01*
X114833885Y-76624922D01*
X114826202Y-76623251D01*
X114571655Y-76623251D01*
X114565136Y-76623588D01*
X114469544Y-76633507D01*
X114456150Y-76636399D01*
X114301966Y-76687838D01*
X114288788Y-76694011D01*
X114150943Y-76779313D01*
X114139542Y-76788349D01*
X114025011Y-76903079D01*
X114015999Y-76914490D01*
X113930934Y-77052493D01*
X113924787Y-77065674D01*
X113873612Y-77219960D01*
X113870745Y-77233336D01*
X113861078Y-77327688D01*
X113860750Y-77334105D01*
X113860750Y-77359135D01*
X113432999Y-77359135D01*
X113432999Y-77086581D01*
X113432629Y-77079760D01*
X113427105Y-77028898D01*
X113423479Y-77013646D01*
X113378324Y-76893196D01*
X113369786Y-76877601D01*
X113293285Y-76775526D01*
X113280724Y-76762965D01*
X113178649Y-76686464D01*
X113163054Y-76677926D01*
X113042606Y-76632772D01*
X113027351Y-76629145D01*
X112976486Y-76623619D01*
X112969672Y-76623250D01*
X112497115Y-76623250D01*
X112481876Y-76627725D01*
X112480671Y-76629115D01*
X112479000Y-76636798D01*
X112479000Y-77459135D01*
X111971000Y-77459135D01*
X111971000Y-76641366D01*
X111966525Y-76626127D01*
X111965135Y-76624922D01*
X111957452Y-76623251D01*
X111480331Y-76623251D01*
X111473510Y-76623621D01*
X111422648Y-76629145D01*
X111407396Y-76632771D01*
X111286946Y-76677926D01*
X111271352Y-76686464D01*
X111200982Y-76739203D01*
X111134476Y-76764051D01*
X111065093Y-76748998D01*
X111049852Y-76739203D01*
X111028842Y-76723457D01*
X110971705Y-76680635D01*
X110835316Y-76629505D01*
X110773134Y-76622750D01*
X109276866Y-76622750D01*
X109214684Y-76629505D01*
X109078295Y-76680635D01*
X108961739Y-76767989D01*
X108874385Y-76884545D01*
X108871233Y-76892953D01*
X108825112Y-77015980D01*
X108782470Y-77072744D01*
X108715909Y-77097444D01*
X108707130Y-77097750D01*
X108418031Y-77097750D01*
X108349910Y-77077748D01*
X108310887Y-77038053D01*
X108233582Y-76913130D01*
X108229728Y-76906902D01*
X108104553Y-76781945D01*
X108094140Y-76775526D01*
X107960218Y-76692975D01*
X107960216Y-76692974D01*
X107953988Y-76689135D01*
X107874245Y-76662686D01*
X107792639Y-76635618D01*
X107792637Y-76635618D01*
X107786111Y-76633453D01*
X107779275Y-76632753D01*
X107779272Y-76632752D01*
X107736219Y-76628341D01*
X107681650Y-76622750D01*
X106630850Y-76622750D01*
X106627604Y-76623087D01*
X106627600Y-76623087D01*
X106531942Y-76633012D01*
X106531938Y-76633013D01*
X106525084Y-76633724D01*
X106518548Y-76635905D01*
X106518546Y-76635905D01*
X106502178Y-76641366D01*
X106357304Y-76689700D01*
X106206902Y-76782772D01*
X106081945Y-76907947D01*
X106078105Y-76914177D01*
X106078104Y-76914178D01*
X106012299Y-77020934D01*
X105989135Y-77058512D01*
X105933453Y-77226389D01*
X105922750Y-77330850D01*
X105922750Y-77931650D01*
X105923087Y-77934896D01*
X105923087Y-77934900D01*
X105933002Y-78030456D01*
X105933724Y-78037416D01*
X105989700Y-78205196D01*
X106082772Y-78355598D01*
X106207947Y-78480555D01*
X106212485Y-78483352D01*
X106253074Y-78540603D01*
X106256304Y-78611526D01*
X106220678Y-78672937D01*
X106212182Y-78680312D01*
X106202043Y-78688348D01*
X106087511Y-78803079D01*
X106078499Y-78814490D01*
X105993434Y-78952493D01*
X105987287Y-78965674D01*
X105936112Y-79119960D01*
X105933245Y-79133336D01*
X105923578Y-79227688D01*
X105923250Y-79234105D01*
X105923250Y-79259135D01*
X105927725Y-79274374D01*
X105929115Y-79275579D01*
X105936798Y-79277250D01*
X107284250Y-79277250D01*
X107352371Y-79297252D01*
X107398864Y-79350908D01*
X107410250Y-79403250D01*
X107410250Y-80521134D01*
X107414725Y-80536373D01*
X107416115Y-80537578D01*
X107423798Y-80539249D01*
X107678345Y-80539249D01*
X107684864Y-80538912D01*
X107780456Y-80528993D01*
X107793850Y-80526101D01*
X107944374Y-80475883D01*
X108015324Y-80473299D01*
X108076408Y-80509483D01*
X108108232Y-80572947D01*
X108110250Y-80595407D01*
X108110250Y-80883733D01*
X108109723Y-80894916D01*
X108108048Y-80902409D01*
X108108297Y-80910335D01*
X108108297Y-80910336D01*
X108110188Y-80970486D01*
X108110250Y-80974445D01*
X108110250Y-81002356D01*
X108110747Y-81006290D01*
X108110747Y-81006291D01*
X108110755Y-81006356D01*
X108111688Y-81018193D01*
X108113077Y-81062389D01*
X108118728Y-81081839D01*
X108122737Y-81101200D01*
X108125276Y-81121297D01*
X108128195Y-81128668D01*
X108128195Y-81128670D01*
X108141554Y-81162412D01*
X108145399Y-81173642D01*
X108157732Y-81216093D01*
X108161765Y-81222912D01*
X108161767Y-81222917D01*
X108168043Y-81233528D01*
X108176738Y-81251276D01*
X108184198Y-81270117D01*
X108188860Y-81276533D01*
X108188860Y-81276534D01*
X108210186Y-81305887D01*
X108216702Y-81315807D01*
X108239208Y-81353862D01*
X108253529Y-81368183D01*
X108266369Y-81383216D01*
X108278278Y-81399607D01*
X108306698Y-81423118D01*
X108312355Y-81427798D01*
X108321134Y-81435788D01*
X109654595Y-82769249D01*
X109688621Y-82831561D01*
X109691500Y-82858344D01*
X109691500Y-84419661D01*
X109671498Y-84487782D01*
X109666326Y-84495226D01*
X109625826Y-84549265D01*
X109568967Y-84591780D01*
X109498148Y-84596806D01*
X109435855Y-84562746D01*
X109424174Y-84549265D01*
X109383674Y-84495226D01*
X109358826Y-84428720D01*
X109358500Y-84419661D01*
X109358500Y-83521908D01*
X109360051Y-83502197D01*
X109367586Y-83454624D01*
X109368267Y-83450725D01*
X109379538Y-83391638D01*
X109381025Y-83383844D01*
X109380543Y-83376183D01*
X109380608Y-83375592D01*
X109380779Y-83371970D01*
X109380770Y-83371383D01*
X109381970Y-83363807D01*
X109375556Y-83295961D01*
X109375249Y-83292045D01*
X109371473Y-83232017D01*
X109370975Y-83224100D01*
X109368602Y-83216797D01*
X109368518Y-83216204D01*
X109367786Y-83212669D01*
X109367630Y-83212097D01*
X109366907Y-83204457D01*
X109343844Y-83140397D01*
X109342563Y-83136656D01*
X109323963Y-83079411D01*
X109323962Y-83079409D01*
X109321514Y-83071875D01*
X109317403Y-83065397D01*
X109317178Y-83064854D01*
X109315582Y-83061596D01*
X109315288Y-83061080D01*
X109312689Y-83053861D01*
X109308234Y-83047305D01*
X109308231Y-83047300D01*
X109274417Y-82997544D01*
X109272244Y-82994236D01*
X109240000Y-82943427D01*
X109239994Y-82943420D01*
X109235750Y-82936732D01*
X109230158Y-82931481D01*
X109229803Y-82931008D01*
X109227452Y-82928255D01*
X109227037Y-82927827D01*
X109222723Y-82921479D01*
X109216778Y-82916238D01*
X109216773Y-82916232D01*
X109171618Y-82876423D01*
X109168690Y-82873759D01*
X109158932Y-82864595D01*
X109119071Y-82827164D01*
X109112354Y-82823471D01*
X109111904Y-82823111D01*
X109108919Y-82821013D01*
X109108420Y-82820707D01*
X109102660Y-82815629D01*
X109041963Y-82784702D01*
X109038471Y-82782853D01*
X108985760Y-82753875D01*
X108985755Y-82753873D01*
X108978810Y-82750055D01*
X108971380Y-82748147D01*
X108970845Y-82747906D01*
X108967436Y-82746618D01*
X108966885Y-82746448D01*
X108960047Y-82742964D01*
X108952314Y-82741235D01*
X108952310Y-82741234D01*
X108893595Y-82728110D01*
X108889746Y-82727187D01*
X108831458Y-82712221D01*
X108831455Y-82712221D01*
X108823780Y-82710250D01*
X108816106Y-82710250D01*
X108815526Y-82710149D01*
X108811924Y-82709751D01*
X108811336Y-82709723D01*
X108803842Y-82708048D01*
X108795916Y-82708297D01*
X108795915Y-82708297D01*
X108735752Y-82710188D01*
X108731794Y-82710250D01*
X104527855Y-82710250D01*
X104459734Y-82690248D01*
X104445191Y-82673464D01*
X104443986Y-82674854D01*
X104414635Y-82649421D01*
X104406952Y-82647750D01*
X103059500Y-82647750D01*
X102991379Y-82627748D01*
X102944886Y-82574092D01*
X102933500Y-82521750D01*
X102933500Y-82121635D01*
X103441500Y-82121635D01*
X103445975Y-82136874D01*
X103447365Y-82138079D01*
X103455048Y-82139750D01*
X104402384Y-82139750D01*
X104417623Y-82135275D01*
X104418828Y-82133885D01*
X104420499Y-82126202D01*
X104420499Y-82096655D01*
X104420162Y-82090136D01*
X104410243Y-81994544D01*
X104407351Y-81981150D01*
X104355912Y-81826966D01*
X104349739Y-81813788D01*
X104264437Y-81675943D01*
X104255401Y-81664542D01*
X104140671Y-81550011D01*
X104129260Y-81540999D01*
X103991257Y-81455934D01*
X103978076Y-81449787D01*
X103823790Y-81398612D01*
X103810414Y-81395745D01*
X103716062Y-81386078D01*
X103709645Y-81385750D01*
X103459615Y-81385750D01*
X103444376Y-81390225D01*
X103443171Y-81391615D01*
X103441500Y-81399298D01*
X103441500Y-82121635D01*
X102933500Y-82121635D01*
X102933500Y-81403866D01*
X102929025Y-81388627D01*
X102927635Y-81387422D01*
X102919952Y-81385751D01*
X102665405Y-81385751D01*
X102658886Y-81386088D01*
X102563294Y-81396007D01*
X102549900Y-81398899D01*
X102395716Y-81450338D01*
X102382538Y-81456511D01*
X102244693Y-81541813D01*
X102233292Y-81550849D01*
X102118758Y-81665582D01*
X102108797Y-81678195D01*
X102050881Y-81719259D01*
X101979958Y-81722491D01*
X101958667Y-81715211D01*
X101888323Y-81683892D01*
X101888315Y-81683889D01*
X101882288Y-81681206D01*
X101762923Y-81655834D01*
X101701944Y-81642872D01*
X101701939Y-81642872D01*
X101695487Y-81641500D01*
X101504513Y-81641500D01*
X101498061Y-81642872D01*
X101498056Y-81642872D01*
X101437077Y-81655834D01*
X101317712Y-81681206D01*
X101311685Y-81683889D01*
X101311677Y-81683892D01*
X101208698Y-81729741D01*
X101138331Y-81739175D01*
X101074034Y-81709068D01*
X101062572Y-81696978D01*
X101060978Y-81694402D01*
X100935803Y-81569445D01*
X100905635Y-81550849D01*
X100791468Y-81480475D01*
X100791466Y-81480474D01*
X100785238Y-81476635D01*
X100704293Y-81449787D01*
X100623889Y-81423118D01*
X100623887Y-81423118D01*
X100617361Y-81420953D01*
X100610525Y-81420253D01*
X100610522Y-81420252D01*
X100567469Y-81415841D01*
X100512900Y-81410250D01*
X99512100Y-81410250D01*
X99508854Y-81410587D01*
X99508850Y-81410587D01*
X99413192Y-81420512D01*
X99413188Y-81420513D01*
X99406334Y-81421224D01*
X99399798Y-81423405D01*
X99399796Y-81423405D01*
X99319069Y-81450338D01*
X99238554Y-81477200D01*
X99088152Y-81570272D01*
X99082979Y-81575454D01*
X99040387Y-81618120D01*
X98963195Y-81695447D01*
X98959355Y-81701677D01*
X98959354Y-81701678D01*
X98887423Y-81818372D01*
X98870385Y-81846012D01*
X98814703Y-82013889D01*
X98804000Y-82118350D01*
X98804000Y-82744150D01*
X98804337Y-82747396D01*
X98804337Y-82747400D01*
X98813070Y-82831561D01*
X98814974Y-82849916D01*
X98817155Y-82856452D01*
X98817155Y-82856454D01*
X98842366Y-82932021D01*
X98870950Y-83017696D01*
X98874804Y-83023924D01*
X98874805Y-83023926D01*
X98932403Y-83117002D01*
X98951241Y-83185453D01*
X98930080Y-83253223D01*
X98875639Y-83298794D01*
X98805203Y-83307699D01*
X98774011Y-83298412D01*
X98713323Y-83271392D01*
X98713315Y-83271389D01*
X98707288Y-83268706D01*
X98613887Y-83248853D01*
X98526944Y-83230372D01*
X98526939Y-83230372D01*
X98520487Y-83229000D01*
X98329513Y-83229000D01*
X98323061Y-83230372D01*
X98323056Y-83230372D01*
X98236113Y-83248853D01*
X98142712Y-83268706D01*
X98136682Y-83271391D01*
X98136681Y-83271391D01*
X97974278Y-83343697D01*
X97974276Y-83343698D01*
X97968248Y-83346382D01*
X97962907Y-83350262D01*
X97962906Y-83350263D01*
X97934768Y-83370707D01*
X97813747Y-83458634D01*
X97685960Y-83600556D01*
X97590473Y-83765944D01*
X97531458Y-83947572D01*
X97530768Y-83954133D01*
X97530768Y-83954135D01*
X97526236Y-83997252D01*
X97511496Y-84137500D01*
X97531458Y-84327428D01*
X97590473Y-84509056D01*
X97685960Y-84674444D01*
X97690378Y-84679351D01*
X97690379Y-84679352D01*
X97809325Y-84811455D01*
X97813747Y-84816366D01*
X97903067Y-84881261D01*
X97949198Y-84914777D01*
X97968248Y-84928618D01*
X97974276Y-84931302D01*
X97974278Y-84931303D01*
X98113073Y-84993098D01*
X98142712Y-85006294D01*
X98236113Y-85026147D01*
X98323056Y-85044628D01*
X98323061Y-85044628D01*
X98329513Y-85046000D01*
X98520487Y-85046000D01*
X98526939Y-85044628D01*
X98526944Y-85044628D01*
X98613887Y-85026147D01*
X98707288Y-85006294D01*
X98713315Y-85003611D01*
X98713323Y-85003608D01*
X98816302Y-84957759D01*
X98886669Y-84948325D01*
X98950966Y-84978432D01*
X98962428Y-84990522D01*
X98964022Y-84993098D01*
X99089197Y-85118055D01*
X99095427Y-85121895D01*
X99095428Y-85121896D01*
X99156310Y-85159424D01*
X99239762Y-85210865D01*
X99313956Y-85235474D01*
X99401111Y-85264382D01*
X99401113Y-85264382D01*
X99407639Y-85266547D01*
X99414475Y-85267247D01*
X99414478Y-85267248D01*
X99457531Y-85271659D01*
X99512100Y-85277250D01*
X100085406Y-85277250D01*
X100153527Y-85297252D01*
X100174501Y-85314155D01*
X100977593Y-86117247D01*
X100985137Y-86125537D01*
X100989250Y-86132018D01*
X100995027Y-86137443D01*
X101038917Y-86178658D01*
X101041759Y-86181413D01*
X101061480Y-86201134D01*
X101064675Y-86203612D01*
X101073697Y-86211318D01*
X101105929Y-86241586D01*
X101112878Y-86245406D01*
X101123682Y-86251346D01*
X101140206Y-86262199D01*
X101156209Y-86274613D01*
X101167279Y-86279403D01*
X101169777Y-86281482D01*
X101170306Y-86281795D01*
X101170255Y-86281880D01*
X101221851Y-86324813D01*
X101243211Y-86392520D01*
X101224574Y-86461027D01*
X101168484Y-86510146D01*
X101149281Y-86518695D01*
X101149274Y-86518699D01*
X101143248Y-86521382D01*
X100988747Y-86633634D01*
X100984326Y-86638544D01*
X100984325Y-86638545D01*
X100875203Y-86759738D01*
X100860960Y-86775556D01*
X100826563Y-86835134D01*
X100786862Y-86903898D01*
X100765473Y-86940944D01*
X100706458Y-87122572D01*
X100705768Y-87129133D01*
X100705768Y-87129135D01*
X100694383Y-87237456D01*
X100686496Y-87312500D01*
X100687186Y-87319065D01*
X100700966Y-87450170D01*
X100706458Y-87502428D01*
X100765473Y-87684056D01*
X100860960Y-87849444D01*
X100988747Y-87991366D01*
X101087843Y-88063364D01*
X101137835Y-88099685D01*
X101143248Y-88103618D01*
X101149276Y-88106302D01*
X101149278Y-88106303D01*
X101311681Y-88178609D01*
X101317712Y-88181294D01*
X101411112Y-88201147D01*
X101498056Y-88219628D01*
X101498061Y-88219628D01*
X101504513Y-88221000D01*
X101695487Y-88221000D01*
X101701939Y-88219628D01*
X101701944Y-88219628D01*
X101788888Y-88201147D01*
X101882288Y-88181294D01*
X101888319Y-88178609D01*
X102050722Y-88106303D01*
X102050724Y-88106302D01*
X102056752Y-88103618D01*
X102062166Y-88099685D01*
X102189671Y-88007046D01*
X102211253Y-87991366D01*
X102215668Y-87986463D01*
X102220580Y-87982040D01*
X102221705Y-87983289D01*
X102275014Y-87950449D01*
X102308200Y-87946000D01*
X102872906Y-87946000D01*
X102941027Y-87966002D01*
X102962001Y-87982905D01*
X103359878Y-88380782D01*
X103393904Y-88443094D01*
X103388839Y-88513909D01*
X103346292Y-88570745D01*
X103279772Y-88595556D01*
X103204667Y-88577137D01*
X103128968Y-88530475D01*
X103128966Y-88530474D01*
X103122738Y-88526635D01*
X102985906Y-88481250D01*
X102961389Y-88473118D01*
X102961387Y-88473118D01*
X102954861Y-88470953D01*
X102948025Y-88470253D01*
X102948022Y-88470252D01*
X102904969Y-88465841D01*
X102850400Y-88460250D01*
X102249600Y-88460250D01*
X102246354Y-88460587D01*
X102246350Y-88460587D01*
X102150692Y-88470512D01*
X102150688Y-88470513D01*
X102143834Y-88471224D01*
X102137298Y-88473405D01*
X102137296Y-88473405D01*
X102037248Y-88506784D01*
X101976054Y-88527200D01*
X101825652Y-88620272D01*
X101700695Y-88745447D01*
X101697898Y-88749985D01*
X101640647Y-88790574D01*
X101569724Y-88793804D01*
X101508313Y-88758178D01*
X101500938Y-88749682D01*
X101492902Y-88739543D01*
X101378171Y-88625011D01*
X101366760Y-88615999D01*
X101228757Y-88530934D01*
X101215576Y-88524787D01*
X101061290Y-88473612D01*
X101047914Y-88470745D01*
X100953562Y-88461078D01*
X100947145Y-88460750D01*
X100922115Y-88460750D01*
X100906876Y-88465225D01*
X100905671Y-88466615D01*
X100904000Y-88474298D01*
X100904000Y-90908634D01*
X100908475Y-90923873D01*
X100909865Y-90925078D01*
X100917548Y-90926749D01*
X100947095Y-90926749D01*
X100953614Y-90926412D01*
X101049206Y-90916493D01*
X101062600Y-90913601D01*
X101216784Y-90862162D01*
X101229962Y-90855989D01*
X101367807Y-90770687D01*
X101379208Y-90761651D01*
X101493738Y-90646922D01*
X101500794Y-90637988D01*
X101558712Y-90596927D01*
X101629635Y-90593697D01*
X101691046Y-90629324D01*
X101697846Y-90637157D01*
X101701522Y-90643098D01*
X101826697Y-90768055D01*
X101832927Y-90771895D01*
X101832928Y-90771896D01*
X101970288Y-90856566D01*
X101977262Y-90860865D01*
X102010939Y-90872035D01*
X102138611Y-90914382D01*
X102138613Y-90914382D01*
X102145139Y-90916547D01*
X102151975Y-90917247D01*
X102151978Y-90917248D01*
X102195031Y-90921659D01*
X102249600Y-90927250D01*
X102835405Y-90927250D01*
X102903526Y-90947252D01*
X102924501Y-90964155D01*
X103633853Y-91673508D01*
X103641387Y-91681787D01*
X103645500Y-91688268D01*
X103653664Y-91695934D01*
X103695151Y-91734893D01*
X103697993Y-91737648D01*
X103717730Y-91757385D01*
X103720927Y-91759865D01*
X103729947Y-91767568D01*
X103762179Y-91797836D01*
X103769125Y-91801655D01*
X103769128Y-91801657D01*
X103779934Y-91807598D01*
X103796453Y-91818449D01*
X103812459Y-91830864D01*
X103819728Y-91834009D01*
X103819732Y-91834012D01*
X103853037Y-91848424D01*
X103863687Y-91853641D01*
X103902440Y-91874945D01*
X103910115Y-91876916D01*
X103910116Y-91876916D01*
X103922062Y-91879983D01*
X103940767Y-91886387D01*
X103959355Y-91894431D01*
X103967178Y-91895670D01*
X103967188Y-91895673D01*
X104003024Y-91901349D01*
X104014644Y-91903755D01*
X104048044Y-91912330D01*
X104057470Y-91914750D01*
X104077724Y-91914750D01*
X104097434Y-91916301D01*
X104117443Y-91919470D01*
X104125335Y-91918724D01*
X104161461Y-91915309D01*
X104173319Y-91914750D01*
X104263411Y-91914750D01*
X104331532Y-91934752D01*
X104338976Y-91939924D01*
X104393015Y-91980424D01*
X104435530Y-92037283D01*
X104440556Y-92108102D01*
X104406496Y-92170395D01*
X104393015Y-92182076D01*
X104338976Y-92222576D01*
X104272470Y-92247424D01*
X104263411Y-92247750D01*
X95577094Y-92247750D01*
X95508973Y-92227748D01*
X95487999Y-92210845D01*
X93493000Y-90215845D01*
X99642001Y-90215845D01*
X99642338Y-90222364D01*
X99652257Y-90317956D01*
X99655149Y-90331350D01*
X99706588Y-90485534D01*
X99712761Y-90498712D01*
X99798063Y-90636557D01*
X99807099Y-90647958D01*
X99921829Y-90762489D01*
X99933240Y-90771501D01*
X100071243Y-90856566D01*
X100084424Y-90862713D01*
X100238710Y-90913888D01*
X100252086Y-90916755D01*
X100346438Y-90926422D01*
X100352854Y-90926750D01*
X100377885Y-90926750D01*
X100393124Y-90922275D01*
X100394329Y-90920885D01*
X100396000Y-90913202D01*
X100396000Y-89965865D01*
X100391525Y-89950626D01*
X100390135Y-89949421D01*
X100382452Y-89947750D01*
X99660116Y-89947750D01*
X99644877Y-89952225D01*
X99643672Y-89953615D01*
X99642001Y-89961298D01*
X99642001Y-90215845D01*
X93493000Y-90215845D01*
X92698790Y-89421635D01*
X99642000Y-89421635D01*
X99646475Y-89436874D01*
X99647865Y-89438079D01*
X99655548Y-89439750D01*
X100377885Y-89439750D01*
X100393124Y-89435275D01*
X100394329Y-89433885D01*
X100396000Y-89426202D01*
X100396000Y-88478866D01*
X100391525Y-88463627D01*
X100390135Y-88462422D01*
X100382452Y-88460751D01*
X100352905Y-88460751D01*
X100346386Y-88461088D01*
X100250794Y-88471007D01*
X100237400Y-88473899D01*
X100083216Y-88525338D01*
X100070038Y-88531511D01*
X99932193Y-88616813D01*
X99920792Y-88625849D01*
X99806261Y-88740579D01*
X99797249Y-88751990D01*
X99712184Y-88889993D01*
X99706037Y-88903174D01*
X99654862Y-89057460D01*
X99651995Y-89070836D01*
X99642328Y-89165188D01*
X99642000Y-89171605D01*
X99642000Y-89421635D01*
X92698790Y-89421635D01*
X91951655Y-88674500D01*
X91917629Y-88612188D01*
X91914750Y-88585405D01*
X91914750Y-75720844D01*
X91934752Y-75652723D01*
X91951655Y-75631749D01*
X93261003Y-74322402D01*
X93269289Y-74314862D01*
X93275768Y-74310750D01*
X93322394Y-74261098D01*
X93325148Y-74258257D01*
X93344885Y-74238520D01*
X93347365Y-74235323D01*
X93355070Y-74226301D01*
X93370273Y-74210112D01*
X93385336Y-74194071D01*
X93387910Y-74196488D01*
X93431371Y-74162865D01*
X93464264Y-74154881D01*
X93474916Y-74153776D01*
X93642696Y-74097800D01*
X93793098Y-74004728D01*
X93918055Y-73879553D01*
X94010865Y-73728988D01*
X94066547Y-73561111D01*
X94077250Y-73456650D01*
X94077250Y-72830850D01*
X94066276Y-72725084D01*
X94010300Y-72557304D01*
X93917228Y-72406902D01*
X93830641Y-72320466D01*
X93796562Y-72258184D01*
X93801565Y-72187364D01*
X93830486Y-72142275D01*
X93912884Y-72059733D01*
X93918055Y-72054553D01*
X94010865Y-71903988D01*
X94066547Y-71736111D01*
X94077250Y-71631650D01*
X94077250Y-71266000D01*
X94097252Y-71197879D01*
X94150908Y-71151386D01*
X94221182Y-71141282D01*
X94285762Y-71170776D01*
X94304050Y-71190400D01*
X94616300Y-71606733D01*
X94641171Y-71673231D01*
X94641500Y-71682333D01*
X94641500Y-86558635D01*
X94642038Y-86562721D01*
X94642038Y-86562722D01*
X94644749Y-86583313D01*
X94657162Y-86677600D01*
X94718476Y-86825625D01*
X94741862Y-86856102D01*
X94810984Y-86946184D01*
X94810987Y-86946187D01*
X94816013Y-86952737D01*
X94822563Y-86957763D01*
X94822564Y-86957764D01*
X94936570Y-87045245D01*
X94943124Y-87050274D01*
X94950750Y-87053433D01*
X94950752Y-87053434D01*
X95083520Y-87108428D01*
X95083523Y-87108429D01*
X95091150Y-87111588D01*
X95099338Y-87112666D01*
X95170575Y-87122045D01*
X95250000Y-87132501D01*
X95258188Y-87131423D01*
X95400662Y-87112666D01*
X95408850Y-87111588D01*
X95556875Y-87050274D01*
X95683987Y-86952737D01*
X95781524Y-86825625D01*
X95842838Y-86677600D01*
X95855251Y-86583313D01*
X95857962Y-86562722D01*
X95857962Y-86562721D01*
X95858500Y-86558635D01*
X95858500Y-79828345D01*
X105923251Y-79828345D01*
X105923588Y-79834864D01*
X105933507Y-79930456D01*
X105936399Y-79943850D01*
X105987838Y-80098034D01*
X105994011Y-80111212D01*
X106079313Y-80249057D01*
X106088349Y-80260458D01*
X106203079Y-80374989D01*
X106214490Y-80384001D01*
X106352493Y-80469066D01*
X106365674Y-80475213D01*
X106519960Y-80526388D01*
X106533336Y-80529255D01*
X106627688Y-80538922D01*
X106634104Y-80539250D01*
X106884135Y-80539250D01*
X106899374Y-80534775D01*
X106900579Y-80533385D01*
X106902250Y-80525702D01*
X106902250Y-79803365D01*
X106897775Y-79788126D01*
X106896385Y-79786921D01*
X106888702Y-79785250D01*
X105941366Y-79785250D01*
X105926127Y-79789725D01*
X105924922Y-79791115D01*
X105923251Y-79798798D01*
X105923251Y-79828345D01*
X95858500Y-79828345D01*
X95858500Y-71441486D01*
X95858508Y-71440100D01*
X95859253Y-71372350D01*
X95859344Y-71364086D01*
X95850405Y-71329193D01*
X95847541Y-71314371D01*
X95843916Y-71286839D01*
X95842838Y-71278650D01*
X95832156Y-71252861D01*
X95826507Y-71235915D01*
X95821629Y-71216874D01*
X95821628Y-71216873D01*
X95819580Y-71208877D01*
X95801911Y-71177480D01*
X95795309Y-71163904D01*
X95784686Y-71138258D01*
X95784685Y-71138257D01*
X95781524Y-71130625D01*
X95735212Y-71070271D01*
X95734374Y-71069166D01*
X94314590Y-69176120D01*
X94289719Y-69109622D01*
X94304748Y-69040234D01*
X94354905Y-68989987D01*
X94424265Y-68974833D01*
X94452752Y-68980187D01*
X94638477Y-69037857D01*
X94643766Y-69038558D01*
X94861739Y-69067448D01*
X94861744Y-69067448D01*
X94867024Y-69068148D01*
X94872353Y-69067948D01*
X94872355Y-69067948D01*
X94982216Y-69063824D01*
X95097408Y-69059499D01*
X95323041Y-69012157D01*
X95328000Y-69010199D01*
X95328002Y-69010198D01*
X95532506Y-68929435D01*
X95532508Y-68929434D01*
X95537471Y-68927474D01*
X95617069Y-68879173D01*
X95730007Y-68810640D01*
X95730006Y-68810640D01*
X95734567Y-68807873D01*
X95738597Y-68804376D01*
X95904662Y-68660273D01*
X95904664Y-68660271D01*
X95908695Y-68656773D01*
X95942766Y-68615220D01*
X96051490Y-68482623D01*
X96051494Y-68482617D01*
X96054874Y-68478495D01*
X96168925Y-68278136D01*
X96247587Y-68061425D01*
X96270273Y-67935970D01*
X96287873Y-67838642D01*
X96287874Y-67838635D01*
X96288611Y-67834558D01*
X96289750Y-67810406D01*
X96289750Y-66648360D01*
X96275170Y-66476530D01*
X96273832Y-66471375D01*
X96273831Y-66471369D01*
X96218593Y-66258547D01*
X96218592Y-66258543D01*
X96217251Y-66253378D01*
X96122562Y-66043175D01*
X95993809Y-65851931D01*
X95985245Y-65842953D01*
X95873224Y-65725526D01*
X95834674Y-65685115D01*
X95789520Y-65651519D01*
X95697809Y-65583284D01*
X95649708Y-65547496D01*
X95644957Y-65545080D01*
X95644953Y-65545078D01*
X95522981Y-65483065D01*
X95444199Y-65443010D01*
X95439105Y-65441428D01*
X95439102Y-65441427D01*
X95229121Y-65376226D01*
X95224023Y-65374643D01*
X95218734Y-65373942D01*
X95000761Y-65345052D01*
X95000756Y-65345052D01*
X94995476Y-65344352D01*
X94990147Y-65344552D01*
X94990145Y-65344552D01*
X94880284Y-65348677D01*
X94765092Y-65353001D01*
X94539459Y-65400343D01*
X94534500Y-65402301D01*
X94534498Y-65402302D01*
X94329994Y-65483065D01*
X94329992Y-65483066D01*
X94325029Y-65485026D01*
X94320470Y-65487793D01*
X94320467Y-65487794D01*
X94179029Y-65573621D01*
X94127933Y-65604627D01*
X94123903Y-65608124D01*
X93988609Y-65725526D01*
X93953805Y-65755727D01*
X93950418Y-65759858D01*
X93816573Y-65923093D01*
X93757913Y-65963088D01*
X93686943Y-65965019D01*
X93626195Y-65928275D01*
X93601157Y-65887431D01*
X93584575Y-65843198D01*
X93576036Y-65827601D01*
X93499535Y-65725526D01*
X93486974Y-65712965D01*
X93384899Y-65636464D01*
X93369304Y-65627926D01*
X93248856Y-65582772D01*
X93233601Y-65579145D01*
X93182736Y-65573619D01*
X93175922Y-65573250D01*
X93149365Y-65573250D01*
X93134126Y-65577725D01*
X93132921Y-65579115D01*
X93131250Y-65586798D01*
X93131250Y-66745882D01*
X93111248Y-66814003D01*
X93057592Y-66860496D01*
X92988805Y-66870804D01*
X92949305Y-66865604D01*
X92884377Y-66836882D01*
X92845285Y-66777617D01*
X92839750Y-66740682D01*
X92839750Y-66033116D01*
X92832995Y-65970934D01*
X92781865Y-65834545D01*
X92700160Y-65725526D01*
X92699895Y-65725172D01*
X92699892Y-65725169D01*
X92694511Y-65717989D01*
X92687331Y-65712608D01*
X92687328Y-65712605D01*
X92681686Y-65708377D01*
X92639171Y-65651519D01*
X92631250Y-65607550D01*
X92631250Y-65591366D01*
X92626775Y-65576127D01*
X92625385Y-65574922D01*
X92617702Y-65573251D01*
X92586581Y-65573251D01*
X92579760Y-65573621D01*
X92528901Y-65579145D01*
X92511486Y-65583285D01*
X92453192Y-65583284D01*
X92448966Y-65582279D01*
X92441566Y-65579505D01*
X92379384Y-65572750D01*
X91783116Y-65572750D01*
X91720934Y-65579505D01*
X91713535Y-65582279D01*
X91710396Y-65583025D01*
X91652104Y-65583025D01*
X91648965Y-65582279D01*
X91641566Y-65579505D01*
X91579384Y-65572750D01*
X90983116Y-65572750D01*
X90920934Y-65579505D01*
X90913535Y-65582279D01*
X90910396Y-65583025D01*
X90852104Y-65583025D01*
X90848965Y-65582279D01*
X90841566Y-65579505D01*
X90779384Y-65572750D01*
X90183116Y-65572750D01*
X90120934Y-65579505D01*
X90113535Y-65582279D01*
X90110396Y-65583025D01*
X90052104Y-65583025D01*
X90048965Y-65582279D01*
X90041566Y-65579505D01*
X89979384Y-65572750D01*
X89383116Y-65572750D01*
X89320934Y-65579505D01*
X89184545Y-65630635D01*
X89067989Y-65717989D01*
X88980635Y-65834545D01*
X88977483Y-65842953D01*
X88959735Y-65890295D01*
X88917093Y-65947059D01*
X88850531Y-65971759D01*
X88781183Y-65956551D01*
X88737234Y-65916433D01*
X88693809Y-65851931D01*
X88685245Y-65842953D01*
X88573224Y-65725526D01*
X88534674Y-65685115D01*
X88489520Y-65651519D01*
X88397809Y-65583284D01*
X88349708Y-65547496D01*
X88344957Y-65545080D01*
X88344953Y-65545078D01*
X88222981Y-65483065D01*
X88144199Y-65443010D01*
X88139105Y-65441428D01*
X88139102Y-65441427D01*
X87929121Y-65376226D01*
X87924023Y-65374643D01*
X87918734Y-65373942D01*
X87700761Y-65345052D01*
X87700756Y-65345052D01*
X87695476Y-65344352D01*
X87690147Y-65344552D01*
X87690145Y-65344552D01*
X87580284Y-65348677D01*
X87465092Y-65353001D01*
X87239459Y-65400343D01*
X87234500Y-65402301D01*
X87234498Y-65402302D01*
X87029994Y-65483065D01*
X87029992Y-65483066D01*
X87025029Y-65485026D01*
X87020470Y-65487793D01*
X87020467Y-65487794D01*
X86879029Y-65573621D01*
X86827933Y-65604627D01*
X86823903Y-65608124D01*
X86688609Y-65725526D01*
X86653805Y-65755727D01*
X86650418Y-65759858D01*
X86511010Y-65929877D01*
X86511006Y-65929883D01*
X86507626Y-65934005D01*
X86504987Y-65938641D01*
X86504985Y-65938644D01*
X86489972Y-65965019D01*
X86393575Y-66134364D01*
X86314913Y-66351075D01*
X86313964Y-66356324D01*
X86313963Y-66356327D01*
X86274627Y-66573858D01*
X86274626Y-66573865D01*
X86273889Y-66577942D01*
X86272750Y-66602094D01*
X86272750Y-67764140D01*
X86287330Y-67935970D01*
X86288668Y-67941125D01*
X86288669Y-67941131D01*
X86343907Y-68153953D01*
X86345249Y-68159122D01*
X86439938Y-68369325D01*
X86568691Y-68560569D01*
X86727826Y-68727385D01*
X86912792Y-68865004D01*
X86917543Y-68867420D01*
X86917547Y-68867422D01*
X87015546Y-68917247D01*
X87118301Y-68969490D01*
X87123400Y-68971073D01*
X87128337Y-68973078D01*
X87127599Y-68974896D01*
X87179614Y-69009477D01*
X87208100Y-69074508D01*
X87196906Y-69144617D01*
X87149585Y-69197544D01*
X87083119Y-69216500D01*
X85803767Y-69216500D01*
X85792584Y-69215973D01*
X85785091Y-69214298D01*
X85777165Y-69214547D01*
X85777164Y-69214547D01*
X85717014Y-69216438D01*
X85713055Y-69216500D01*
X85685144Y-69216500D01*
X85681210Y-69216997D01*
X85681209Y-69216997D01*
X85681144Y-69217005D01*
X85669307Y-69217938D01*
X85637049Y-69218952D01*
X85633030Y-69219078D01*
X85625111Y-69219327D01*
X85605657Y-69224979D01*
X85586300Y-69228987D01*
X85574070Y-69230532D01*
X85574069Y-69230532D01*
X85566203Y-69231526D01*
X85558832Y-69234445D01*
X85558830Y-69234445D01*
X85525088Y-69247804D01*
X85513858Y-69251649D01*
X85479017Y-69261771D01*
X85479016Y-69261771D01*
X85471407Y-69263982D01*
X85464588Y-69268015D01*
X85464583Y-69268017D01*
X85453972Y-69274293D01*
X85436224Y-69282988D01*
X85417383Y-69290448D01*
X85410967Y-69295110D01*
X85410966Y-69295110D01*
X85381613Y-69316436D01*
X85371693Y-69322952D01*
X85340465Y-69341420D01*
X85340462Y-69341422D01*
X85333638Y-69345458D01*
X85319317Y-69359779D01*
X85304284Y-69372619D01*
X85287893Y-69384528D01*
X85282842Y-69390633D01*
X85282837Y-69390638D01*
X85259701Y-69418604D01*
X85251713Y-69427382D01*
X84538997Y-70140098D01*
X84530711Y-70147638D01*
X84524232Y-70151750D01*
X84518807Y-70157527D01*
X84477607Y-70201401D01*
X84474852Y-70204243D01*
X84455115Y-70223980D01*
X84452635Y-70227177D01*
X84444932Y-70236197D01*
X84414664Y-70268429D01*
X84410845Y-70275375D01*
X84410843Y-70275378D01*
X84404902Y-70286184D01*
X84394051Y-70302703D01*
X84381636Y-70318709D01*
X84378491Y-70325978D01*
X84378488Y-70325982D01*
X84364076Y-70359287D01*
X84358859Y-70369937D01*
X84337555Y-70408690D01*
X84335584Y-70416365D01*
X84335584Y-70416366D01*
X84332517Y-70428312D01*
X84326113Y-70447016D01*
X84318069Y-70465605D01*
X84316830Y-70473428D01*
X84316827Y-70473438D01*
X84311151Y-70509274D01*
X84308745Y-70520894D01*
X84297750Y-70563720D01*
X84297750Y-70583974D01*
X84296199Y-70603684D01*
X84293030Y-70623693D01*
X84293776Y-70631585D01*
X84297191Y-70667711D01*
X84297750Y-70679569D01*
X84297750Y-76723550D01*
X84277748Y-76791671D01*
X84224092Y-76838164D01*
X84184754Y-76848877D01*
X84177115Y-76849669D01*
X84156942Y-76851762D01*
X84156938Y-76851763D01*
X84150084Y-76852474D01*
X84143548Y-76854655D01*
X84143546Y-76854655D01*
X84074769Y-76877601D01*
X83982304Y-76908450D01*
X83831902Y-77001522D01*
X83706945Y-77126697D01*
X83703105Y-77132927D01*
X83703104Y-77132928D01*
X83645494Y-77226389D01*
X83614135Y-77277262D01*
X83558453Y-77445139D01*
X83557753Y-77451975D01*
X83557752Y-77451978D01*
X83555334Y-77475579D01*
X83547750Y-77549600D01*
X83547750Y-78400400D01*
X83548087Y-78403646D01*
X83548087Y-78403650D01*
X83557330Y-78492730D01*
X83558724Y-78506166D01*
X83560905Y-78512702D01*
X83560905Y-78512704D01*
X83586405Y-78589135D01*
X83614700Y-78673946D01*
X83707772Y-78824348D01*
X83832947Y-78949305D01*
X83839177Y-78953145D01*
X83839178Y-78953146D01*
X83976340Y-79037694D01*
X83983512Y-79042115D01*
X84063255Y-79068564D01*
X84144861Y-79095632D01*
X84144863Y-79095632D01*
X84151389Y-79097797D01*
X84158225Y-79098497D01*
X84158228Y-79098498D01*
X84201281Y-79102909D01*
X84255850Y-79108500D01*
X85606650Y-79108500D01*
X85609896Y-79108163D01*
X85609900Y-79108163D01*
X85705558Y-79098238D01*
X85705562Y-79098237D01*
X85712416Y-79097526D01*
X85718952Y-79095345D01*
X85718954Y-79095345D01*
X85851056Y-79051272D01*
X85880196Y-79041550D01*
X86030598Y-78948478D01*
X86155555Y-78823303D01*
X86159396Y-78817072D01*
X86244525Y-78678968D01*
X86244526Y-78678966D01*
X86248365Y-78672738D01*
X86304047Y-78504861D01*
X86305615Y-78489563D01*
X86311348Y-78433601D01*
X86314750Y-78400400D01*
X86314750Y-77549600D01*
X86314413Y-77546350D01*
X86304488Y-77450692D01*
X86304487Y-77450688D01*
X86303776Y-77443834D01*
X86247800Y-77276054D01*
X86154728Y-77125652D01*
X86029553Y-77000695D01*
X86023322Y-76996854D01*
X85885218Y-76911725D01*
X85885216Y-76911724D01*
X85878988Y-76907885D01*
X85787684Y-76877601D01*
X85717639Y-76854368D01*
X85717637Y-76854368D01*
X85711111Y-76852203D01*
X85704273Y-76851502D01*
X85704271Y-76851502D01*
X85677908Y-76848801D01*
X85612180Y-76821960D01*
X85571398Y-76763845D01*
X85564750Y-76723457D01*
X85564750Y-70958345D01*
X85584752Y-70890224D01*
X85601655Y-70869249D01*
X85950501Y-70520404D01*
X86012813Y-70486379D01*
X86039596Y-70483500D01*
X87686313Y-70483500D01*
X87754434Y-70503502D01*
X87800927Y-70557158D01*
X87811031Y-70627432D01*
X87793573Y-70675615D01*
X87757885Y-70733512D01*
X87702203Y-70901389D01*
X87701503Y-70908225D01*
X87701502Y-70908228D01*
X87697091Y-70951281D01*
X87691500Y-71005850D01*
X87691500Y-71631650D01*
X87691837Y-71634896D01*
X87691837Y-71634900D01*
X87696759Y-71682333D01*
X87702474Y-71737416D01*
X87758450Y-71905196D01*
X87851522Y-72055598D01*
X87856704Y-72060771D01*
X87938109Y-72142034D01*
X87972188Y-72204316D01*
X87967185Y-72275136D01*
X87938264Y-72320225D01*
X87862940Y-72395681D01*
X87850695Y-72407947D01*
X87757885Y-72558512D01*
X87702203Y-72726389D01*
X87691500Y-72830850D01*
X87691500Y-73456650D01*
X87702474Y-73562416D01*
X87758450Y-73730196D01*
X87851522Y-73880598D01*
X87976697Y-74005555D01*
X87982927Y-74009395D01*
X87982928Y-74009396D01*
X88120090Y-74093944D01*
X88127262Y-74098365D01*
X88207005Y-74124814D01*
X88288611Y-74151882D01*
X88288613Y-74151882D01*
X88295139Y-74154047D01*
X88301976Y-74154747D01*
X88301978Y-74154748D01*
X88304587Y-74155015D01*
X88306092Y-74155630D01*
X88308710Y-74156191D01*
X88308610Y-74156658D01*
X88370314Y-74181858D01*
X88391299Y-74203129D01*
X88391422Y-74203287D01*
X88395458Y-74210112D01*
X88409779Y-74224433D01*
X88422619Y-74239466D01*
X88434528Y-74255857D01*
X88468605Y-74284048D01*
X88477384Y-74292038D01*
X89817095Y-75631750D01*
X89851121Y-75694062D01*
X89854000Y-75720845D01*
X89854000Y-88821233D01*
X89853473Y-88832416D01*
X89851798Y-88839909D01*
X89852047Y-88847835D01*
X89852047Y-88847836D01*
X89853938Y-88907986D01*
X89854000Y-88911945D01*
X89854000Y-88939856D01*
X89854497Y-88943790D01*
X89854497Y-88943791D01*
X89854505Y-88943856D01*
X89855438Y-88955693D01*
X89856827Y-88999889D01*
X89862478Y-89019339D01*
X89866487Y-89038700D01*
X89869026Y-89058797D01*
X89871945Y-89066168D01*
X89871945Y-89066170D01*
X89885304Y-89099912D01*
X89889149Y-89111142D01*
X89901482Y-89153593D01*
X89905515Y-89160412D01*
X89905517Y-89160417D01*
X89911793Y-89171028D01*
X89920488Y-89188776D01*
X89927948Y-89207617D01*
X89932610Y-89214033D01*
X89932610Y-89214034D01*
X89953936Y-89243387D01*
X89960452Y-89253307D01*
X89976978Y-89281250D01*
X89982958Y-89291362D01*
X89997279Y-89305683D01*
X90010119Y-89320716D01*
X90022028Y-89337107D01*
X90051554Y-89361533D01*
X90056105Y-89365298D01*
X90064884Y-89373288D01*
X94765093Y-94073497D01*
X94772637Y-94081787D01*
X94776750Y-94088268D01*
X94782527Y-94093693D01*
X94826417Y-94134908D01*
X94829259Y-94137663D01*
X94848981Y-94157385D01*
X94852105Y-94159808D01*
X94852109Y-94159812D01*
X94852174Y-94159862D01*
X94861195Y-94167567D01*
X94893429Y-94197836D01*
X94900377Y-94201655D01*
X94900379Y-94201657D01*
X94911182Y-94207596D01*
X94927709Y-94218452D01*
X94937448Y-94226007D01*
X94937450Y-94226008D01*
X94943710Y-94230864D01*
X94984290Y-94248424D01*
X94994938Y-94253641D01*
X95033690Y-94274945D01*
X95041366Y-94276916D01*
X95041369Y-94276917D01*
X95053312Y-94279983D01*
X95072017Y-94286387D01*
X95090605Y-94294431D01*
X95098428Y-94295670D01*
X95098438Y-94295673D01*
X95134274Y-94301349D01*
X95145894Y-94303755D01*
X95177709Y-94311923D01*
X95188720Y-94314750D01*
X95208974Y-94314750D01*
X95228684Y-94316301D01*
X95248693Y-94319470D01*
X95256585Y-94318724D01*
X95275330Y-94316952D01*
X95292712Y-94315309D01*
X95304569Y-94314750D01*
X103560156Y-94314750D01*
X103628277Y-94334752D01*
X103674770Y-94388408D01*
X103684874Y-94458682D01*
X103655380Y-94523262D01*
X103649253Y-94529842D01*
X102660360Y-95518735D01*
X102597463Y-95552886D01*
X102508337Y-95571831D01*
X102502307Y-95574516D01*
X102502306Y-95574516D01*
X102339903Y-95646822D01*
X102339901Y-95646823D01*
X102333873Y-95649507D01*
X102179372Y-95761759D01*
X102174951Y-95766669D01*
X102174950Y-95766670D01*
X102066614Y-95886990D01*
X102051585Y-95903681D01*
X102039339Y-95924892D01*
X101962492Y-96057995D01*
X101956098Y-96069069D01*
X101954056Y-96075354D01*
X101900295Y-96240813D01*
X101897083Y-96250697D01*
X101896726Y-96254095D01*
X101863134Y-96315961D01*
X101749500Y-96429595D01*
X101687188Y-96463621D01*
X101660405Y-96466500D01*
X101539595Y-96466500D01*
X101471474Y-96446498D01*
X101450500Y-96429595D01*
X99878652Y-94857747D01*
X99871112Y-94849461D01*
X99867000Y-94842982D01*
X99817348Y-94796356D01*
X99814507Y-94793602D01*
X99794770Y-94773865D01*
X99791573Y-94771385D01*
X99782551Y-94763680D01*
X99779530Y-94760843D01*
X99750321Y-94733414D01*
X99743375Y-94729595D01*
X99743372Y-94729593D01*
X99732566Y-94723652D01*
X99716047Y-94712801D01*
X99710958Y-94708854D01*
X99700041Y-94700386D01*
X99692772Y-94697241D01*
X99692768Y-94697238D01*
X99659463Y-94682826D01*
X99648813Y-94677609D01*
X99610060Y-94656305D01*
X99590437Y-94651267D01*
X99571734Y-94644863D01*
X99560420Y-94639967D01*
X99560419Y-94639967D01*
X99553145Y-94636819D01*
X99545322Y-94635580D01*
X99545312Y-94635577D01*
X99509476Y-94629901D01*
X99497856Y-94627495D01*
X99462711Y-94618472D01*
X99462710Y-94618472D01*
X99455030Y-94616500D01*
X99434776Y-94616500D01*
X99415065Y-94614949D01*
X99402886Y-94613020D01*
X99395057Y-94611780D01*
X99387165Y-94612526D01*
X99351039Y-94615941D01*
X99339181Y-94616500D01*
X90008344Y-94616500D01*
X89940223Y-94596498D01*
X89919249Y-94579595D01*
X85601655Y-90262000D01*
X85567629Y-90199688D01*
X85564750Y-90172905D01*
X85564750Y-82026450D01*
X85584752Y-81958329D01*
X85638408Y-81911836D01*
X85677746Y-81901123D01*
X85685385Y-81900331D01*
X85705558Y-81898238D01*
X85705562Y-81898237D01*
X85712416Y-81897526D01*
X85718952Y-81895345D01*
X85718954Y-81895345D01*
X85866822Y-81846012D01*
X85880196Y-81841550D01*
X86030598Y-81748478D01*
X86077317Y-81701678D01*
X86150384Y-81628483D01*
X86155555Y-81623303D01*
X86159396Y-81617072D01*
X86244525Y-81478968D01*
X86244526Y-81478966D01*
X86248365Y-81472738D01*
X86290059Y-81347035D01*
X86301882Y-81311389D01*
X86301882Y-81311387D01*
X86304047Y-81304861D01*
X86306950Y-81276534D01*
X86314422Y-81203598D01*
X86314750Y-81200400D01*
X86314750Y-80349600D01*
X86308062Y-80285141D01*
X86304488Y-80250692D01*
X86304487Y-80250688D01*
X86303776Y-80243834D01*
X86247800Y-80076054D01*
X86154728Y-79925652D01*
X86029553Y-79800695D01*
X86023322Y-79796854D01*
X85885218Y-79711725D01*
X85885216Y-79711724D01*
X85878988Y-79707885D01*
X85718504Y-79654655D01*
X85717639Y-79654368D01*
X85717637Y-79654368D01*
X85711111Y-79652203D01*
X85704275Y-79651503D01*
X85704272Y-79651502D01*
X85661219Y-79647091D01*
X85606650Y-79641500D01*
X84255850Y-79641500D01*
X84252604Y-79641837D01*
X84252600Y-79641837D01*
X84156942Y-79651762D01*
X84156938Y-79651763D01*
X84150084Y-79652474D01*
X84143548Y-79654655D01*
X84143546Y-79654655D01*
X84011444Y-79698728D01*
X83982304Y-79708450D01*
X83831902Y-79801522D01*
X83706945Y-79926697D01*
X83703105Y-79932927D01*
X83703104Y-79932928D01*
X83621848Y-80064750D01*
X83614135Y-80077262D01*
X83558453Y-80245139D01*
X83557753Y-80251975D01*
X83557752Y-80251978D01*
X83556883Y-80260458D01*
X83547750Y-80349600D01*
X83547750Y-81200400D01*
X83548087Y-81203646D01*
X83548087Y-81203650D01*
X83554984Y-81270117D01*
X83558724Y-81306166D01*
X83560905Y-81312702D01*
X83560905Y-81312704D01*
X83589662Y-81398899D01*
X83614700Y-81473946D01*
X83707772Y-81624348D01*
X83832947Y-81749305D01*
X83839177Y-81753145D01*
X83839178Y-81753146D01*
X83976340Y-81837694D01*
X83983512Y-81842115D01*
X84043102Y-81861880D01*
X84144861Y-81895632D01*
X84144863Y-81895632D01*
X84151389Y-81897797D01*
X84158227Y-81898498D01*
X84158229Y-81898498D01*
X84184592Y-81901199D01*
X84250320Y-81928040D01*
X84291102Y-81986155D01*
X84297750Y-82026543D01*
X84297750Y-90408733D01*
X84297223Y-90419916D01*
X84295548Y-90427409D01*
X84295797Y-90435335D01*
X84295797Y-90435336D01*
X84297688Y-90495486D01*
X84297750Y-90499445D01*
X84297750Y-90527356D01*
X84298247Y-90531290D01*
X84298247Y-90531291D01*
X84298255Y-90531356D01*
X84299188Y-90543193D01*
X84300577Y-90587389D01*
X84306228Y-90606839D01*
X84310237Y-90626200D01*
X84312776Y-90646297D01*
X84315695Y-90653668D01*
X84315695Y-90653670D01*
X84329054Y-90687412D01*
X84332899Y-90698642D01*
X84345232Y-90741093D01*
X84349265Y-90747912D01*
X84349267Y-90747917D01*
X84355543Y-90758528D01*
X84364238Y-90776276D01*
X84371698Y-90795117D01*
X84376360Y-90801533D01*
X84376360Y-90801534D01*
X84397686Y-90830887D01*
X84404202Y-90840807D01*
X84416832Y-90862162D01*
X84426708Y-90878862D01*
X84441029Y-90893183D01*
X84453869Y-90908216D01*
X84465778Y-90924607D01*
X84471884Y-90929658D01*
X84499855Y-90952798D01*
X84508634Y-90960788D01*
X89190098Y-95642253D01*
X89197638Y-95650539D01*
X89201750Y-95657018D01*
X89207527Y-95662443D01*
X89251401Y-95703643D01*
X89254243Y-95706398D01*
X89273980Y-95726135D01*
X89277177Y-95728615D01*
X89286197Y-95736318D01*
X89318429Y-95766586D01*
X89325375Y-95770405D01*
X89325378Y-95770407D01*
X89336184Y-95776348D01*
X89352703Y-95787199D01*
X89368709Y-95799614D01*
X89375978Y-95802759D01*
X89375982Y-95802762D01*
X89409287Y-95817174D01*
X89419937Y-95822391D01*
X89458690Y-95843695D01*
X89466365Y-95845666D01*
X89466366Y-95845666D01*
X89478312Y-95848733D01*
X89497017Y-95855137D01*
X89515605Y-95863181D01*
X89523428Y-95864420D01*
X89523438Y-95864423D01*
X89559274Y-95870099D01*
X89570894Y-95872505D01*
X89606039Y-95881528D01*
X89613720Y-95883500D01*
X89633974Y-95883500D01*
X89653684Y-95885051D01*
X89673693Y-95888220D01*
X89681585Y-95887474D01*
X89717711Y-95884059D01*
X89729569Y-95883500D01*
X99060406Y-95883500D01*
X99128527Y-95903502D01*
X99149501Y-95920405D01*
X100329595Y-97100499D01*
X100363621Y-97162811D01*
X100366500Y-97189594D01*
X100366500Y-97775400D01*
X100366837Y-97778646D01*
X100366837Y-97778650D01*
X100373986Y-97847546D01*
X100377474Y-97881166D01*
X100379655Y-97887702D01*
X100379655Y-97887704D01*
X100421536Y-98013235D01*
X100433450Y-98048946D01*
X100526522Y-98199348D01*
X100651697Y-98324305D01*
X100656235Y-98327102D01*
X100696824Y-98384353D01*
X100700054Y-98455276D01*
X100664428Y-98516687D01*
X100655932Y-98524062D01*
X100645793Y-98532098D01*
X100531261Y-98646829D01*
X100522249Y-98658240D01*
X100437184Y-98796243D01*
X100431037Y-98809424D01*
X100379862Y-98963710D01*
X100376995Y-98977086D01*
X100367328Y-99071438D01*
X100367000Y-99077855D01*
X100367000Y-99102885D01*
X100371475Y-99118124D01*
X100372865Y-99119329D01*
X100380548Y-99121000D01*
X102814884Y-99121000D01*
X102830123Y-99116525D01*
X102831328Y-99115135D01*
X102832999Y-99107452D01*
X102832999Y-99077905D01*
X102832662Y-99071386D01*
X102822743Y-98975794D01*
X102819851Y-98962400D01*
X102768412Y-98808216D01*
X102762239Y-98795038D01*
X102676937Y-98657193D01*
X102667901Y-98645792D01*
X102553172Y-98531262D01*
X102544238Y-98524206D01*
X102503177Y-98466288D01*
X102499947Y-98395365D01*
X102535574Y-98333954D01*
X102543407Y-98327154D01*
X102549348Y-98323478D01*
X102558811Y-98313999D01*
X102674305Y-98198303D01*
X102675807Y-98199803D01*
X102725172Y-98164811D01*
X102796095Y-98161586D01*
X102855221Y-98194875D01*
X103177032Y-98516687D01*
X103477603Y-98817258D01*
X103485137Y-98825537D01*
X103489250Y-98832018D01*
X103538901Y-98878643D01*
X103541743Y-98881398D01*
X103561480Y-98901135D01*
X103564677Y-98903615D01*
X103573697Y-98911318D01*
X103605929Y-98941586D01*
X103612875Y-98945405D01*
X103612878Y-98945407D01*
X103623684Y-98951348D01*
X103640203Y-98962199D01*
X103656209Y-98974614D01*
X103663478Y-98977759D01*
X103663482Y-98977762D01*
X103696787Y-98992174D01*
X103707437Y-98997391D01*
X103746190Y-99018695D01*
X103753865Y-99020666D01*
X103753866Y-99020666D01*
X103765812Y-99023733D01*
X103784517Y-99030137D01*
X103803105Y-99038181D01*
X103810928Y-99039420D01*
X103810938Y-99039423D01*
X103846774Y-99045099D01*
X103858394Y-99047505D01*
X103890209Y-99055673D01*
X103901220Y-99058500D01*
X103921474Y-99058500D01*
X103941184Y-99060051D01*
X103961193Y-99063220D01*
X103969085Y-99062474D01*
X103987830Y-99060702D01*
X104005212Y-99059059D01*
X104017069Y-99058500D01*
X106283733Y-99058500D01*
X106294916Y-99059027D01*
X106302409Y-99060702D01*
X106310335Y-99060453D01*
X106310336Y-99060453D01*
X106370486Y-99058562D01*
X106374445Y-99058500D01*
X106402356Y-99058500D01*
X106406291Y-99058003D01*
X106406356Y-99057995D01*
X106418193Y-99057062D01*
X106450451Y-99056048D01*
X106454470Y-99055922D01*
X106462389Y-99055673D01*
X106481843Y-99050021D01*
X106501200Y-99046013D01*
X106513430Y-99044468D01*
X106513431Y-99044468D01*
X106521297Y-99043474D01*
X106528668Y-99040555D01*
X106528670Y-99040555D01*
X106562412Y-99027196D01*
X106573642Y-99023351D01*
X106608483Y-99013229D01*
X106608484Y-99013229D01*
X106616093Y-99011018D01*
X106622912Y-99006985D01*
X106622917Y-99006983D01*
X106633528Y-99000707D01*
X106651276Y-98992012D01*
X106670117Y-98984552D01*
X106705887Y-98958564D01*
X106715807Y-98952048D01*
X106747035Y-98933580D01*
X106747038Y-98933578D01*
X106753862Y-98929542D01*
X106768183Y-98915221D01*
X106783217Y-98902380D01*
X106793193Y-98895132D01*
X106799607Y-98890472D01*
X106827788Y-98856407D01*
X106835778Y-98847626D01*
X107411734Y-98271671D01*
X107474046Y-98237646D01*
X107487221Y-98235504D01*
X107510316Y-98232995D01*
X107510548Y-98235134D01*
X107539512Y-98235084D01*
X107539793Y-98232502D01*
X107598514Y-98238881D01*
X107605328Y-98239250D01*
X107652885Y-98239250D01*
X107668124Y-98234775D01*
X107669329Y-98233385D01*
X107673879Y-98212467D01*
X107675097Y-98212732D01*
X107691002Y-98158563D01*
X107721435Y-98125858D01*
X107756080Y-98099893D01*
X107756081Y-98099892D01*
X107763261Y-98094511D01*
X107824174Y-98013235D01*
X107881033Y-97970720D01*
X107951852Y-97965694D01*
X108014145Y-97999754D01*
X108025825Y-98013234D01*
X108086739Y-98094511D01*
X108093919Y-98099892D01*
X108093920Y-98099893D01*
X108128565Y-98125858D01*
X108171080Y-98182717D01*
X108176413Y-98212324D01*
X108183475Y-98236373D01*
X108184865Y-98237578D01*
X108192548Y-98239249D01*
X108244669Y-98239249D01*
X108251490Y-98238879D01*
X108310207Y-98232502D01*
X108310505Y-98235248D01*
X108339446Y-98235190D01*
X108339684Y-98232995D01*
X108393867Y-98238881D01*
X108401866Y-98239750D01*
X109048134Y-98239750D01*
X109056134Y-98238881D01*
X109110316Y-98232995D01*
X109110580Y-98235424D01*
X109139420Y-98235424D01*
X109139684Y-98232995D01*
X109193867Y-98238881D01*
X109201866Y-98239750D01*
X109848134Y-98239750D01*
X109856134Y-98238881D01*
X109910316Y-98232995D01*
X109910580Y-98235424D01*
X109939420Y-98235424D01*
X109939684Y-98232995D01*
X109993867Y-98238881D01*
X110001866Y-98239750D01*
X110648134Y-98239750D01*
X110656134Y-98238881D01*
X110710316Y-98232995D01*
X110710580Y-98235424D01*
X110739420Y-98235424D01*
X110739684Y-98232995D01*
X110793867Y-98238881D01*
X110801866Y-98239750D01*
X111448134Y-98239750D01*
X111456134Y-98238881D01*
X111510316Y-98232995D01*
X111510580Y-98235424D01*
X111539420Y-98235424D01*
X111539684Y-98232995D01*
X111593867Y-98238881D01*
X111601866Y-98239750D01*
X112248134Y-98239750D01*
X112256134Y-98238881D01*
X112310316Y-98232995D01*
X112310580Y-98235424D01*
X112339420Y-98235424D01*
X112339684Y-98232995D01*
X112393867Y-98238881D01*
X112401866Y-98239750D01*
X113048134Y-98239750D01*
X113056134Y-98238881D01*
X113110316Y-98232995D01*
X113110580Y-98235424D01*
X113139420Y-98235424D01*
X113139684Y-98232995D01*
X113193867Y-98238881D01*
X113201866Y-98239750D01*
X113848134Y-98239750D01*
X113856134Y-98238881D01*
X113910316Y-98232995D01*
X113910548Y-98235134D01*
X113939512Y-98235084D01*
X113939793Y-98232502D01*
X113998514Y-98238881D01*
X114005328Y-98239250D01*
X114052885Y-98239250D01*
X114068124Y-98234775D01*
X114069329Y-98233385D01*
X114073879Y-98212467D01*
X114075097Y-98212732D01*
X114091002Y-98158563D01*
X114121435Y-98125858D01*
X114156080Y-98099893D01*
X114156081Y-98099892D01*
X114163261Y-98094511D01*
X114224174Y-98013235D01*
X114281033Y-97970720D01*
X114351852Y-97965694D01*
X114414145Y-97999754D01*
X114425826Y-98013235D01*
X114466326Y-98067274D01*
X114491174Y-98133780D01*
X114491500Y-98142839D01*
X114491500Y-99014983D01*
X114490973Y-99026166D01*
X114489298Y-99033659D01*
X114489547Y-99041585D01*
X114489547Y-99041586D01*
X114491438Y-99101736D01*
X114491500Y-99105695D01*
X114491500Y-99133606D01*
X114491997Y-99137540D01*
X114491997Y-99137541D01*
X114492005Y-99137606D01*
X114492938Y-99149443D01*
X114494327Y-99193639D01*
X114499978Y-99213089D01*
X114503987Y-99232450D01*
X114506526Y-99252547D01*
X114509445Y-99259918D01*
X114509445Y-99259920D01*
X114522804Y-99293662D01*
X114526649Y-99304892D01*
X114538982Y-99347343D01*
X114543015Y-99354162D01*
X114543017Y-99354167D01*
X114549293Y-99364778D01*
X114557988Y-99382526D01*
X114565448Y-99401367D01*
X114570107Y-99407780D01*
X114573289Y-99413568D01*
X114588576Y-99482899D01*
X114563953Y-99549489D01*
X114502748Y-99593789D01*
X114370716Y-99637838D01*
X114357538Y-99644011D01*
X114219693Y-99729313D01*
X114208292Y-99738349D01*
X114093761Y-99853079D01*
X114084749Y-99864490D01*
X113999684Y-100002493D01*
X113993537Y-100015674D01*
X113942362Y-100169960D01*
X113939495Y-100183336D01*
X113929828Y-100277688D01*
X113929500Y-100284105D01*
X113929500Y-100534135D01*
X113933975Y-100549374D01*
X113935365Y-100550579D01*
X113943048Y-100552250D01*
X115065500Y-100552250D01*
X115133621Y-100572252D01*
X115180114Y-100625908D01*
X115191500Y-100678250D01*
X115191500Y-102021134D01*
X115195975Y-102036373D01*
X115197365Y-102037578D01*
X115205048Y-102039249D01*
X115234595Y-102039249D01*
X115241114Y-102038912D01*
X115336706Y-102028993D01*
X115350100Y-102026101D01*
X115504284Y-101974662D01*
X115517462Y-101968489D01*
X115655307Y-101883187D01*
X115666708Y-101874151D01*
X115781238Y-101759422D01*
X115788294Y-101750488D01*
X115846212Y-101709427D01*
X115917135Y-101706197D01*
X115978546Y-101741824D01*
X115985346Y-101749657D01*
X115989022Y-101755598D01*
X116114197Y-101880555D01*
X116120427Y-101884395D01*
X116120428Y-101884396D01*
X116257788Y-101969066D01*
X116264762Y-101973365D01*
X116344505Y-101999814D01*
X116426111Y-102026882D01*
X116426113Y-102026882D01*
X116432639Y-102029047D01*
X116439475Y-102029747D01*
X116439478Y-102029748D01*
X116482531Y-102034159D01*
X116537100Y-102039750D01*
X117137900Y-102039750D01*
X117141146Y-102039413D01*
X117141150Y-102039413D01*
X117236808Y-102029488D01*
X117236812Y-102029487D01*
X117243666Y-102028776D01*
X117250202Y-102026595D01*
X117250204Y-102026595D01*
X117383837Y-101982011D01*
X117411446Y-101972800D01*
X117561848Y-101879728D01*
X117584490Y-101857047D01*
X117681634Y-101759733D01*
X117686805Y-101754553D01*
X117698023Y-101736354D01*
X117731961Y-101681297D01*
X117784734Y-101633803D01*
X117854805Y-101622380D01*
X117890469Y-101632306D01*
X117980427Y-101672358D01*
X117980435Y-101672361D01*
X117986462Y-101675044D01*
X118079862Y-101694897D01*
X118166806Y-101713378D01*
X118166811Y-101713378D01*
X118173263Y-101714750D01*
X118364237Y-101714750D01*
X118370689Y-101713378D01*
X118370694Y-101713378D01*
X118457638Y-101694897D01*
X118551038Y-101675044D01*
X118569366Y-101666884D01*
X118719472Y-101600053D01*
X118719474Y-101600052D01*
X118725502Y-101597368D01*
X118880003Y-101485116D01*
X119007790Y-101343194D01*
X119103277Y-101177806D01*
X119162292Y-100996178D01*
X119182254Y-100806250D01*
X119162292Y-100616322D01*
X119103277Y-100434694D01*
X119092652Y-100416290D01*
X119062972Y-100364884D01*
X119007790Y-100269306D01*
X118880003Y-100127384D01*
X118725502Y-100015132D01*
X118719474Y-100012448D01*
X118719472Y-100012447D01*
X118557069Y-99940141D01*
X118557068Y-99940141D01*
X118551038Y-99937456D01*
X118457637Y-99917603D01*
X118370694Y-99899122D01*
X118370689Y-99899122D01*
X118364237Y-99897750D01*
X118173263Y-99897750D01*
X118166811Y-99899122D01*
X118166806Y-99899122D01*
X118079863Y-99917603D01*
X117986462Y-99937456D01*
X117890465Y-99980196D01*
X117820100Y-99989630D01*
X117755803Y-99959524D01*
X117732074Y-99931392D01*
X117689832Y-99863130D01*
X117685978Y-99856902D01*
X117560803Y-99731945D01*
X117554572Y-99728104D01*
X117416468Y-99642975D01*
X117416466Y-99642974D01*
X117410238Y-99639135D01*
X117330495Y-99612686D01*
X117248889Y-99585618D01*
X117248887Y-99585618D01*
X117242361Y-99583453D01*
X117235525Y-99582753D01*
X117235522Y-99582752D01*
X117185821Y-99577660D01*
X117137900Y-99572750D01*
X116552095Y-99572750D01*
X116483974Y-99552748D01*
X116462999Y-99535845D01*
X115795404Y-98868249D01*
X115761379Y-98805937D01*
X115758500Y-98779154D01*
X115758500Y-98142839D01*
X115778502Y-98074718D01*
X115783674Y-98067274D01*
X115789429Y-98059595D01*
X119442001Y-98059595D01*
X119442338Y-98066114D01*
X119452257Y-98161706D01*
X119455149Y-98175100D01*
X119506588Y-98329284D01*
X119512761Y-98342462D01*
X119598063Y-98480307D01*
X119607099Y-98491708D01*
X119721829Y-98606239D01*
X119733240Y-98615251D01*
X119871243Y-98700316D01*
X119884424Y-98706463D01*
X120038710Y-98757638D01*
X120052086Y-98760505D01*
X120146438Y-98770172D01*
X120152854Y-98770500D01*
X120377885Y-98770500D01*
X120393124Y-98766025D01*
X120394329Y-98764635D01*
X120396000Y-98756952D01*
X120396000Y-98752384D01*
X120904000Y-98752384D01*
X120908475Y-98767623D01*
X120909865Y-98768828D01*
X120917548Y-98770499D01*
X121147095Y-98770499D01*
X121153614Y-98770162D01*
X121249206Y-98760243D01*
X121262600Y-98757351D01*
X121416784Y-98705912D01*
X121429962Y-98699739D01*
X121567807Y-98614437D01*
X121579208Y-98605401D01*
X121693739Y-98490671D01*
X121702751Y-98479260D01*
X121787816Y-98341257D01*
X121793963Y-98328076D01*
X121845138Y-98173790D01*
X121848005Y-98160414D01*
X121857672Y-98066062D01*
X121858000Y-98059646D01*
X121858000Y-98022115D01*
X121853525Y-98006876D01*
X121852135Y-98005671D01*
X121844452Y-98004000D01*
X120922115Y-98004000D01*
X120906876Y-98008475D01*
X120905671Y-98009865D01*
X120904000Y-98017548D01*
X120904000Y-98752384D01*
X120396000Y-98752384D01*
X120396000Y-98022115D01*
X120391525Y-98006876D01*
X120390135Y-98005671D01*
X120382452Y-98004000D01*
X119460116Y-98004000D01*
X119444877Y-98008475D01*
X119443672Y-98009865D01*
X119442001Y-98017548D01*
X119442001Y-98059595D01*
X115789429Y-98059595D01*
X115806764Y-98036465D01*
X115850615Y-97977955D01*
X115901745Y-97841566D01*
X115908500Y-97779384D01*
X115908500Y-96190750D01*
X115928502Y-96122629D01*
X115982158Y-96076136D01*
X116034500Y-96064750D01*
X117623134Y-96064750D01*
X117685316Y-96057995D01*
X117821705Y-96006865D01*
X117911024Y-95939924D01*
X117977530Y-95915076D01*
X117986589Y-95914750D01*
X119315500Y-95914750D01*
X119383621Y-95934752D01*
X119430114Y-95988408D01*
X119441500Y-96040750D01*
X119441500Y-96237900D01*
X119441837Y-96241146D01*
X119441837Y-96241150D01*
X119449996Y-96319779D01*
X119452474Y-96343666D01*
X119454655Y-96350202D01*
X119454655Y-96350204D01*
X119462434Y-96373521D01*
X119508450Y-96511446D01*
X119601522Y-96661848D01*
X119606704Y-96667021D01*
X119688463Y-96748638D01*
X119722542Y-96810921D01*
X119717539Y-96881741D01*
X119688618Y-96926829D01*
X119606261Y-97009329D01*
X119597249Y-97020740D01*
X119512184Y-97158743D01*
X119506037Y-97171924D01*
X119454862Y-97326210D01*
X119451995Y-97339586D01*
X119442328Y-97433938D01*
X119442000Y-97440355D01*
X119442000Y-97477885D01*
X119446475Y-97493124D01*
X119447865Y-97494329D01*
X119455548Y-97496000D01*
X121839884Y-97496000D01*
X121855123Y-97491525D01*
X121856328Y-97490135D01*
X121857999Y-97482452D01*
X121857999Y-97440405D01*
X121857662Y-97433886D01*
X121847743Y-97338294D01*
X121844851Y-97324900D01*
X121793412Y-97170716D01*
X121787239Y-97157538D01*
X121701937Y-97019693D01*
X121692901Y-97008292D01*
X121611538Y-96927070D01*
X121577459Y-96864787D01*
X121582462Y-96793967D01*
X121611383Y-96748880D01*
X121694130Y-96665988D01*
X121694134Y-96665983D01*
X121699305Y-96660803D01*
X121714082Y-96636831D01*
X121788275Y-96516468D01*
X121788276Y-96516466D01*
X121792115Y-96510238D01*
X121840294Y-96364983D01*
X121845632Y-96348889D01*
X121845632Y-96348887D01*
X121847797Y-96342361D01*
X121848904Y-96331562D01*
X121858172Y-96241098D01*
X121858500Y-96237900D01*
X121858500Y-95612100D01*
X121858163Y-95608850D01*
X121848238Y-95513192D01*
X121848237Y-95513188D01*
X121847526Y-95506334D01*
X121791550Y-95338554D01*
X121698478Y-95188152D01*
X121573303Y-95063195D01*
X121422738Y-94970385D01*
X121342995Y-94943936D01*
X121261389Y-94916868D01*
X121261387Y-94916868D01*
X121254861Y-94914703D01*
X121248025Y-94914003D01*
X121248022Y-94914002D01*
X121204969Y-94909591D01*
X121150400Y-94904000D01*
X120579837Y-94904000D01*
X120511716Y-94883998D01*
X120493585Y-94869851D01*
X120448600Y-94827608D01*
X120445757Y-94824852D01*
X120426020Y-94805115D01*
X120422823Y-94802635D01*
X120413801Y-94794930D01*
X120388788Y-94771441D01*
X120381571Y-94764664D01*
X120374625Y-94760845D01*
X120374622Y-94760843D01*
X120363816Y-94754902D01*
X120347297Y-94744051D01*
X120340580Y-94738841D01*
X120331291Y-94731636D01*
X120324022Y-94728491D01*
X120324018Y-94728488D01*
X120290713Y-94714076D01*
X120280063Y-94708859D01*
X120241310Y-94687555D01*
X120221687Y-94682517D01*
X120202984Y-94676113D01*
X120191670Y-94671217D01*
X120191669Y-94671217D01*
X120184395Y-94668069D01*
X120176572Y-94666830D01*
X120176562Y-94666827D01*
X120140726Y-94661151D01*
X120129106Y-94658745D01*
X120093961Y-94649722D01*
X120093960Y-94649722D01*
X120086280Y-94647750D01*
X120066026Y-94647750D01*
X120046315Y-94646199D01*
X120034136Y-94644270D01*
X120026307Y-94643030D01*
X120018415Y-94643776D01*
X119982289Y-94647191D01*
X119970431Y-94647750D01*
X118209500Y-94647750D01*
X118141379Y-94627748D01*
X118094886Y-94574092D01*
X118083500Y-94521750D01*
X118083500Y-94440750D01*
X118103502Y-94372629D01*
X118157158Y-94326136D01*
X118209500Y-94314750D01*
X119853156Y-94314750D01*
X119864339Y-94315277D01*
X119871832Y-94316952D01*
X119879758Y-94316703D01*
X119879759Y-94316703D01*
X119939909Y-94314812D01*
X119943868Y-94314750D01*
X119971779Y-94314750D01*
X119975714Y-94314253D01*
X119975779Y-94314245D01*
X119987616Y-94313312D01*
X120019874Y-94312298D01*
X120023893Y-94312172D01*
X120031812Y-94311923D01*
X120051266Y-94306271D01*
X120070623Y-94302263D01*
X120077857Y-94301349D01*
X120090720Y-94299724D01*
X120092152Y-94299157D01*
X120117146Y-94296000D01*
X121129156Y-94296000D01*
X121197277Y-94316002D01*
X121218251Y-94332905D01*
X123154595Y-96269250D01*
X123188621Y-96331562D01*
X123191500Y-96358345D01*
X123191500Y-109458733D01*
X123190973Y-109469916D01*
X123189298Y-109477409D01*
X123189547Y-109485335D01*
X123189547Y-109485336D01*
X123191438Y-109545486D01*
X123191500Y-109549445D01*
X123191500Y-109577356D01*
X123191997Y-109581290D01*
X123191997Y-109581291D01*
X123192005Y-109581356D01*
X123192938Y-109593193D01*
X123194327Y-109637389D01*
X123199978Y-109656839D01*
X123203987Y-109676200D01*
X123206526Y-109696297D01*
X123209445Y-109703668D01*
X123209445Y-109703670D01*
X123222804Y-109737412D01*
X123226649Y-109748642D01*
X123238982Y-109791093D01*
X123243015Y-109797912D01*
X123243017Y-109797917D01*
X123249293Y-109808528D01*
X123257988Y-109826276D01*
X123265448Y-109845117D01*
X123270110Y-109851533D01*
X123270110Y-109851534D01*
X123291436Y-109880887D01*
X123297952Y-109890807D01*
X123320458Y-109928862D01*
X123334779Y-109943183D01*
X123347619Y-109958216D01*
X123359528Y-109974607D01*
X123365634Y-109979658D01*
X123393605Y-110002798D01*
X123402384Y-110010788D01*
X125375595Y-111984000D01*
X125409621Y-112046312D01*
X125412500Y-112073095D01*
X125412500Y-119221750D01*
X125392498Y-119289871D01*
X125338842Y-119336364D01*
X125286500Y-119347750D01*
X83393125Y-119347750D01*
X83373735Y-119346249D01*
X83358916Y-119343941D01*
X83350042Y-119342559D01*
X83337365Y-119344216D01*
X83310052Y-119344799D01*
X83167380Y-119332313D01*
X83145752Y-119328499D01*
X82985375Y-119285523D01*
X82964736Y-119278011D01*
X82814254Y-119207837D01*
X82795235Y-119196856D01*
X82659224Y-119101619D01*
X82642400Y-119087501D01*
X82524999Y-118970100D01*
X82510881Y-118953276D01*
X82415644Y-118817265D01*
X82404663Y-118798246D01*
X82334489Y-118647764D01*
X82326977Y-118627125D01*
X82284001Y-118466748D01*
X82280187Y-118445120D01*
X82268304Y-118309343D01*
X82268858Y-118292860D01*
X82268451Y-118292855D01*
X82268560Y-118283880D01*
X82269941Y-118275010D01*
X82265814Y-118243456D01*
X82264750Y-118227115D01*
X82264750Y-101663419D01*
X89154501Y-101663419D01*
X89154871Y-101670240D01*
X89160395Y-101721102D01*
X89164021Y-101736354D01*
X89209176Y-101856804D01*
X89217714Y-101872399D01*
X89294215Y-101974474D01*
X89306776Y-101987035D01*
X89408851Y-102063536D01*
X89424446Y-102072074D01*
X89544894Y-102117228D01*
X89560149Y-102120855D01*
X89611014Y-102126381D01*
X89617828Y-102126750D01*
X90290385Y-102126750D01*
X90305624Y-102122275D01*
X90306829Y-102120885D01*
X90308500Y-102113202D01*
X90308500Y-102108634D01*
X90816500Y-102108634D01*
X90820975Y-102123873D01*
X90822365Y-102125078D01*
X90830048Y-102126749D01*
X91507169Y-102126749D01*
X91513990Y-102126379D01*
X91564852Y-102120855D01*
X91580104Y-102117229D01*
X91700554Y-102072074D01*
X91716149Y-102063536D01*
X91818224Y-101987035D01*
X91830785Y-101974474D01*
X91907286Y-101872399D01*
X91915824Y-101856804D01*
X91960978Y-101736356D01*
X91964605Y-101721101D01*
X91970131Y-101670236D01*
X91970313Y-101666884D01*
X95354000Y-101666884D01*
X95360755Y-101729066D01*
X95411885Y-101865455D01*
X95499239Y-101982011D01*
X95615795Y-102069365D01*
X95752184Y-102120495D01*
X95814366Y-102127250D01*
X97710634Y-102127250D01*
X97772816Y-102120495D01*
X97909205Y-102069365D01*
X98025761Y-101982011D01*
X98113115Y-101865455D01*
X98164245Y-101729066D01*
X98171000Y-101666884D01*
X98171000Y-101328345D01*
X113929501Y-101328345D01*
X113929838Y-101334864D01*
X113939757Y-101430456D01*
X113942649Y-101443850D01*
X113994088Y-101598034D01*
X114000261Y-101611212D01*
X114085563Y-101749057D01*
X114094599Y-101760458D01*
X114209329Y-101874989D01*
X114220740Y-101884001D01*
X114358743Y-101969066D01*
X114371924Y-101975213D01*
X114526210Y-102026388D01*
X114539586Y-102029255D01*
X114633938Y-102038922D01*
X114640354Y-102039250D01*
X114665385Y-102039250D01*
X114680624Y-102034775D01*
X114681829Y-102033385D01*
X114683500Y-102025702D01*
X114683500Y-101078365D01*
X114679025Y-101063126D01*
X114677635Y-101061921D01*
X114669952Y-101060250D01*
X113947616Y-101060250D01*
X113932377Y-101064725D01*
X113931172Y-101066115D01*
X113929501Y-101073798D01*
X113929501Y-101328345D01*
X98171000Y-101328345D01*
X98171000Y-100470616D01*
X98164245Y-100408434D01*
X98113115Y-100272045D01*
X98025761Y-100155489D01*
X97909205Y-100068135D01*
X97772816Y-100017005D01*
X97710634Y-100010250D01*
X95814366Y-100010250D01*
X95752184Y-100017005D01*
X95615795Y-100068135D01*
X95499239Y-100155489D01*
X95411885Y-100272045D01*
X95360755Y-100408434D01*
X95354000Y-100470616D01*
X95354000Y-101666884D01*
X91970313Y-101666884D01*
X91970500Y-101663422D01*
X91970500Y-101340865D01*
X91966025Y-101325626D01*
X91964635Y-101324421D01*
X91956952Y-101322750D01*
X90834615Y-101322750D01*
X90819376Y-101327225D01*
X90818171Y-101328615D01*
X90816500Y-101336298D01*
X90816500Y-102108634D01*
X90308500Y-102108634D01*
X90308500Y-101340865D01*
X90304025Y-101325626D01*
X90302635Y-101324421D01*
X90294952Y-101322750D01*
X89172616Y-101322750D01*
X89157377Y-101327225D01*
X89156172Y-101328615D01*
X89154501Y-101336298D01*
X89154501Y-101663419D01*
X82264750Y-101663419D01*
X82264750Y-100796635D01*
X89154500Y-100796635D01*
X89158975Y-100811874D01*
X89160365Y-100813079D01*
X89168048Y-100814750D01*
X90290385Y-100814750D01*
X90305624Y-100810275D01*
X90306829Y-100808885D01*
X90308500Y-100801202D01*
X90308500Y-100796635D01*
X90816500Y-100796635D01*
X90820975Y-100811874D01*
X90822365Y-100813079D01*
X90830048Y-100814750D01*
X91952384Y-100814750D01*
X91967623Y-100810275D01*
X91968828Y-100808885D01*
X91970499Y-100801202D01*
X91970499Y-100474081D01*
X91970129Y-100467260D01*
X91964605Y-100416398D01*
X91960979Y-100401146D01*
X91915824Y-100280696D01*
X91907286Y-100265101D01*
X91830785Y-100163026D01*
X91818224Y-100150465D01*
X91716149Y-100073964D01*
X91700554Y-100065426D01*
X91580106Y-100020272D01*
X91564851Y-100016645D01*
X91513986Y-100011119D01*
X91507172Y-100010750D01*
X90834615Y-100010750D01*
X90819376Y-100015225D01*
X90818171Y-100016615D01*
X90816500Y-100024298D01*
X90816500Y-100796635D01*
X90308500Y-100796635D01*
X90308500Y-100028866D01*
X90304025Y-100013627D01*
X90302635Y-100012422D01*
X90294952Y-100010751D01*
X89617831Y-100010751D01*
X89611010Y-100011121D01*
X89560148Y-100016645D01*
X89544896Y-100020271D01*
X89424446Y-100065426D01*
X89408851Y-100073964D01*
X89306776Y-100150465D01*
X89294215Y-100163026D01*
X89217714Y-100265101D01*
X89209176Y-100280696D01*
X89164022Y-100401144D01*
X89160395Y-100416399D01*
X89154869Y-100467264D01*
X89154500Y-100474078D01*
X89154500Y-100796635D01*
X82264750Y-100796635D01*
X82264750Y-99672095D01*
X100367001Y-99672095D01*
X100367338Y-99678614D01*
X100377257Y-99774206D01*
X100380149Y-99787600D01*
X100431588Y-99941784D01*
X100437761Y-99954962D01*
X100523063Y-100092807D01*
X100532099Y-100104208D01*
X100646829Y-100218739D01*
X100658240Y-100227751D01*
X100796243Y-100312816D01*
X100809424Y-100318963D01*
X100963710Y-100370138D01*
X100977086Y-100373005D01*
X101071438Y-100382672D01*
X101077854Y-100383000D01*
X101327885Y-100383000D01*
X101343124Y-100378525D01*
X101344329Y-100377135D01*
X101346000Y-100369452D01*
X101346000Y-100364884D01*
X101854000Y-100364884D01*
X101858475Y-100380123D01*
X101859865Y-100381328D01*
X101867548Y-100382999D01*
X102122095Y-100382999D01*
X102128614Y-100382662D01*
X102224206Y-100372743D01*
X102237600Y-100369851D01*
X102391784Y-100318412D01*
X102404962Y-100312239D01*
X102542807Y-100226937D01*
X102554208Y-100217901D01*
X102668739Y-100103171D01*
X102677751Y-100091760D01*
X102762816Y-99953757D01*
X102768963Y-99940576D01*
X102820138Y-99786290D01*
X102823005Y-99772914D01*
X102832672Y-99678562D01*
X102833000Y-99672146D01*
X102833000Y-99647115D01*
X102828525Y-99631876D01*
X102827135Y-99630671D01*
X102819452Y-99629000D01*
X101872115Y-99629000D01*
X101856876Y-99633475D01*
X101855671Y-99634865D01*
X101854000Y-99642548D01*
X101854000Y-100364884D01*
X101346000Y-100364884D01*
X101346000Y-99647115D01*
X101341525Y-99631876D01*
X101340135Y-99630671D01*
X101332452Y-99629000D01*
X100385116Y-99629000D01*
X100369877Y-99633475D01*
X100368672Y-99634865D01*
X100367001Y-99642548D01*
X100367001Y-99672095D01*
X82264750Y-99672095D01*
X82264750Y-97966884D01*
X89154000Y-97966884D01*
X89160755Y-98029066D01*
X89211885Y-98165455D01*
X89299239Y-98282011D01*
X89415795Y-98369365D01*
X89552184Y-98420495D01*
X89614366Y-98427250D01*
X91510634Y-98427250D01*
X91572816Y-98420495D01*
X91709205Y-98369365D01*
X91825761Y-98282011D01*
X91913115Y-98165455D01*
X91964245Y-98029066D01*
X91971000Y-97966884D01*
X95354000Y-97966884D01*
X95360755Y-98029066D01*
X95411885Y-98165455D01*
X95499239Y-98282011D01*
X95615795Y-98369365D01*
X95752184Y-98420495D01*
X95814366Y-98427250D01*
X97710634Y-98427250D01*
X97714031Y-98426881D01*
X97764966Y-98421348D01*
X97764968Y-98421348D01*
X97772816Y-98420495D01*
X97780209Y-98417723D01*
X97780211Y-98417723D01*
X97836570Y-98396595D01*
X97907377Y-98391412D01*
X97954860Y-98412641D01*
X97961855Y-98417723D01*
X97968248Y-98422368D01*
X97974276Y-98425052D01*
X97974278Y-98425053D01*
X98123989Y-98491708D01*
X98142712Y-98500044D01*
X98221011Y-98516687D01*
X98323056Y-98538378D01*
X98323061Y-98538378D01*
X98329513Y-98539750D01*
X98520487Y-98539750D01*
X98526939Y-98538378D01*
X98526944Y-98538378D01*
X98628989Y-98516687D01*
X98707288Y-98500044D01*
X98726011Y-98491708D01*
X98875722Y-98425053D01*
X98875724Y-98425052D01*
X98881752Y-98422368D01*
X98888146Y-98417723D01*
X98962117Y-98363979D01*
X99036253Y-98310116D01*
X99101505Y-98237646D01*
X99159621Y-98173102D01*
X99159622Y-98173101D01*
X99164040Y-98168194D01*
X99232888Y-98048946D01*
X99256223Y-98008529D01*
X99256224Y-98008528D01*
X99259527Y-98002806D01*
X99318542Y-97821178D01*
X99323354Y-97775400D01*
X99337814Y-97637815D01*
X99338504Y-97631250D01*
X99331649Y-97566026D01*
X99319232Y-97447885D01*
X99319232Y-97447883D01*
X99318542Y-97441322D01*
X99259527Y-97259694D01*
X99164040Y-97094306D01*
X99093060Y-97015474D01*
X99040675Y-96957295D01*
X99040674Y-96957294D01*
X99036253Y-96952384D01*
X98881752Y-96840132D01*
X98875724Y-96837448D01*
X98875722Y-96837447D01*
X98713319Y-96765141D01*
X98713318Y-96765141D01*
X98707288Y-96762456D01*
X98613888Y-96742603D01*
X98526944Y-96724122D01*
X98526939Y-96724122D01*
X98520487Y-96722750D01*
X98329513Y-96722750D01*
X98323060Y-96724122D01*
X98323056Y-96724122D01*
X98287515Y-96731677D01*
X98216724Y-96726275D01*
X98160092Y-96683458D01*
X98143336Y-96652659D01*
X98116268Y-96580455D01*
X98116267Y-96580453D01*
X98113115Y-96572045D01*
X98025761Y-96455489D01*
X97909205Y-96368135D01*
X97772816Y-96317005D01*
X97710634Y-96310250D01*
X95814366Y-96310250D01*
X95752184Y-96317005D01*
X95615795Y-96368135D01*
X95499239Y-96455489D01*
X95411885Y-96572045D01*
X95360755Y-96708434D01*
X95354000Y-96770616D01*
X95354000Y-97966884D01*
X91971000Y-97966884D01*
X91971000Y-96770616D01*
X91964245Y-96708434D01*
X91913115Y-96572045D01*
X91825761Y-96455489D01*
X91709205Y-96368135D01*
X91572816Y-96317005D01*
X91510634Y-96310250D01*
X89614366Y-96310250D01*
X89552184Y-96317005D01*
X89415795Y-96368135D01*
X89299239Y-96455489D01*
X89211885Y-96572045D01*
X89160755Y-96708434D01*
X89154000Y-96770616D01*
X89154000Y-97966884D01*
X82264750Y-97966884D01*
X82264750Y-62755625D01*
X82266251Y-62736235D01*
X82268559Y-62721416D01*
X82269941Y-62712542D01*
X82268284Y-62699865D01*
X82267701Y-62672551D01*
X82280187Y-62529880D01*
X82284001Y-62508252D01*
X82326977Y-62347875D01*
X82334489Y-62327236D01*
X82404663Y-62176754D01*
X82415644Y-62157735D01*
X82510881Y-62021724D01*
X82524999Y-62004900D01*
X82642400Y-61887499D01*
X82659224Y-61873381D01*
X82683580Y-61856327D01*
X82795235Y-61778144D01*
X82814254Y-61767163D01*
X82964736Y-61696989D01*
X82985375Y-61689477D01*
X83142950Y-61647252D01*
X83145753Y-61646501D01*
X83167380Y-61642687D01*
X83175355Y-61641989D01*
X83303159Y-61630804D01*
X83319640Y-61631358D01*
X83319645Y-61630951D01*
X83328620Y-61631060D01*
X83337490Y-61632441D01*
X83346390Y-61631277D01*
X83346392Y-61631277D01*
X83369044Y-61628314D01*
X83385385Y-61627250D01*
X86216378Y-61627250D01*
X86284499Y-61647252D01*
G37*
%TD.AperFunction*%
%TA.AperFunction,Conductor*%
G36*
X110221121Y-79197252D02*
G01*
X110267614Y-79250908D01*
X110279000Y-79303250D01*
X110279000Y-80521134D01*
X110283475Y-80536373D01*
X110284865Y-80537578D01*
X110292548Y-80539249D01*
X110769669Y-80539249D01*
X110776490Y-80538879D01*
X110827352Y-80533355D01*
X110842604Y-80529729D01*
X110963054Y-80484574D01*
X110978648Y-80476036D01*
X111049018Y-80423297D01*
X111115524Y-80398449D01*
X111184907Y-80413502D01*
X111200148Y-80423297D01*
X111278295Y-80481865D01*
X111414684Y-80532995D01*
X111473764Y-80539413D01*
X111476866Y-80539750D01*
X111476742Y-80540889D01*
X111539234Y-80562961D01*
X111582768Y-80619044D01*
X111591500Y-80665134D01*
X111591500Y-81135405D01*
X111571498Y-81203526D01*
X111554595Y-81224500D01*
X110817220Y-81961875D01*
X110754908Y-81995901D01*
X110684093Y-81990836D01*
X110639030Y-81961875D01*
X109431500Y-80754345D01*
X109397474Y-80692033D01*
X109402539Y-80621218D01*
X109445086Y-80564382D01*
X109511606Y-80539571D01*
X109520595Y-80539250D01*
X109752885Y-80539250D01*
X109768124Y-80534775D01*
X109769329Y-80533385D01*
X109771000Y-80525702D01*
X109771000Y-79303250D01*
X109791002Y-79235129D01*
X109844658Y-79188636D01*
X109897000Y-79177250D01*
X110153000Y-79177250D01*
X110221121Y-79197252D01*
G37*
%TD.AperFunction*%
%TD*%
M02*
