%TF.GenerationSoftware,KiCad,Pcbnew,(6.0.10)*%
%TF.CreationDate,2023-01-31T01:35:29-07:00*%
%TF.ProjectId,nepcropad,6e657063-726f-4706-9164-2e6b69636164,rev?*%
%TF.SameCoordinates,Original*%
%TF.FileFunction,Legend,Bot*%
%TF.FilePolarity,Positive*%
%FSLAX46Y46*%
G04 Gerber Fmt 4.6, Leading zero omitted, Abs format (unit mm)*
G04 Created by KiCad (PCBNEW (6.0.10)) date 2023-01-31 01:35:29*
%MOMM*%
%LPD*%
G01*
G04 APERTURE LIST*
G04 Aperture macros list*
%AMRoundRect*
0 Rectangle with rounded corners*
0 $1 Rounding radius*
0 $2 $3 $4 $5 $6 $7 $8 $9 X,Y pos of 4 corners*
0 Add a 4 corners polygon primitive as box body*
4,1,4,$2,$3,$4,$5,$6,$7,$8,$9,$2,$3,0*
0 Add four circle primitives for the rounded corners*
1,1,$1+$1,$2,$3*
1,1,$1+$1,$4,$5*
1,1,$1+$1,$6,$7*
1,1,$1+$1,$8,$9*
0 Add four rect primitives between the rounded corners*
20,1,$1+$1,$2,$3,$4,$5,0*
20,1,$1+$1,$4,$5,$6,$7,0*
20,1,$1+$1,$6,$7,$8,$9,0*
20,1,$1+$1,$8,$9,$2,$3,0*%
%AMHorizOval*
0 Thick line with rounded ends*
0 $1 width*
0 $2 $3 position (X,Y) of the first rounded end (center of the circle)*
0 $4 $5 position (X,Y) of the second rounded end (center of the circle)*
0 Add line between two ends*
20,1,$1,$2,$3,$4,$5,0*
0 Add two circle primitives to create the rounded ends*
1,1,$1,$2,$3*
1,1,$1,$4,$5*%
%AMRotRect*
0 Rectangle, with rotation*
0 The origin of the aperture is its center*
0 $1 length*
0 $2 width*
0 $3 Rotation angle, in degrees counterclockwise*
0 Add horizontal line*
21,1,$1,$2,0,0,$3*%
G04 Aperture macros list end*
%ADD10C,0.150000*%
%ADD11C,0.100000*%
%ADD12C,0.120000*%
%ADD13C,0.020000*%
%ADD14RoundRect,0.250000X0.450000X-0.262500X0.450000X0.262500X-0.450000X0.262500X-0.450000X-0.262500X0*%
%ADD15C,0.670000*%
%ADD16R,0.250000X1.450000*%
%ADD17R,0.300000X1.450000*%
%ADD18RoundRect,0.500000X0.000000X-0.600000X0.000000X-0.600000X0.000000X0.600000X0.000000X0.600000X0*%
%ADD19RoundRect,0.500000X0.000000X-0.300000X0.000000X-0.300000X0.000000X0.300000X0.000000X0.300000X0*%
%ADD20C,1.750000*%
%ADD21C,3.987800*%
%ADD22HorizOval,2.250000X0.655001X0.730000X-0.655001X-0.730000X0*%
%ADD23C,2.250000*%
%ADD24HorizOval,2.250000X0.020000X0.290000X-0.020000X-0.290000X0*%
%ADD25RoundRect,0.250000X0.250000X0.475000X-0.250000X0.475000X-0.250000X-0.475000X0.250000X-0.475000X0*%
%ADD26R,0.900000X1.200000*%
%ADD27R,1.200000X0.900000*%
%ADD28RoundRect,0.250000X0.512652X0.159099X0.159099X0.512652X-0.512652X-0.159099X-0.159099X-0.512652X0*%
%ADD29RoundRect,0.250000X-0.450000X0.262500X-0.450000X-0.262500X0.450000X-0.262500X0.450000X0.262500X0*%
%ADD30RoundRect,0.250000X-0.375000X-0.625000X0.375000X-0.625000X0.375000X0.625000X-0.375000X0.625000X0*%
%ADD31R,1.800000X1.100000*%
%ADD32RoundRect,0.250000X-0.262500X-0.450000X0.262500X-0.450000X0.262500X0.450000X-0.262500X0.450000X0*%
%ADD33RoundRect,0.250000X-0.512652X-0.159099X-0.159099X-0.512652X0.512652X0.159099X0.159099X0.512652X0*%
%ADD34RotRect,1.500000X0.550000X315.000000*%
%ADD35RotRect,1.500000X0.550000X225.000000*%
%ADD36RoundRect,0.250000X-0.250000X-0.475000X0.250000X-0.475000X0.250000X0.475000X-0.250000X0.475000X0*%
%ADD37RotRect,1.400000X1.200000X135.000000*%
%ADD38RoundRect,0.250000X-0.159099X0.512652X-0.512652X0.159099X0.159099X-0.512652X0.512652X-0.159099X0*%
%ADD39RoundRect,0.250000X-0.475000X0.250000X-0.475000X-0.250000X0.475000X-0.250000X0.475000X0.250000X0*%
G04 APERTURE END LIST*
D10*
%TO.C,R5*%
X136786880Y-62539583D02*
X136310690Y-62206250D01*
X136786880Y-61968154D02*
X135786880Y-61968154D01*
X135786880Y-62349107D01*
X135834500Y-62444345D01*
X135882119Y-62491964D01*
X135977357Y-62539583D01*
X136120214Y-62539583D01*
X136215452Y-62491964D01*
X136263071Y-62444345D01*
X136310690Y-62349107D01*
X136310690Y-61968154D01*
X135786880Y-63444345D02*
X135786880Y-62968154D01*
X136263071Y-62920535D01*
X136215452Y-62968154D01*
X136167833Y-63063392D01*
X136167833Y-63301488D01*
X136215452Y-63396726D01*
X136263071Y-63444345D01*
X136358309Y-63491964D01*
X136596404Y-63491964D01*
X136691642Y-63444345D01*
X136739261Y-63396726D01*
X136786880Y-63301488D01*
X136786880Y-63063392D01*
X136739261Y-62968154D01*
X136691642Y-62920535D01*
D11*
%TO.C,J1*%
X145374190Y-57909404D02*
X145374190Y-58480833D01*
X145412285Y-58595119D01*
X145488476Y-58671309D01*
X145602762Y-58709404D01*
X145678952Y-58709404D01*
X144574190Y-58709404D02*
X145031333Y-58709404D01*
X144802762Y-58709404D02*
X144802762Y-57909404D01*
X144878952Y-58023690D01*
X144955143Y-58099880D01*
X145031333Y-58137976D01*
D10*
%TO.C,C8*%
X165927066Y-68683142D02*
X165974685Y-68730761D01*
X166117542Y-68778380D01*
X166212780Y-68778380D01*
X166355638Y-68730761D01*
X166450876Y-68635523D01*
X166498495Y-68540285D01*
X166546114Y-68349809D01*
X166546114Y-68206952D01*
X166498495Y-68016476D01*
X166450876Y-67921238D01*
X166355638Y-67826000D01*
X166212780Y-67778380D01*
X166117542Y-67778380D01*
X165974685Y-67826000D01*
X165927066Y-67873619D01*
X165355638Y-68206952D02*
X165450876Y-68159333D01*
X165498495Y-68111714D01*
X165546114Y-68016476D01*
X165546114Y-67968857D01*
X165498495Y-67873619D01*
X165450876Y-67826000D01*
X165355638Y-67778380D01*
X165165161Y-67778380D01*
X165069923Y-67826000D01*
X165022304Y-67873619D01*
X164974685Y-67968857D01*
X164974685Y-68016476D01*
X165022304Y-68111714D01*
X165069923Y-68159333D01*
X165165161Y-68206952D01*
X165355638Y-68206952D01*
X165450876Y-68254571D01*
X165498495Y-68302190D01*
X165546114Y-68397428D01*
X165546114Y-68587904D01*
X165498495Y-68683142D01*
X165450876Y-68730761D01*
X165355638Y-68778380D01*
X165165161Y-68778380D01*
X165069923Y-68730761D01*
X165022304Y-68683142D01*
X164974685Y-68587904D01*
X164974685Y-68397428D01*
X165022304Y-68302190D01*
X165069923Y-68254571D01*
X165165161Y-68206952D01*
%TO.C,D2*%
X162536095Y-64492380D02*
X162536095Y-63492380D01*
X162298000Y-63492380D01*
X162155142Y-63540000D01*
X162059904Y-63635238D01*
X162012285Y-63730476D01*
X161964666Y-63920952D01*
X161964666Y-64063809D01*
X162012285Y-64254285D01*
X162059904Y-64349523D01*
X162155142Y-64444761D01*
X162298000Y-64492380D01*
X162536095Y-64492380D01*
X161583714Y-63587619D02*
X161536095Y-63540000D01*
X161440857Y-63492380D01*
X161202761Y-63492380D01*
X161107523Y-63540000D01*
X161059904Y-63587619D01*
X161012285Y-63682857D01*
X161012285Y-63778095D01*
X161059904Y-63920952D01*
X161631333Y-64492380D01*
X161012285Y-64492380D01*
%TO.C,R6*%
X135929666Y-60777380D02*
X136263000Y-60301190D01*
X136501095Y-60777380D02*
X136501095Y-59777380D01*
X136120142Y-59777380D01*
X136024904Y-59825000D01*
X135977285Y-59872619D01*
X135929666Y-59967857D01*
X135929666Y-60110714D01*
X135977285Y-60205952D01*
X136024904Y-60253571D01*
X136120142Y-60301190D01*
X136501095Y-60301190D01*
X135072523Y-59777380D02*
X135263000Y-59777380D01*
X135358238Y-59825000D01*
X135405857Y-59872619D01*
X135501095Y-60015476D01*
X135548714Y-60205952D01*
X135548714Y-60586904D01*
X135501095Y-60682142D01*
X135453476Y-60729761D01*
X135358238Y-60777380D01*
X135167761Y-60777380D01*
X135072523Y-60729761D01*
X135024904Y-60682142D01*
X134977285Y-60586904D01*
X134977285Y-60348809D01*
X135024904Y-60253571D01*
X135072523Y-60205952D01*
X135167761Y-60158333D01*
X135358238Y-60158333D01*
X135453476Y-60205952D01*
X135501095Y-60253571D01*
X135548714Y-60348809D01*
%TO.C,D5*%
X162028095Y-96718380D02*
X162028095Y-95718380D01*
X161790000Y-95718380D01*
X161647142Y-95766000D01*
X161551904Y-95861238D01*
X161504285Y-95956476D01*
X161456666Y-96146952D01*
X161456666Y-96289809D01*
X161504285Y-96480285D01*
X161551904Y-96575523D01*
X161647142Y-96670761D01*
X161790000Y-96718380D01*
X162028095Y-96718380D01*
X160551904Y-95718380D02*
X161028095Y-95718380D01*
X161075714Y-96194571D01*
X161028095Y-96146952D01*
X160932857Y-96099333D01*
X160694761Y-96099333D01*
X160599523Y-96146952D01*
X160551904Y-96194571D01*
X160504285Y-96289809D01*
X160504285Y-96527904D01*
X160551904Y-96623142D01*
X160599523Y-96670761D01*
X160694761Y-96718380D01*
X160932857Y-96718380D01*
X161028095Y-96670761D01*
X161075714Y-96623142D01*
%TO.C,D4*%
X143486095Y-94178380D02*
X143486095Y-93178380D01*
X143248000Y-93178380D01*
X143105142Y-93226000D01*
X143009904Y-93321238D01*
X142962285Y-93416476D01*
X142914666Y-93606952D01*
X142914666Y-93749809D01*
X142962285Y-93940285D01*
X143009904Y-94035523D01*
X143105142Y-94130761D01*
X143248000Y-94178380D01*
X143486095Y-94178380D01*
X142057523Y-93511714D02*
X142057523Y-94178380D01*
X142295619Y-93130761D02*
X142533714Y-93845047D01*
X141914666Y-93845047D01*
%TO.C,C3*%
X157868687Y-69479610D02*
X157868687Y-69412267D01*
X157801343Y-69277580D01*
X157734000Y-69210236D01*
X157599312Y-69142893D01*
X157464625Y-69142893D01*
X157363610Y-69176564D01*
X157195251Y-69277580D01*
X157094236Y-69378595D01*
X156993221Y-69546954D01*
X156959549Y-69647969D01*
X156959549Y-69782656D01*
X157026893Y-69917343D01*
X157094236Y-69984687D01*
X157228923Y-70052030D01*
X157296267Y-70052030D01*
X157464625Y-70355076D02*
X157902358Y-70792809D01*
X157936030Y-70287732D01*
X158037045Y-70388748D01*
X158138061Y-70422419D01*
X158205404Y-70422419D01*
X158306419Y-70388748D01*
X158474778Y-70220389D01*
X158508450Y-70119374D01*
X158508450Y-70052030D01*
X158474778Y-69951015D01*
X158272748Y-69748984D01*
X158171732Y-69715312D01*
X158104389Y-69715312D01*
%TO.C,D6*%
X181586095Y-94178380D02*
X181586095Y-93178380D01*
X181348000Y-93178380D01*
X181205142Y-93226000D01*
X181109904Y-93321238D01*
X181062285Y-93416476D01*
X181014666Y-93606952D01*
X181014666Y-93749809D01*
X181062285Y-93940285D01*
X181109904Y-94035523D01*
X181205142Y-94130761D01*
X181348000Y-94178380D01*
X181586095Y-94178380D01*
X180157523Y-93178380D02*
X180348000Y-93178380D01*
X180443238Y-93226000D01*
X180490857Y-93273619D01*
X180586095Y-93416476D01*
X180633714Y-93606952D01*
X180633714Y-93987904D01*
X180586095Y-94083142D01*
X180538476Y-94130761D01*
X180443238Y-94178380D01*
X180252761Y-94178380D01*
X180157523Y-94130761D01*
X180109904Y-94083142D01*
X180062285Y-93987904D01*
X180062285Y-93749809D01*
X180109904Y-93654571D01*
X180157523Y-93606952D01*
X180252761Y-93559333D01*
X180443238Y-93559333D01*
X180538476Y-93606952D01*
X180586095Y-93654571D01*
X180633714Y-93749809D01*
%TO.C,R2*%
X146216666Y-74112380D02*
X146550000Y-73636190D01*
X146788095Y-74112380D02*
X146788095Y-73112380D01*
X146407142Y-73112380D01*
X146311904Y-73160000D01*
X146264285Y-73207619D01*
X146216666Y-73302857D01*
X146216666Y-73445714D01*
X146264285Y-73540952D01*
X146311904Y-73588571D01*
X146407142Y-73636190D01*
X146788095Y-73636190D01*
X145835714Y-73207619D02*
X145788095Y-73160000D01*
X145692857Y-73112380D01*
X145454761Y-73112380D01*
X145359523Y-73160000D01*
X145311904Y-73207619D01*
X145264285Y-73302857D01*
X145264285Y-73398095D01*
X145311904Y-73540952D01*
X145883333Y-74112380D01*
X145264285Y-74112380D01*
%TO.C,D7*%
X143740095Y-112974380D02*
X143740095Y-111974380D01*
X143502000Y-111974380D01*
X143359142Y-112022000D01*
X143263904Y-112117238D01*
X143216285Y-112212476D01*
X143168666Y-112402952D01*
X143168666Y-112545809D01*
X143216285Y-112736285D01*
X143263904Y-112831523D01*
X143359142Y-112926761D01*
X143502000Y-112974380D01*
X143740095Y-112974380D01*
X142835333Y-111974380D02*
X142168666Y-111974380D01*
X142597238Y-112974380D01*
%TO.C,R3*%
X143676666Y-74112380D02*
X144010000Y-73636190D01*
X144248095Y-74112380D02*
X144248095Y-73112380D01*
X143867142Y-73112380D01*
X143771904Y-73160000D01*
X143724285Y-73207619D01*
X143676666Y-73302857D01*
X143676666Y-73445714D01*
X143724285Y-73540952D01*
X143771904Y-73588571D01*
X143867142Y-73636190D01*
X144248095Y-73636190D01*
X143343333Y-73112380D02*
X142724285Y-73112380D01*
X143057619Y-73493333D01*
X142914761Y-73493333D01*
X142819523Y-73540952D01*
X142771904Y-73588571D01*
X142724285Y-73683809D01*
X142724285Y-73921904D01*
X142771904Y-74017142D01*
X142819523Y-74064761D01*
X142914761Y-74112380D01*
X143200476Y-74112380D01*
X143295714Y-74064761D01*
X143343333Y-74017142D01*
%TO.C,F1*%
X155273333Y-59533571D02*
X155606666Y-59533571D01*
X155606666Y-60057380D02*
X155606666Y-59057380D01*
X155130476Y-59057380D01*
X154225714Y-60057380D02*
X154797142Y-60057380D01*
X154511428Y-60057380D02*
X154511428Y-59057380D01*
X154606666Y-59200238D01*
X154701904Y-59295476D01*
X154797142Y-59343095D01*
%TO.C,SW1*%
X178523733Y-63345961D02*
X178380876Y-63393580D01*
X178142780Y-63393580D01*
X178047542Y-63345961D01*
X177999923Y-63298342D01*
X177952304Y-63203104D01*
X177952304Y-63107866D01*
X177999923Y-63012628D01*
X178047542Y-62965009D01*
X178142780Y-62917390D01*
X178333257Y-62869771D01*
X178428495Y-62822152D01*
X178476114Y-62774533D01*
X178523733Y-62679295D01*
X178523733Y-62584057D01*
X178476114Y-62488819D01*
X178428495Y-62441200D01*
X178333257Y-62393580D01*
X178095161Y-62393580D01*
X177952304Y-62441200D01*
X177618971Y-62393580D02*
X177380876Y-63393580D01*
X177190400Y-62679295D01*
X176999923Y-63393580D01*
X176761828Y-62393580D01*
X175857066Y-63393580D02*
X176428495Y-63393580D01*
X176142780Y-63393580D02*
X176142780Y-62393580D01*
X176238019Y-62536438D01*
X176333257Y-62631676D01*
X176428495Y-62679295D01*
%TO.C,C7*%
X152503142Y-60031333D02*
X152550761Y-59983714D01*
X152598380Y-59840857D01*
X152598380Y-59745619D01*
X152550761Y-59602761D01*
X152455523Y-59507523D01*
X152360285Y-59459904D01*
X152169809Y-59412285D01*
X152026952Y-59412285D01*
X151836476Y-59459904D01*
X151741238Y-59507523D01*
X151646000Y-59602761D01*
X151598380Y-59745619D01*
X151598380Y-59840857D01*
X151646000Y-59983714D01*
X151693619Y-60031333D01*
X151598380Y-60364666D02*
X151598380Y-61031333D01*
X152598380Y-60602761D01*
%TO.C,R1*%
X167806666Y-63444380D02*
X168140000Y-62968190D01*
X168378095Y-63444380D02*
X168378095Y-62444380D01*
X167997142Y-62444380D01*
X167901904Y-62492000D01*
X167854285Y-62539619D01*
X167806666Y-62634857D01*
X167806666Y-62777714D01*
X167854285Y-62872952D01*
X167901904Y-62920571D01*
X167997142Y-62968190D01*
X168378095Y-62968190D01*
X166854285Y-63444380D02*
X167425714Y-63444380D01*
X167140000Y-63444380D02*
X167140000Y-62444380D01*
X167235238Y-62587238D01*
X167330476Y-62682476D01*
X167425714Y-62730095D01*
%TO.C,D1*%
X141962095Y-69794380D02*
X141962095Y-68794380D01*
X141724000Y-68794380D01*
X141581142Y-68842000D01*
X141485904Y-68937238D01*
X141438285Y-69032476D01*
X141390666Y-69222952D01*
X141390666Y-69365809D01*
X141438285Y-69556285D01*
X141485904Y-69651523D01*
X141581142Y-69746761D01*
X141724000Y-69794380D01*
X141962095Y-69794380D01*
X140438285Y-69794380D02*
X141009714Y-69794380D01*
X140724000Y-69794380D02*
X140724000Y-68794380D01*
X140819238Y-68937238D01*
X140914476Y-69032476D01*
X141009714Y-69080095D01*
%TO.C,D3*%
X181586095Y-68270380D02*
X181586095Y-67270380D01*
X181348000Y-67270380D01*
X181205142Y-67318000D01*
X181109904Y-67413238D01*
X181062285Y-67508476D01*
X181014666Y-67698952D01*
X181014666Y-67841809D01*
X181062285Y-68032285D01*
X181109904Y-68127523D01*
X181205142Y-68222761D01*
X181348000Y-68270380D01*
X181586095Y-68270380D01*
X180681333Y-67270380D02*
X180062285Y-67270380D01*
X180395619Y-67651333D01*
X180252761Y-67651333D01*
X180157523Y-67698952D01*
X180109904Y-67746571D01*
X180062285Y-67841809D01*
X180062285Y-68079904D01*
X180109904Y-68175142D01*
X180157523Y-68222761D01*
X180252761Y-68270380D01*
X180538476Y-68270380D01*
X180633714Y-68222761D01*
X180681333Y-68175142D01*
%TO.C,C5*%
X159087887Y-87920010D02*
X159087887Y-87852667D01*
X159020543Y-87717980D01*
X158953200Y-87650636D01*
X158818512Y-87583293D01*
X158683825Y-87583293D01*
X158582810Y-87616964D01*
X158414451Y-87717980D01*
X158313436Y-87818995D01*
X158212421Y-87987354D01*
X158178749Y-88088369D01*
X158178749Y-88223056D01*
X158246093Y-88357743D01*
X158313436Y-88425087D01*
X158448123Y-88492430D01*
X158515467Y-88492430D01*
X159087887Y-89199537D02*
X158751169Y-88862819D01*
X159054215Y-88492430D01*
X159054215Y-88559774D01*
X159087887Y-88660789D01*
X159256245Y-88829148D01*
X159357261Y-88862819D01*
X159424604Y-88862819D01*
X159525619Y-88829148D01*
X159693978Y-88660789D01*
X159727650Y-88559774D01*
X159727650Y-88492430D01*
X159693978Y-88391415D01*
X159525619Y-88223056D01*
X159424604Y-88189384D01*
X159357261Y-88189384D01*
%TO.C,U1*%
X157318580Y-83856423D02*
X157891000Y-83284003D01*
X157992015Y-83250331D01*
X158059359Y-83250331D01*
X158160374Y-83284003D01*
X158295061Y-83418690D01*
X158328733Y-83519705D01*
X158328733Y-83587049D01*
X158295061Y-83688064D01*
X157722641Y-84260484D01*
X159136855Y-84260484D02*
X158732794Y-83856423D01*
X158934824Y-84058453D02*
X158227718Y-84765560D01*
X158261389Y-84597201D01*
X158261389Y-84462514D01*
X158227718Y-84361499D01*
%TO.C,C4*%
X175464742Y-82027733D02*
X175512361Y-81980114D01*
X175559980Y-81837257D01*
X175559980Y-81742019D01*
X175512361Y-81599161D01*
X175417123Y-81503923D01*
X175321885Y-81456304D01*
X175131409Y-81408685D01*
X174988552Y-81408685D01*
X174798076Y-81456304D01*
X174702838Y-81503923D01*
X174607600Y-81599161D01*
X174559980Y-81742019D01*
X174559980Y-81837257D01*
X174607600Y-81980114D01*
X174655219Y-82027733D01*
X174893314Y-82884876D02*
X175559980Y-82884876D01*
X174512361Y-82646780D02*
X175226647Y-82408685D01*
X175226647Y-83027733D01*
%TO.C,D8*%
X162790095Y-113228380D02*
X162790095Y-112228380D01*
X162552000Y-112228380D01*
X162409142Y-112276000D01*
X162313904Y-112371238D01*
X162266285Y-112466476D01*
X162218666Y-112656952D01*
X162218666Y-112799809D01*
X162266285Y-112990285D01*
X162313904Y-113085523D01*
X162409142Y-113180761D01*
X162552000Y-113228380D01*
X162790095Y-113228380D01*
X161647238Y-112656952D02*
X161742476Y-112609333D01*
X161790095Y-112561714D01*
X161837714Y-112466476D01*
X161837714Y-112418857D01*
X161790095Y-112323619D01*
X161742476Y-112276000D01*
X161647238Y-112228380D01*
X161456761Y-112228380D01*
X161361523Y-112276000D01*
X161313904Y-112323619D01*
X161266285Y-112418857D01*
X161266285Y-112466476D01*
X161313904Y-112561714D01*
X161361523Y-112609333D01*
X161456761Y-112656952D01*
X161647238Y-112656952D01*
X161742476Y-112704571D01*
X161790095Y-112752190D01*
X161837714Y-112847428D01*
X161837714Y-113037904D01*
X161790095Y-113133142D01*
X161742476Y-113180761D01*
X161647238Y-113228380D01*
X161456761Y-113228380D01*
X161361523Y-113180761D01*
X161313904Y-113133142D01*
X161266285Y-113037904D01*
X161266285Y-112847428D01*
X161313904Y-112752190D01*
X161361523Y-112704571D01*
X161456761Y-112656952D01*
%TO.C,C2*%
X179601896Y-75741447D02*
X179601896Y-75674104D01*
X179534552Y-75539417D01*
X179467209Y-75472073D01*
X179332521Y-75404730D01*
X179197834Y-75404730D01*
X179096819Y-75438401D01*
X178928460Y-75539417D01*
X178827445Y-75640432D01*
X178726430Y-75808791D01*
X178692758Y-75909806D01*
X178692758Y-76044493D01*
X178760102Y-76179180D01*
X178827445Y-76246524D01*
X178962132Y-76313867D01*
X179029476Y-76313867D01*
X179298850Y-76583241D02*
X179298850Y-76650585D01*
X179332521Y-76751600D01*
X179500880Y-76919959D01*
X179601896Y-76953630D01*
X179669239Y-76953630D01*
X179770254Y-76919959D01*
X179837598Y-76852615D01*
X179904941Y-76717928D01*
X179904941Y-75909806D01*
X180342674Y-76347539D01*
%TO.C,Y1*%
X173179246Y-77658118D02*
X173515964Y-77321400D01*
X172573155Y-77792805D02*
X173179246Y-77658118D01*
X173044559Y-78264209D01*
X174357757Y-78163194D02*
X173953696Y-77759133D01*
X174155727Y-77961164D02*
X173448620Y-78668270D01*
X173482292Y-78499912D01*
X173482292Y-78365225D01*
X173448620Y-78264209D01*
%TO.C,R4*%
X163996666Y-91638380D02*
X164330000Y-91162190D01*
X164568095Y-91638380D02*
X164568095Y-90638380D01*
X164187142Y-90638380D01*
X164091904Y-90686000D01*
X164044285Y-90733619D01*
X163996666Y-90828857D01*
X163996666Y-90971714D01*
X164044285Y-91066952D01*
X164091904Y-91114571D01*
X164187142Y-91162190D01*
X164568095Y-91162190D01*
X163139523Y-90971714D02*
X163139523Y-91638380D01*
X163377619Y-90590761D02*
X163615714Y-91305047D01*
X162996666Y-91305047D01*
%TO.C,C1*%
X176062355Y-80452094D02*
X176129698Y-80452094D01*
X176264385Y-80384750D01*
X176331729Y-80317407D01*
X176399072Y-80182719D01*
X176399072Y-80048032D01*
X176365401Y-79947017D01*
X176264385Y-79778658D01*
X176163370Y-79677643D01*
X175995011Y-79576628D01*
X175893996Y-79542956D01*
X175759309Y-79542956D01*
X175624622Y-79610300D01*
X175557278Y-79677643D01*
X175489935Y-79812330D01*
X175489935Y-79879674D01*
X175456263Y-81192872D02*
X175860324Y-80788811D01*
X175658294Y-80990842D02*
X174951187Y-80283735D01*
X175119546Y-80317407D01*
X175254233Y-80317407D01*
X175355248Y-80283735D01*
%TO.C,C6*%
X153074666Y-81637142D02*
X153122285Y-81684761D01*
X153265142Y-81732380D01*
X153360380Y-81732380D01*
X153503238Y-81684761D01*
X153598476Y-81589523D01*
X153646095Y-81494285D01*
X153693714Y-81303809D01*
X153693714Y-81160952D01*
X153646095Y-80970476D01*
X153598476Y-80875238D01*
X153503238Y-80780000D01*
X153360380Y-80732380D01*
X153265142Y-80732380D01*
X153122285Y-80780000D01*
X153074666Y-80827619D01*
X152217523Y-80732380D02*
X152408000Y-80732380D01*
X152503238Y-80780000D01*
X152550857Y-80827619D01*
X152646095Y-80970476D01*
X152693714Y-81160952D01*
X152693714Y-81541904D01*
X152646095Y-81637142D01*
X152598476Y-81684761D01*
X152503238Y-81732380D01*
X152312761Y-81732380D01*
X152217523Y-81684761D01*
X152169904Y-81637142D01*
X152122285Y-81541904D01*
X152122285Y-81303809D01*
X152169904Y-81208571D01*
X152217523Y-81160952D01*
X152312761Y-81113333D01*
X152503238Y-81113333D01*
X152598476Y-81160952D01*
X152646095Y-81208571D01*
X152693714Y-81303809D01*
%TO.C,D9*%
X181840095Y-112974380D02*
X181840095Y-111974380D01*
X181602000Y-111974380D01*
X181459142Y-112022000D01*
X181363904Y-112117238D01*
X181316285Y-112212476D01*
X181268666Y-112402952D01*
X181268666Y-112545809D01*
X181316285Y-112736285D01*
X181363904Y-112831523D01*
X181459142Y-112926761D01*
X181602000Y-112974380D01*
X181840095Y-112974380D01*
X180792476Y-112974380D02*
X180602000Y-112974380D01*
X180506761Y-112926761D01*
X180459142Y-112879142D01*
X180363904Y-112736285D01*
X180316285Y-112545809D01*
X180316285Y-112164857D01*
X180363904Y-112069619D01*
X180411523Y-112022000D01*
X180506761Y-111974380D01*
X180697238Y-111974380D01*
X180792476Y-112022000D01*
X180840095Y-112069619D01*
X180887714Y-112164857D01*
X180887714Y-112402952D01*
X180840095Y-112498190D01*
X180792476Y-112545809D01*
X180697238Y-112593428D01*
X180506761Y-112593428D01*
X180411523Y-112545809D01*
X180363904Y-112498190D01*
X180316285Y-112402952D01*
D12*
%TO.C,R5*%
X138847500Y-62933314D02*
X138847500Y-62479186D01*
X137377500Y-62933314D02*
X137377500Y-62479186D01*
D11*
%TO.C,J1*%
X149507524Y-53597500D02*
X140707524Y-53597500D01*
X140707524Y-60697500D02*
X140707524Y-53597500D01*
X149307524Y-54697500D02*
X140907524Y-54697500D01*
X140707524Y-60697500D02*
X149507524Y-60697500D01*
X149507524Y-60697500D02*
X149507524Y-53597500D01*
D13*
X145107524Y-60217500D02*
X145107524Y-53897500D01*
D12*
%TO.C,C8*%
X163329252Y-67489400D02*
X162806748Y-67489400D01*
X163329252Y-68959400D02*
X162806748Y-68959400D01*
%TO.C,D2*%
X164048000Y-65040000D02*
X164048000Y-67040000D01*
X164048000Y-65040000D02*
X160148000Y-65040000D01*
X164048000Y-67040000D02*
X160148000Y-67040000D01*
%TO.C,R6*%
X135155000Y-57885064D02*
X135155000Y-57430936D01*
X136625000Y-57885064D02*
X136625000Y-57430936D01*
%TO.C,D5*%
X160290000Y-95214000D02*
X160290000Y-91314000D01*
X162290000Y-95214000D02*
X162290000Y-91314000D01*
X162290000Y-95214000D02*
X160290000Y-95214000D01*
%TO.C,D4*%
X143875000Y-92737500D02*
X143875000Y-88837500D01*
X143875000Y-92737500D02*
X141875000Y-92737500D01*
X141875000Y-92737500D02*
X141875000Y-88837500D01*
%TO.C,C3*%
X159962457Y-68499010D02*
X159592990Y-68129543D01*
X158923010Y-69538457D02*
X158553543Y-69168990D01*
%TO.C,D6*%
X181975000Y-92737500D02*
X181975000Y-88837500D01*
X181975000Y-92737500D02*
X179975000Y-92737500D01*
X179975000Y-92737500D02*
X179975000Y-88837500D01*
%TO.C,R2*%
X146785000Y-70892936D02*
X146785000Y-71347064D01*
X145315000Y-70892936D02*
X145315000Y-71347064D01*
%TO.C,D7*%
X143875000Y-111787500D02*
X143875000Y-107887500D01*
X143875000Y-111787500D02*
X141875000Y-111787500D01*
X141875000Y-111787500D02*
X141875000Y-107887500D01*
%TO.C,R3*%
X142775000Y-70892936D02*
X142775000Y-71347064D01*
X144245000Y-70892936D02*
X144245000Y-71347064D01*
%TO.C,F1*%
X154337936Y-56875000D02*
X155542064Y-56875000D01*
X154337936Y-58695000D02*
X155542064Y-58695000D01*
D10*
%TO.C,SW1*%
X174184000Y-62036000D02*
X179384000Y-62036000D01*
X179384000Y-56836000D02*
X174184000Y-56836000D01*
X179384000Y-62036000D02*
X179384000Y-56836000D01*
X174184000Y-56836000D02*
X174184000Y-62036000D01*
X177784000Y-59436000D02*
G75*
G03*
X177784000Y-59436000I-1000000J0D01*
G01*
D12*
%TO.C,C7*%
X154947252Y-60933000D02*
X154424748Y-60933000D01*
X154947252Y-59463000D02*
X154424748Y-59463000D01*
%TO.C,R1*%
X167412936Y-60225000D02*
X167867064Y-60225000D01*
X167412936Y-61695000D02*
X167867064Y-61695000D01*
%TO.C,D1*%
X143474000Y-66310000D02*
X143474000Y-68310000D01*
X143474000Y-68310000D02*
X139574000Y-68310000D01*
X143474000Y-66310000D02*
X139574000Y-66310000D01*
%TO.C,D3*%
X181975000Y-73116000D02*
X181975000Y-69216000D01*
X181975000Y-73116000D02*
X179975000Y-73116000D01*
X179975000Y-73116000D02*
X179975000Y-69216000D01*
%TO.C,C5*%
X160608990Y-86417543D02*
X160978457Y-86787010D01*
X159569543Y-87456990D02*
X159939010Y-87826457D01*
D10*
%TO.C,U1*%
X163512500Y-71421445D02*
X163035203Y-71898742D01*
X163512500Y-86058555D02*
X163035203Y-85581258D01*
X170831055Y-78740000D02*
X170353758Y-78262703D01*
X163512500Y-86058555D02*
X163989797Y-85581258D01*
X156600531Y-78333414D02*
X155698970Y-77431852D01*
X156193945Y-78740000D02*
X156671242Y-79217297D01*
X156193945Y-78740000D02*
X156600531Y-78333414D01*
X163512500Y-71421445D02*
X163989797Y-71898742D01*
X170831055Y-78740000D02*
X170353758Y-79217297D01*
D12*
%TO.C,C4*%
X172306348Y-81459400D02*
X172828852Y-81459400D01*
X172306348Y-82929400D02*
X172828852Y-82929400D01*
%TO.C,D8*%
X162925000Y-111787500D02*
X160925000Y-111787500D01*
X162925000Y-111787500D02*
X162925000Y-107887500D01*
X160925000Y-111787500D02*
X160925000Y-107887500D01*
%TO.C,C2*%
X178250457Y-73833010D02*
X177880990Y-73463543D01*
X177211010Y-74872457D02*
X176841543Y-74502990D01*
%TO.C,Y1*%
X177840940Y-76447487D02*
X175507487Y-78780940D01*
X175507487Y-78780940D02*
X172679060Y-75952513D01*
%TO.C,R4*%
X163094936Y-90143000D02*
X163549064Y-90143000D01*
X163094936Y-88673000D02*
X163549064Y-88673000D01*
%TO.C,C1*%
X178250457Y-78820990D02*
X177880990Y-79190457D01*
X177211010Y-77781543D02*
X176841543Y-78151010D01*
%TO.C,C6*%
X153643000Y-78478748D02*
X153643000Y-79001252D01*
X152173000Y-78478748D02*
X152173000Y-79001252D01*
%TO.C,D9*%
X179975000Y-111787500D02*
X179975000Y-107887500D01*
X181975000Y-111787500D02*
X181975000Y-107887500D01*
X181975000Y-111787500D02*
X179975000Y-111787500D01*
%TD*%
%LPC*%
D14*
%TO.C,R5*%
X138112500Y-63618750D03*
X138112500Y-61793750D03*
%TD*%
D15*
%TO.C,J1*%
X148007524Y-59847500D03*
X142207524Y-59847500D03*
D16*
X141732524Y-61297500D03*
X142532524Y-61297500D03*
X143857524Y-61297500D03*
X144857524Y-61297500D03*
X145357524Y-61297500D03*
X146357524Y-61297500D03*
X147682524Y-61297500D03*
X148482524Y-61297500D03*
D17*
X148207524Y-61297500D03*
X147407524Y-61297500D03*
D16*
X146857524Y-61297500D03*
X145857524Y-61297500D03*
X144357524Y-61297500D03*
X143357524Y-61297500D03*
D17*
X142807524Y-61297500D03*
X142007524Y-61297500D03*
D18*
X149427524Y-60377500D03*
D19*
X140787524Y-56197500D03*
D18*
X140787524Y-60377500D03*
D19*
X149427524Y-56197500D03*
%TD*%
D20*
%TO.C,MX7*%
X129857500Y-109537500D03*
X140017500Y-109537500D03*
D21*
X134937500Y-109537500D03*
D22*
X131782501Y-106267500D03*
D23*
X132437500Y-105537500D03*
X137477500Y-104457500D03*
D24*
X137457500Y-104747500D03*
%TD*%
D20*
%TO.C,MX4*%
X140017500Y-90487500D03*
D21*
X134937500Y-90487500D03*
D20*
X129857500Y-90487500D03*
D23*
X132437500Y-86487500D03*
D22*
X131782501Y-87217500D03*
D24*
X137457500Y-85697500D03*
D23*
X137477500Y-85407500D03*
%TD*%
D21*
%TO.C,MX6*%
X173037500Y-90487500D03*
D20*
X167957500Y-90487500D03*
X178117500Y-90487500D03*
D23*
X170537500Y-86487500D03*
D22*
X169882501Y-87217500D03*
D24*
X175557500Y-85697500D03*
D23*
X175577500Y-85407500D03*
%TD*%
D21*
%TO.C,MX8*%
X153987500Y-109537500D03*
D20*
X159067500Y-109537500D03*
X148907500Y-109537500D03*
D22*
X150832501Y-106267500D03*
D23*
X151487500Y-105537500D03*
X156527500Y-104457500D03*
D24*
X156507500Y-104747500D03*
%TD*%
D20*
%TO.C,MX2*%
X148907500Y-71437500D03*
D21*
X153987500Y-71437500D03*
D20*
X159067500Y-71437500D03*
D22*
X150832501Y-68167500D03*
D23*
X151487500Y-67437500D03*
X156527500Y-66357500D03*
D24*
X156507500Y-66647500D03*
%TD*%
D20*
%TO.C,MX3*%
X178117500Y-71437500D03*
D21*
X173037500Y-71437500D03*
D20*
X167957500Y-71437500D03*
D23*
X170537500Y-67437500D03*
D22*
X169882501Y-68167500D03*
D24*
X175557500Y-66647500D03*
D23*
X175577500Y-66357500D03*
%TD*%
D20*
%TO.C,MX1*%
X140017500Y-71437500D03*
X129857500Y-71437500D03*
D21*
X134937500Y-71437500D03*
D22*
X131782501Y-68167500D03*
D23*
X132437500Y-67437500D03*
X137477500Y-66357500D03*
D24*
X137457500Y-66647500D03*
%TD*%
D21*
%TO.C,MX9*%
X173037500Y-109537500D03*
D20*
X167957500Y-109537500D03*
X178117500Y-109537500D03*
D22*
X169882501Y-106267500D03*
D23*
X170537500Y-105537500D03*
D24*
X175557500Y-104747500D03*
D23*
X175577500Y-104457500D03*
%TD*%
D20*
%TO.C,MX5*%
X148907500Y-90487500D03*
X159067500Y-90487500D03*
D21*
X153987500Y-90487500D03*
D22*
X150832501Y-87217500D03*
D23*
X151487500Y-86487500D03*
X156527500Y-85407500D03*
D24*
X156507500Y-85697500D03*
%TD*%
D25*
%TO.C,C8*%
X164018000Y-68224400D03*
X162118000Y-68224400D03*
%TD*%
D26*
%TO.C,D2*%
X163448000Y-66040000D03*
X160148000Y-66040000D03*
%TD*%
D14*
%TO.C,R6*%
X135890000Y-58570500D03*
X135890000Y-56745500D03*
%TD*%
D27*
%TO.C,D5*%
X161290000Y-94614000D03*
X161290000Y-91314000D03*
%TD*%
%TO.C,D4*%
X142875000Y-92137500D03*
X142875000Y-88837500D03*
%TD*%
D28*
%TO.C,C3*%
X159929751Y-69505751D03*
X158586249Y-68162249D03*
%TD*%
D27*
%TO.C,D6*%
X180975000Y-92137500D03*
X180975000Y-88837500D03*
%TD*%
D29*
%TO.C,R2*%
X146050000Y-70207500D03*
X146050000Y-72032500D03*
%TD*%
D27*
%TO.C,D7*%
X142875000Y-111187500D03*
X142875000Y-107887500D03*
%TD*%
D29*
%TO.C,R3*%
X143510000Y-70207500D03*
X143510000Y-72032500D03*
%TD*%
D30*
%TO.C,F1*%
X153540000Y-57785000D03*
X156340000Y-57785000D03*
%TD*%
D31*
%TO.C,SW1*%
X173684000Y-61286000D03*
X179884000Y-57586000D03*
X173684000Y-57586000D03*
X179884000Y-61286000D03*
%TD*%
D25*
%TO.C,C7*%
X155636000Y-60198000D03*
X153736000Y-60198000D03*
%TD*%
D32*
%TO.C,R1*%
X166727500Y-60960000D03*
X168552500Y-60960000D03*
%TD*%
D26*
%TO.C,D1*%
X142874000Y-67310000D03*
X139574000Y-67310000D03*
%TD*%
D27*
%TO.C,D3*%
X180975000Y-72516000D03*
X180975000Y-69216000D03*
%TD*%
D33*
%TO.C,C5*%
X159602249Y-86450249D03*
X160945751Y-87793751D03*
%TD*%
D34*
%TO.C,U1*%
X156653564Y-77537918D03*
X157219250Y-76972233D03*
X157784935Y-76406548D03*
X158350620Y-75840862D03*
X158916306Y-75275177D03*
X159481991Y-74709491D03*
X160047677Y-74143806D03*
X160613362Y-73578120D03*
X161179048Y-73012435D03*
X161744733Y-72446750D03*
X162310418Y-71881064D03*
D35*
X164714582Y-71881064D03*
X165280267Y-72446750D03*
X165845952Y-73012435D03*
X166411638Y-73578120D03*
X166977323Y-74143806D03*
X167543009Y-74709491D03*
X168108694Y-75275177D03*
X168674380Y-75840862D03*
X169240065Y-76406548D03*
X169805750Y-76972233D03*
X170371436Y-77537918D03*
D34*
X170371436Y-79942082D03*
X169805750Y-80507767D03*
X169240065Y-81073452D03*
X168674380Y-81639138D03*
X168108694Y-82204823D03*
X167543009Y-82770509D03*
X166977323Y-83336194D03*
X166411638Y-83901880D03*
X165845952Y-84467565D03*
X165280267Y-85033250D03*
X164714582Y-85598936D03*
D35*
X162310418Y-85598936D03*
X161744733Y-85033250D03*
X161179048Y-84467565D03*
X160613362Y-83901880D03*
X160047677Y-83336194D03*
X159481991Y-82770509D03*
X158916306Y-82204823D03*
X158350620Y-81639138D03*
X157784935Y-81073452D03*
X157219250Y-80507767D03*
X156653564Y-79942082D03*
%TD*%
D36*
%TO.C,C4*%
X171617600Y-82194400D03*
X173517600Y-82194400D03*
%TD*%
D27*
%TO.C,D8*%
X161925000Y-111187500D03*
X161925000Y-107887500D03*
%TD*%
D28*
%TO.C,C2*%
X178217751Y-74839751D03*
X176874249Y-73496249D03*
%TD*%
D37*
%TO.C,Y1*%
X175436777Y-77578858D03*
X173881142Y-76023223D03*
X175083223Y-74821142D03*
X176638858Y-76376777D03*
%TD*%
D32*
%TO.C,R4*%
X162409500Y-89408000D03*
X164234500Y-89408000D03*
%TD*%
D38*
%TO.C,C1*%
X178217751Y-77814249D03*
X176874249Y-79157751D03*
%TD*%
D39*
%TO.C,C6*%
X152908000Y-77790000D03*
X152908000Y-79690000D03*
%TD*%
D27*
%TO.C,D9*%
X180975000Y-111187500D03*
X180975000Y-107887500D03*
%TD*%
M02*
