M48
; DRILL file {KiCad (6.0.9)} date Wed 30 Nov 2022 04:05:43 PM MST
; FORMAT={-:-/ absolute / inch / decimal}
; #@! TF.CreationDate,2022-11-30T16:05:43-07:00
; #@! TF.GenerationSoftware,Kicad,Pcbnew,(6.0.9)
; #@! TF.FileFunction,NonPlated,1,2,NPTH
FMAT,2
INCH
; #@! TA.AperFunction,NonPlated,NPTH,ComponentDrill
T1C0.0689
; #@! TA.AperFunction,NonPlated,NPTH,ComponentDrill
T2C0.1570
%
G90
G05
T1
X5.1125Y-2.8125
X5.1125Y-3.5625
X5.1125Y-4.3125
X5.5125Y-2.8125
X5.5125Y-3.5625
X5.5125Y-4.3125
X5.8625Y-2.8125
X5.8625Y-3.5625
X5.8625Y-4.3125
X6.2625Y-2.8125
X6.2625Y-3.5625
X6.2625Y-4.3125
X6.6125Y-2.8125
X6.6125Y-3.5625
X6.6125Y-4.3125
X7.0125Y-2.8125
X7.0125Y-3.5625
X7.0125Y-4.3125
T2
X5.3125Y-2.8125
X5.3125Y-3.5625
X5.3125Y-4.3125
X6.0625Y-2.8125
X6.0625Y-3.5625
X6.0625Y-4.3125
X6.8125Y-2.8125
X6.8125Y-3.5625
X6.8125Y-4.3125
T0
M30
