%TF.GenerationSoftware,KiCad,Pcbnew,(6.0.10)*%
%TF.CreationDate,2023-01-31T01:35:29-07:00*%
%TF.ProjectId,nepcropad,6e657063-726f-4706-9164-2e6b69636164,rev?*%
%TF.SameCoordinates,Original*%
%TF.FileFunction,Legend,Top*%
%TF.FilePolarity,Positive*%
%FSLAX46Y46*%
G04 Gerber Fmt 4.6, Leading zero omitted, Abs format (unit mm)*
G04 Created by KiCad (PCBNEW (6.0.10)) date 2023-01-31 01:35:29*
%MOMM*%
%LPD*%
G01*
G04 APERTURE LIST*
G04 Aperture macros list*
%AMRoundRect*
0 Rectangle with rounded corners*
0 $1 Rounding radius*
0 $2 $3 $4 $5 $6 $7 $8 $9 X,Y pos of 4 corners*
0 Add a 4 corners polygon primitive as box body*
4,1,4,$2,$3,$4,$5,$6,$7,$8,$9,$2,$3,0*
0 Add four circle primitives for the rounded corners*
1,1,$1+$1,$2,$3*
1,1,$1+$1,$4,$5*
1,1,$1+$1,$6,$7*
1,1,$1+$1,$8,$9*
0 Add four rect primitives between the rounded corners*
20,1,$1+$1,$2,$3,$4,$5,0*
20,1,$1+$1,$4,$5,$6,$7,0*
20,1,$1+$1,$6,$7,$8,$9,0*
20,1,$1+$1,$8,$9,$2,$3,0*%
G04 Aperture macros list end*
%ADD10C,0.300000*%
%ADD11C,0.670000*%
%ADD12RoundRect,0.500000X0.000000X-0.600000X0.000000X-0.600000X0.000000X0.600000X0.000000X0.600000X0*%
%ADD13RoundRect,0.500000X0.000000X-0.300000X0.000000X-0.300000X0.000000X0.300000X0.000000X0.300000X0*%
%ADD14C,1.750000*%
%ADD15C,3.987800*%
G04 APERTURE END LIST*
D10*
X132776785Y-118598000D02*
X132705357Y-118526571D01*
X132562500Y-118312285D01*
X132491071Y-118169428D01*
X132419642Y-117955142D01*
X132348214Y-117598000D01*
X132348214Y-117312285D01*
X132419642Y-116955142D01*
X132491071Y-116740857D01*
X132562500Y-116598000D01*
X132705357Y-116383714D01*
X132776785Y-116312285D01*
X134205357Y-117883714D02*
X134133928Y-117955142D01*
X133919642Y-118026571D01*
X133776785Y-118026571D01*
X133562500Y-117955142D01*
X133419642Y-117812285D01*
X133348214Y-117669428D01*
X133276785Y-117383714D01*
X133276785Y-117169428D01*
X133348214Y-116883714D01*
X133419642Y-116740857D01*
X133562500Y-116598000D01*
X133776785Y-116526571D01*
X133919642Y-116526571D01*
X134133928Y-116598000D01*
X134205357Y-116669428D01*
X134705357Y-118598000D02*
X134776785Y-118526571D01*
X134919642Y-118312285D01*
X134991071Y-118169428D01*
X135062500Y-117955142D01*
X135133928Y-117598000D01*
X135133928Y-117312285D01*
X135062500Y-116955142D01*
X134991071Y-116740857D01*
X134919642Y-116598000D01*
X134776785Y-116383714D01*
X134705357Y-116312285D01*
X136991071Y-118026571D02*
X136991071Y-116526571D01*
X137848214Y-118026571D01*
X137848214Y-116526571D01*
X139133928Y-117955142D02*
X138991071Y-118026571D01*
X138705357Y-118026571D01*
X138562500Y-117955142D01*
X138491071Y-117812285D01*
X138491071Y-117240857D01*
X138562500Y-117098000D01*
X138705357Y-117026571D01*
X138991071Y-117026571D01*
X139133928Y-117098000D01*
X139205357Y-117240857D01*
X139205357Y-117383714D01*
X138491071Y-117526571D01*
X139848214Y-117026571D02*
X139848214Y-118526571D01*
X139848214Y-117098000D02*
X139991071Y-117026571D01*
X140276785Y-117026571D01*
X140419642Y-117098000D01*
X140491071Y-117169428D01*
X140562500Y-117312285D01*
X140562500Y-117740857D01*
X140491071Y-117883714D01*
X140419642Y-117955142D01*
X140276785Y-118026571D01*
X139991071Y-118026571D01*
X139848214Y-117955142D01*
X140991071Y-117026571D02*
X141562500Y-117026571D01*
X141205357Y-116526571D02*
X141205357Y-117812285D01*
X141276785Y-117955142D01*
X141419642Y-118026571D01*
X141562500Y-118026571D01*
X142705357Y-117026571D02*
X142705357Y-118026571D01*
X142062500Y-117026571D02*
X142062500Y-117812285D01*
X142133928Y-117955142D01*
X142276785Y-118026571D01*
X142491071Y-118026571D01*
X142633928Y-117955142D01*
X142705357Y-117883714D01*
X143419642Y-117026571D02*
X143419642Y-118026571D01*
X143419642Y-117169428D02*
X143491071Y-117098000D01*
X143633928Y-117026571D01*
X143848214Y-117026571D01*
X143991071Y-117098000D01*
X144062500Y-117240857D01*
X144062500Y-118026571D01*
X145348214Y-117955142D02*
X145205357Y-118026571D01*
X144919642Y-118026571D01*
X144776785Y-117955142D01*
X144705357Y-117812285D01*
X144705357Y-117240857D01*
X144776785Y-117098000D01*
X144919642Y-117026571D01*
X145205357Y-117026571D01*
X145348214Y-117098000D01*
X145419642Y-117240857D01*
X145419642Y-117383714D01*
X144705357Y-117526571D01*
X148419642Y-118026571D02*
X148348214Y-118026571D01*
X148205357Y-117955142D01*
X147991071Y-117740857D01*
X147633928Y-117312285D01*
X147491071Y-117098000D01*
X147419642Y-116883714D01*
X147419642Y-116740857D01*
X147491071Y-116598000D01*
X147633928Y-116526571D01*
X147705357Y-116526571D01*
X147848214Y-116598000D01*
X147919642Y-116740857D01*
X147919642Y-116812285D01*
X147848214Y-116955142D01*
X147776785Y-117026571D01*
X147348214Y-117312285D01*
X147276785Y-117383714D01*
X147205357Y-117526571D01*
X147205357Y-117740857D01*
X147276785Y-117883714D01*
X147348214Y-117955142D01*
X147491071Y-118026571D01*
X147705357Y-118026571D01*
X147848214Y-117955142D01*
X147919642Y-117883714D01*
X148133928Y-117598000D01*
X148205357Y-117383714D01*
X148205357Y-117240857D01*
X150062500Y-116526571D02*
X150419642Y-118026571D01*
X150705357Y-116955142D01*
X150991071Y-118026571D01*
X151348214Y-116526571D01*
X152562500Y-118026571D02*
X152562500Y-117240857D01*
X152491071Y-117098000D01*
X152348214Y-117026571D01*
X152062500Y-117026571D01*
X151919642Y-117098000D01*
X152562500Y-117955142D02*
X152419642Y-118026571D01*
X152062500Y-118026571D01*
X151919642Y-117955142D01*
X151848214Y-117812285D01*
X151848214Y-117669428D01*
X151919642Y-117526571D01*
X152062500Y-117455142D01*
X152419642Y-117455142D01*
X152562500Y-117383714D01*
X153919642Y-117026571D02*
X153919642Y-118240857D01*
X153848214Y-118383714D01*
X153776785Y-118455142D01*
X153633928Y-118526571D01*
X153419642Y-118526571D01*
X153276785Y-118455142D01*
X153919642Y-117955142D02*
X153776785Y-118026571D01*
X153491071Y-118026571D01*
X153348214Y-117955142D01*
X153276785Y-117883714D01*
X153205357Y-117740857D01*
X153205357Y-117312285D01*
X153276785Y-117169428D01*
X153348214Y-117098000D01*
X153491071Y-117026571D01*
X153776785Y-117026571D01*
X153919642Y-117098000D01*
X154491071Y-117026571D02*
X154848214Y-118026571D01*
X155205357Y-117026571D02*
X154848214Y-118026571D01*
X154705357Y-118383714D01*
X154633928Y-118455142D01*
X154491071Y-118526571D01*
X155991071Y-118026571D02*
X155848214Y-117955142D01*
X155776785Y-117883714D01*
X155705357Y-117740857D01*
X155705357Y-117312285D01*
X155776785Y-117169428D01*
X155848214Y-117098000D01*
X155991071Y-117026571D01*
X156205357Y-117026571D01*
X156348214Y-117098000D01*
X156419642Y-117169428D01*
X156491071Y-117312285D01*
X156491071Y-117740857D01*
X156419642Y-117883714D01*
X156348214Y-117955142D01*
X156205357Y-118026571D01*
X155991071Y-118026571D01*
X157776785Y-117026571D02*
X157776785Y-118026571D01*
X157133928Y-117026571D02*
X157133928Y-117812285D01*
X157205357Y-117955142D01*
X157348214Y-118026571D01*
X157562500Y-118026571D01*
X157705357Y-117955142D01*
X157776785Y-117883714D01*
X158491071Y-118026571D02*
X158491071Y-117026571D01*
X158491071Y-117312285D02*
X158562500Y-117169428D01*
X158633928Y-117098000D01*
X158776785Y-117026571D01*
X158919642Y-117026571D01*
X159205357Y-117026571D02*
X159776785Y-117026571D01*
X159419642Y-116526571D02*
X159419642Y-117812285D01*
X159491071Y-117955142D01*
X159633928Y-118026571D01*
X159776785Y-118026571D01*
X160919642Y-118026571D02*
X160919642Y-117240857D01*
X160848214Y-117098000D01*
X160705357Y-117026571D01*
X160419642Y-117026571D01*
X160276785Y-117098000D01*
X160919642Y-117955142D02*
X160776785Y-118026571D01*
X160419642Y-118026571D01*
X160276785Y-117955142D01*
X160205357Y-117812285D01*
X160205357Y-117669428D01*
X160276785Y-117526571D01*
X160419642Y-117455142D01*
X160776785Y-117455142D01*
X160919642Y-117383714D01*
X161633928Y-118026571D02*
X161633928Y-117026571D01*
X161633928Y-116526571D02*
X161562500Y-116598000D01*
X161633928Y-116669428D01*
X161705357Y-116598000D01*
X161633928Y-116526571D01*
X161633928Y-116669428D01*
X162562500Y-118026571D02*
X162419642Y-117955142D01*
X162348214Y-117812285D01*
X162348214Y-116526571D01*
X164205357Y-116669428D02*
X164276785Y-116598000D01*
X164419642Y-116526571D01*
X164776785Y-116526571D01*
X164919642Y-116598000D01*
X164991071Y-116669428D01*
X165062500Y-116812285D01*
X165062500Y-116955142D01*
X164991071Y-117169428D01*
X164133928Y-118026571D01*
X165062500Y-118026571D01*
X165991071Y-116526571D02*
X166133928Y-116526571D01*
X166276785Y-116598000D01*
X166348214Y-116669428D01*
X166419642Y-116812285D01*
X166491071Y-117098000D01*
X166491071Y-117455142D01*
X166419642Y-117740857D01*
X166348214Y-117883714D01*
X166276785Y-117955142D01*
X166133928Y-118026571D01*
X165991071Y-118026571D01*
X165848214Y-117955142D01*
X165776785Y-117883714D01*
X165705357Y-117740857D01*
X165633928Y-117455142D01*
X165633928Y-117098000D01*
X165705357Y-116812285D01*
X165776785Y-116669428D01*
X165848214Y-116598000D01*
X165991071Y-116526571D01*
X167062500Y-116669428D02*
X167133928Y-116598000D01*
X167276785Y-116526571D01*
X167633928Y-116526571D01*
X167776785Y-116598000D01*
X167848214Y-116669428D01*
X167919642Y-116812285D01*
X167919642Y-116955142D01*
X167848214Y-117169428D01*
X166991071Y-118026571D01*
X167919642Y-118026571D01*
X168419642Y-116526571D02*
X169348214Y-116526571D01*
X168848214Y-117098000D01*
X169062500Y-117098000D01*
X169205357Y-117169428D01*
X169276785Y-117240857D01*
X169348214Y-117383714D01*
X169348214Y-117740857D01*
X169276785Y-117883714D01*
X169205357Y-117955142D01*
X169062500Y-118026571D01*
X168633928Y-118026571D01*
X168491071Y-117955142D01*
X168419642Y-117883714D01*
%LPC*%
D11*
%TO.C,J1*%
X148007524Y-59847500D03*
X142207524Y-59847500D03*
D12*
X149427524Y-60377500D03*
D13*
X140787524Y-56197500D03*
D12*
X140787524Y-60377500D03*
D13*
X149427524Y-56197500D03*
%TD*%
D14*
%TO.C,MX7*%
X129857500Y-109537500D03*
X140017500Y-109537500D03*
D15*
X134937500Y-109537500D03*
%TD*%
D14*
%TO.C,MX4*%
X140017500Y-90487500D03*
D15*
X134937500Y-90487500D03*
D14*
X129857500Y-90487500D03*
%TD*%
D15*
%TO.C,MX6*%
X173037500Y-90487500D03*
D14*
X167957500Y-90487500D03*
X178117500Y-90487500D03*
%TD*%
D15*
%TO.C,MX8*%
X153987500Y-109537500D03*
D14*
X159067500Y-109537500D03*
X148907500Y-109537500D03*
%TD*%
%TO.C,MX2*%
X148907500Y-71437500D03*
D15*
X153987500Y-71437500D03*
D14*
X159067500Y-71437500D03*
%TD*%
%TO.C,MX3*%
X178117500Y-71437500D03*
D15*
X173037500Y-71437500D03*
D14*
X167957500Y-71437500D03*
%TD*%
%TO.C,MX1*%
X140017500Y-71437500D03*
X129857500Y-71437500D03*
D15*
X134937500Y-71437500D03*
%TD*%
%TO.C,MX9*%
X173037500Y-109537500D03*
D14*
X167957500Y-109537500D03*
X178117500Y-109537500D03*
%TD*%
%TO.C,MX5*%
X148907500Y-90487500D03*
X159067500Y-90487500D03*
D15*
X153987500Y-90487500D03*
%TD*%
M02*
