%TF.GenerationSoftware,KiCad,Pcbnew,(6.0.10)*%
%TF.CreationDate,2023-01-31T16:13:37-07:00*%
%TF.ProjectId,nepcropad,6e657063-726f-4706-9164-2e6b69636164,rev?*%
%TF.SameCoordinates,Original*%
%TF.FileFunction,Soldermask,Bot*%
%TF.FilePolarity,Negative*%
%FSLAX46Y46*%
G04 Gerber Fmt 4.6, Leading zero omitted, Abs format (unit mm)*
G04 Created by KiCad (PCBNEW (6.0.10)) date 2023-01-31 16:13:37*
%MOMM*%
%LPD*%
G01*
G04 APERTURE LIST*
G04 Aperture macros list*
%AMRoundRect*
0 Rectangle with rounded corners*
0 $1 Rounding radius*
0 $2 $3 $4 $5 $6 $7 $8 $9 X,Y pos of 4 corners*
0 Add a 4 corners polygon primitive as box body*
4,1,4,$2,$3,$4,$5,$6,$7,$8,$9,$2,$3,0*
0 Add four circle primitives for the rounded corners*
1,1,$1+$1,$2,$3*
1,1,$1+$1,$4,$5*
1,1,$1+$1,$6,$7*
1,1,$1+$1,$8,$9*
0 Add four rect primitives between the rounded corners*
20,1,$1+$1,$2,$3,$4,$5,0*
20,1,$1+$1,$4,$5,$6,$7,0*
20,1,$1+$1,$6,$7,$8,$9,0*
20,1,$1+$1,$8,$9,$2,$3,0*%
%AMHorizOval*
0 Thick line with rounded ends*
0 $1 width*
0 $2 $3 position (X,Y) of the first rounded end (center of the circle)*
0 $4 $5 position (X,Y) of the second rounded end (center of the circle)*
0 Add line between two ends*
20,1,$1,$2,$3,$4,$5,0*
0 Add two circle primitives to create the rounded ends*
1,1,$1,$2,$3*
1,1,$1,$4,$5*%
%AMRotRect*
0 Rectangle, with rotation*
0 The origin of the aperture is its center*
0 $1 length*
0 $2 width*
0 $3 Rotation angle, in degrees counterclockwise*
0 Add horizontal line*
21,1,$1,$2,0,0,$3*%
G04 Aperture macros list end*
%ADD10C,1.750000*%
%ADD11C,3.987800*%
%ADD12HorizOval,2.250000X0.655001X0.730000X-0.655001X-0.730000X0*%
%ADD13C,2.250000*%
%ADD14HorizOval,2.250000X0.020000X0.290000X-0.020000X-0.290000X0*%
%ADD15RoundRect,0.250000X0.250000X0.475000X-0.250000X0.475000X-0.250000X-0.475000X0.250000X-0.475000X0*%
%ADD16R,0.900000X1.200000*%
%ADD17RoundRect,0.250000X0.450000X-0.262500X0.450000X0.262500X-0.450000X0.262500X-0.450000X-0.262500X0*%
%ADD18R,1.200000X0.900000*%
%ADD19RoundRect,0.250000X0.512652X0.159099X0.159099X0.512652X-0.512652X-0.159099X-0.159099X-0.512652X0*%
%ADD20RoundRect,0.250000X-0.450000X0.262500X-0.450000X-0.262500X0.450000X-0.262500X0.450000X0.262500X0*%
%ADD21RoundRect,0.250000X-0.375000X-0.625000X0.375000X-0.625000X0.375000X0.625000X-0.375000X0.625000X0*%
%ADD22C,0.670000*%
%ADD23R,0.250000X1.450000*%
%ADD24R,0.300000X1.450000*%
%ADD25RoundRect,0.500000X0.000000X-0.600000X0.000000X-0.600000X0.000000X0.600000X0.000000X0.600000X0*%
%ADD26RoundRect,0.500000X0.000000X-0.300000X0.000000X-0.300000X0.000000X0.300000X0.000000X0.300000X0*%
%ADD27R,1.800000X1.100000*%
%ADD28RoundRect,0.250000X-0.262500X-0.450000X0.262500X-0.450000X0.262500X0.450000X-0.262500X0.450000X0*%
%ADD29RoundRect,0.250000X-0.512652X-0.159099X-0.159099X-0.512652X0.512652X0.159099X0.159099X0.512652X0*%
%ADD30RoundRect,0.012000X0.442649X-0.247487X-0.247487X0.442649X-0.442649X0.247487X0.247487X-0.442649X0*%
%ADD31RoundRect,0.012000X-0.247487X-0.442649X0.442649X0.247487X0.247487X0.442649X-0.442649X-0.247487X0*%
%ADD32RoundRect,0.012000X-0.442649X0.247487X0.247487X-0.442649X0.442649X-0.247487X-0.247487X0.442649X0*%
%ADD33RoundRect,0.012000X0.247487X0.442649X-0.442649X-0.247487X-0.247487X-0.442649X0.442649X0.247487X0*%
%ADD34RoundRect,1.270000X-1.796051X0.000000X0.000000X-1.796051X1.796051X0.000000X0.000000X1.796051X0*%
%ADD35RoundRect,0.250000X-0.250000X-0.475000X0.250000X-0.475000X0.250000X0.475000X-0.250000X0.475000X0*%
%ADD36RotRect,1.400000X1.200000X135.000000*%
%ADD37RoundRect,0.250000X-0.159099X0.512652X-0.512652X0.159099X0.159099X-0.512652X0.512652X-0.159099X0*%
%ADD38RoundRect,0.250000X-0.475000X0.250000X-0.475000X-0.250000X0.475000X-0.250000X0.475000X0.250000X0*%
G04 APERTURE END LIST*
D10*
%TO.C,MX7*%
X129857500Y-109537500D03*
X140017500Y-109537500D03*
D11*
X134937500Y-109537500D03*
D12*
X131782501Y-106267500D03*
D13*
X132437500Y-105537500D03*
X137477500Y-104457500D03*
D14*
X137457500Y-104747500D03*
%TD*%
D10*
%TO.C,MX4*%
X140017500Y-90487500D03*
D11*
X134937500Y-90487500D03*
D10*
X129857500Y-90487500D03*
D13*
X132437500Y-86487500D03*
D12*
X131782501Y-87217500D03*
D14*
X137457500Y-85697500D03*
D13*
X137477500Y-85407500D03*
%TD*%
D11*
%TO.C,MX6*%
X173037500Y-90487500D03*
D10*
X167957500Y-90487500D03*
X178117500Y-90487500D03*
D13*
X170537500Y-86487500D03*
D12*
X169882501Y-87217500D03*
D14*
X175557500Y-85697500D03*
D13*
X175577500Y-85407500D03*
%TD*%
D11*
%TO.C,MX8*%
X153987500Y-109537500D03*
D10*
X159067500Y-109537500D03*
X148907500Y-109537500D03*
D12*
X150832501Y-106267500D03*
D13*
X151487500Y-105537500D03*
X156527500Y-104457500D03*
D14*
X156507500Y-104747500D03*
%TD*%
D10*
%TO.C,MX2*%
X148907500Y-71437500D03*
D11*
X153987500Y-71437500D03*
D10*
X159067500Y-71437500D03*
D12*
X150832501Y-68167500D03*
D13*
X151487500Y-67437500D03*
X156527500Y-66357500D03*
D14*
X156507500Y-66647500D03*
%TD*%
D10*
%TO.C,MX3*%
X178117500Y-71437500D03*
D11*
X173037500Y-71437500D03*
D10*
X167957500Y-71437500D03*
D13*
X170537500Y-67437500D03*
D12*
X169882501Y-68167500D03*
D14*
X175557500Y-66647500D03*
D13*
X175577500Y-66357500D03*
%TD*%
D10*
%TO.C,MX1*%
X140017500Y-71437500D03*
X129857500Y-71437500D03*
D11*
X134937500Y-71437500D03*
D12*
X131782501Y-68167500D03*
D13*
X132437500Y-67437500D03*
X137477500Y-66357500D03*
D14*
X137457500Y-66647500D03*
%TD*%
D11*
%TO.C,MX9*%
X173037500Y-109537500D03*
D10*
X167957500Y-109537500D03*
X178117500Y-109537500D03*
D12*
X169882501Y-106267500D03*
D13*
X170537500Y-105537500D03*
D14*
X175557500Y-104747500D03*
D13*
X175577500Y-104457500D03*
%TD*%
D10*
%TO.C,MX5*%
X148907500Y-90487500D03*
X159067500Y-90487500D03*
D11*
X153987500Y-90487500D03*
D12*
X150832501Y-87217500D03*
D13*
X151487500Y-86487500D03*
X156527500Y-85407500D03*
D14*
X156507500Y-85697500D03*
%TD*%
D15*
%TO.C,C8*%
X164018000Y-68224400D03*
X162118000Y-68224400D03*
%TD*%
D16*
%TO.C,D2*%
X163448000Y-66040000D03*
X160148000Y-66040000D03*
%TD*%
D17*
%TO.C,R6*%
X135890000Y-58570500D03*
X135890000Y-56745500D03*
%TD*%
D18*
%TO.C,D5*%
X161290000Y-94614000D03*
X161290000Y-91314000D03*
%TD*%
%TO.C,D4*%
X142875000Y-92137500D03*
X142875000Y-88837500D03*
%TD*%
D19*
%TO.C,C3*%
X159929751Y-69505751D03*
X158586249Y-68162249D03*
%TD*%
D18*
%TO.C,D6*%
X180975000Y-92137500D03*
X180975000Y-88837500D03*
%TD*%
D20*
%TO.C,R2*%
X146050000Y-70207500D03*
X146050000Y-72032500D03*
%TD*%
D18*
%TO.C,D7*%
X142875000Y-111187500D03*
X142875000Y-107887500D03*
%TD*%
D17*
%TO.C,R5*%
X138112500Y-63618750D03*
X138112500Y-61793750D03*
%TD*%
D20*
%TO.C,R3*%
X143510000Y-70207500D03*
X143510000Y-72032500D03*
%TD*%
D21*
%TO.C,F1*%
X153540000Y-57785000D03*
X156340000Y-57785000D03*
%TD*%
D22*
%TO.C,J1*%
X142207524Y-59847500D03*
X148007524Y-59847500D03*
D23*
X141732524Y-61297500D03*
X142532524Y-61297500D03*
X143857524Y-61297500D03*
X144857524Y-61297500D03*
X145357524Y-61297500D03*
X146357524Y-61297500D03*
X147682524Y-61297500D03*
X148482524Y-61297500D03*
D24*
X148207524Y-61297500D03*
X147407524Y-61297500D03*
D23*
X146857524Y-61297500D03*
X145857524Y-61297500D03*
X144357524Y-61297500D03*
X143357524Y-61297500D03*
D24*
X142807524Y-61297500D03*
X142007524Y-61297500D03*
D25*
X140787524Y-60377500D03*
X149427524Y-60377500D03*
D26*
X140787524Y-56197500D03*
X149427524Y-56197500D03*
%TD*%
D27*
%TO.C,SW1*%
X173684000Y-61286000D03*
X179884000Y-57586000D03*
X173684000Y-57586000D03*
X179884000Y-61286000D03*
%TD*%
D15*
%TO.C,C7*%
X155636000Y-60198000D03*
X153736000Y-60198000D03*
%TD*%
D28*
%TO.C,R1*%
X166727500Y-60960000D03*
X168552500Y-60960000D03*
%TD*%
D16*
%TO.C,D1*%
X142874000Y-67310000D03*
X139574000Y-67310000D03*
%TD*%
D18*
%TO.C,D3*%
X180975000Y-72516000D03*
X180975000Y-69216000D03*
%TD*%
D29*
%TO.C,C5*%
X159602249Y-86450249D03*
X160945751Y-87793751D03*
%TD*%
D30*
%TO.C,U1*%
X159375925Y-78138959D03*
X159729479Y-77785406D03*
X160083032Y-77431852D03*
X160436586Y-77078299D03*
X160790139Y-76724746D03*
X161143692Y-76371192D03*
X161497246Y-76017639D03*
X161850799Y-75664086D03*
X162204352Y-75310532D03*
X162557906Y-74956979D03*
X162911459Y-74603425D03*
D31*
X164113541Y-74603425D03*
X164467094Y-74956979D03*
X164820648Y-75310532D03*
X165174201Y-75664086D03*
X165527754Y-76017639D03*
X165881308Y-76371192D03*
X166234861Y-76724746D03*
X166588414Y-77078299D03*
X166941968Y-77431852D03*
X167295521Y-77785406D03*
X167649075Y-78138959D03*
D32*
X167649075Y-79341041D03*
X167295521Y-79694594D03*
X166941968Y-80048148D03*
X166588414Y-80401701D03*
X166234861Y-80755254D03*
X165881308Y-81108808D03*
X165527754Y-81462361D03*
X165174201Y-81815914D03*
X164820648Y-82169468D03*
X164467094Y-82523021D03*
X164113541Y-82876575D03*
D33*
X162911459Y-82876575D03*
X162557906Y-82523021D03*
X162204352Y-82169468D03*
X161850799Y-81815914D03*
X161497246Y-81462361D03*
X161143692Y-81108808D03*
X160790139Y-80755254D03*
X160436586Y-80401701D03*
X160083032Y-80048148D03*
X159729479Y-79694594D03*
X159375925Y-79341041D03*
D34*
X163512500Y-78740000D03*
%TD*%
D35*
%TO.C,C4*%
X171617600Y-82194400D03*
X173517600Y-82194400D03*
%TD*%
D18*
%TO.C,D8*%
X161925000Y-111187500D03*
X161925000Y-107887500D03*
%TD*%
D19*
%TO.C,C2*%
X178217751Y-74839751D03*
X176874249Y-73496249D03*
%TD*%
D36*
%TO.C,Y1*%
X175436777Y-77578858D03*
X173881142Y-76023223D03*
X175083223Y-74821142D03*
X176638858Y-76376777D03*
%TD*%
D28*
%TO.C,R4*%
X162409500Y-89408000D03*
X164234500Y-89408000D03*
%TD*%
D37*
%TO.C,C1*%
X178217751Y-77814249D03*
X176874249Y-79157751D03*
%TD*%
D38*
%TO.C,C6*%
X152908000Y-77790000D03*
X152908000Y-79690000D03*
%TD*%
D18*
%TO.C,D9*%
X180975000Y-111187500D03*
X180975000Y-107887500D03*
%TD*%
M02*
