M48
; DRILL file {KiCad (6.0.10)} date Tue 31 Jan 2023 04:13:46 PM MST
; FORMAT={-:-/ absolute / inch / decimal}
; #@! TF.CreationDate,2023-01-31T16:13:46-07:00
; #@! TF.GenerationSoftware,Kicad,Pcbnew,(6.0.10)
; #@! TF.FileFunction,NonPlated,1,2,NPTH
FMAT,2
INCH
; #@! TA.AperFunction,NonPlated,NPTH,ComponentDrill
T1C0.0256
; #@! TA.AperFunction,NonPlated,NPTH,ComponentDrill
T2C0.0689
; #@! TA.AperFunction,NonPlated,NPTH,ComponentDrill
T3C0.1570
%
G90
G05
T1
X5.5987Y-2.3562
X5.8271Y-2.3562
T2
X5.1125Y-2.8125
X5.1125Y-3.5625
X5.1125Y-4.3125
X5.5125Y-2.8125
X5.5125Y-3.5625
X5.5125Y-4.3125
X5.8625Y-2.8125
X5.8625Y-3.5625
X5.8625Y-4.3125
X6.2625Y-2.8125
X6.2625Y-3.5625
X6.2625Y-4.3125
X6.6125Y-2.8125
X6.6125Y-3.5625
X6.6125Y-4.3125
X7.0125Y-2.8125
X7.0125Y-3.5625
X7.0125Y-4.3125
T3
X5.3125Y-2.8125
X5.3125Y-3.5625
X5.3125Y-4.3125
X6.0625Y-2.8125
X6.0625Y-3.5625
X6.0625Y-4.3125
X6.8125Y-2.8125
X6.8125Y-3.5625
X6.8125Y-4.3125
T0
M30
