M48
; DRILL file {KiCad (6.0.10)} date Tue 31 Jan 2023 01:35:36 AM MST
; FORMAT={-:-/ absolute / inch / decimal}
; #@! TF.CreationDate,2023-01-31T01:35:36-07:00
; #@! TF.GenerationSoftware,Kicad,Pcbnew,(6.0.10)
; #@! TF.FileFunction,Plated,1,2,PTH
FMAT,2
INCH
; #@! TA.AperFunction,Plated,PTH,ViaDrill
T1C0.0157
; #@! TA.AperFunction,Plated,PTH,ComponentDrill
T2C0.0236
; #@! TA.AperFunction,Plated,PTH,ComponentDrill
T3C0.0579
%
G90
G05
T1
X5.445Y-2.3
X5.61Y-2.58
X5.62Y-2.5165
X5.79Y-2.605
X5.885Y-2.5
X5.97Y-2.295
X6.025Y-2.55
X6.135Y-3.095
X6.32Y-2.44
X6.43Y-3.425
X6.44Y-2.79
X6.55Y-2.6
X6.57Y-3.68
X6.57Y-3.78
X6.75Y-2.4
T3
X5.1625Y-2.7125
X5.1625Y-3.4625
X5.1625Y-4.2125
X5.2141Y-2.655
X5.2141Y-3.405
X5.2141Y-4.155
X5.4109Y-2.6353
X5.4109Y-3.3853
X5.4109Y-4.1353
X5.4125Y-2.6125
X5.4125Y-3.3625
X5.4125Y-4.1125
X5.9125Y-2.7125
X5.9125Y-3.4625
X5.9125Y-4.2125
X5.9641Y-2.655
X5.9641Y-3.405
X5.9641Y-4.155
X6.1609Y-2.6353
X6.1609Y-3.3853
X6.1609Y-4.1353
X6.1625Y-2.6125
X6.1625Y-3.3625
X6.1625Y-4.1125
X6.6625Y-2.7125
X6.6625Y-3.4625
X6.6625Y-4.2125
X6.7141Y-2.655
X6.7141Y-3.405
X6.7141Y-4.155
X6.9109Y-2.6353
X6.9109Y-3.3853
X6.9109Y-4.1353
X6.9125Y-2.6125
X6.9125Y-3.3625
X6.9125Y-4.1125
T2
G00X5.5428Y-2.2007
M15
G01X5.5428Y-2.2243
M16
G05
G00X5.5428Y-2.3554
M15
G01X5.5428Y-2.3987
M16
G05
G00X5.883Y-2.2007
M15
G01X5.883Y-2.2243
M16
G05
G00X5.883Y-2.3554
M15
G01X5.883Y-2.3987
M16
G05
T0
M30
