%TF.GenerationSoftware,KiCad,Pcbnew,(6.0.9)*%
%TF.CreationDate,2022-11-30T16:04:33-07:00*%
%TF.ProjectId,nepcropad,6e657063-726f-4706-9164-2e6b69636164,rev?*%
%TF.SameCoordinates,Original*%
%TF.FileFunction,Soldermask,Bot*%
%TF.FilePolarity,Negative*%
%FSLAX46Y46*%
G04 Gerber Fmt 4.6, Leading zero omitted, Abs format (unit mm)*
G04 Created by KiCad (PCBNEW (6.0.9)) date 2022-11-30 16:04:33*
%MOMM*%
%LPD*%
G01*
G04 APERTURE LIST*
G04 Aperture macros list*
%AMRoundRect*
0 Rectangle with rounded corners*
0 $1 Rounding radius*
0 $2 $3 $4 $5 $6 $7 $8 $9 X,Y pos of 4 corners*
0 Add a 4 corners polygon primitive as box body*
4,1,4,$2,$3,$4,$5,$6,$7,$8,$9,$2,$3,0*
0 Add four circle primitives for the rounded corners*
1,1,$1+$1,$2,$3*
1,1,$1+$1,$4,$5*
1,1,$1+$1,$6,$7*
1,1,$1+$1,$8,$9*
0 Add four rect primitives between the rounded corners*
20,1,$1+$1,$2,$3,$4,$5,0*
20,1,$1+$1,$4,$5,$6,$7,0*
20,1,$1+$1,$6,$7,$8,$9,0*
20,1,$1+$1,$8,$9,$2,$3,0*%
%AMHorizOval*
0 Thick line with rounded ends*
0 $1 width*
0 $2 $3 position (X,Y) of the first rounded end (center of the circle)*
0 $4 $5 position (X,Y) of the second rounded end (center of the circle)*
0 Add line between two ends*
20,1,$1,$2,$3,$4,$5,0*
0 Add two circle primitives to create the rounded ends*
1,1,$1,$2,$3*
1,1,$1,$4,$5*%
G04 Aperture macros list end*
%ADD10C,1.750000*%
%ADD11C,3.987800*%
%ADD12HorizOval,2.250000X0.655001X0.730000X-0.655001X-0.730000X0*%
%ADD13C,2.250000*%
%ADD14HorizOval,2.250000X0.020000X0.290000X-0.020000X-0.290000X0*%
%ADD15R,1.200000X0.900000*%
%ADD16RoundRect,0.250000X0.250000X0.475000X-0.250000X0.475000X-0.250000X-0.475000X0.250000X-0.475000X0*%
%ADD17RoundRect,0.250000X-0.450000X0.262500X-0.450000X-0.262500X0.450000X-0.262500X0.450000X0.262500X0*%
%ADD18RoundRect,0.250000X-0.625000X0.375000X-0.625000X-0.375000X0.625000X-0.375000X0.625000X0.375000X0*%
%ADD19R,0.500000X2.250000*%
%ADD20O,1.700000X2.700000*%
%ADD21R,1.800000X1.100000*%
%ADD22RoundRect,0.250000X-0.475000X0.250000X-0.475000X-0.250000X0.475000X-0.250000X0.475000X0.250000X0*%
%ADD23RoundRect,0.250000X0.475000X-0.250000X0.475000X0.250000X-0.475000X0.250000X-0.475000X-0.250000X0*%
%ADD24R,1.500000X0.550000*%
%ADD25R,0.550000X1.500000*%
%ADD26R,1.400000X1.200000*%
%ADD27RoundRect,0.250000X0.450000X-0.262500X0.450000X0.262500X-0.450000X0.262500X-0.450000X-0.262500X0*%
G04 APERTURE END LIST*
D10*
%TO.C,MX7*%
X129857500Y-109537500D03*
X140017500Y-109537500D03*
D11*
X134937500Y-109537500D03*
D12*
X131782501Y-106267500D03*
D13*
X132437500Y-105537500D03*
X137477500Y-104457500D03*
D14*
X137457500Y-104747500D03*
%TD*%
D11*
%TO.C,MX4*%
X134937500Y-90487500D03*
D10*
X140017500Y-90487500D03*
X129857500Y-90487500D03*
D13*
X132437500Y-86487500D03*
D12*
X131782501Y-87217500D03*
D13*
X137477500Y-85407500D03*
D14*
X137457500Y-85697500D03*
%TD*%
D10*
%TO.C,MX3*%
X167957500Y-71437500D03*
X178117500Y-71437500D03*
D11*
X173037500Y-71437500D03*
D13*
X170537500Y-67437500D03*
D12*
X169882501Y-68167500D03*
D14*
X175557500Y-66647500D03*
D13*
X175577500Y-66357500D03*
%TD*%
D10*
%TO.C,MX1*%
X140017500Y-71437500D03*
X129857500Y-71437500D03*
D11*
X134937500Y-71437500D03*
D13*
X132437500Y-67437500D03*
D12*
X131782501Y-68167500D03*
D14*
X137457500Y-66647500D03*
D13*
X137477500Y-66357500D03*
%TD*%
D10*
%TO.C,MX6*%
X167957500Y-90487500D03*
X178117500Y-90487500D03*
D11*
X173037500Y-90487500D03*
D13*
X170537500Y-86487500D03*
D12*
X169882501Y-87217500D03*
D14*
X175557500Y-85697500D03*
D13*
X175577500Y-85407500D03*
%TD*%
D10*
%TO.C,MX8*%
X148907500Y-109537500D03*
D11*
X153987500Y-109537500D03*
D10*
X159067500Y-109537500D03*
D12*
X150832501Y-106267500D03*
D13*
X151487500Y-105537500D03*
X156527500Y-104457500D03*
D14*
X156507500Y-104747500D03*
%TD*%
D10*
%TO.C,MX2*%
X159067500Y-71437500D03*
X148907500Y-71437500D03*
D11*
X153987500Y-71437500D03*
D12*
X150832501Y-68167500D03*
D13*
X151487500Y-67437500D03*
D14*
X156507500Y-66647500D03*
D13*
X156527500Y-66357500D03*
%TD*%
D10*
%TO.C,MX9*%
X167957500Y-109537500D03*
D11*
X173037500Y-109537500D03*
D10*
X178117500Y-109537500D03*
D13*
X170537500Y-105537500D03*
D12*
X169882501Y-106267500D03*
D14*
X175557500Y-104747500D03*
D13*
X175577500Y-104457500D03*
%TD*%
D10*
%TO.C,MX5*%
X159067500Y-90487500D03*
X148907500Y-90487500D03*
D11*
X153987500Y-90487500D03*
D13*
X151487500Y-86487500D03*
D12*
X150832501Y-87217500D03*
D14*
X156507500Y-85697500D03*
D13*
X156527500Y-85407500D03*
%TD*%
D15*
%TO.C,D2*%
X161925000Y-73150000D03*
X161925000Y-69850000D03*
%TD*%
%TO.C,D5*%
X161925000Y-92137500D03*
X161925000Y-88837500D03*
%TD*%
%TO.C,D4*%
X142875000Y-92137500D03*
X142875000Y-88837500D03*
%TD*%
D16*
%TO.C,C3*%
X102550000Y-89693750D03*
X100650000Y-89693750D03*
%TD*%
D15*
%TO.C,D6*%
X180975000Y-92137500D03*
X180975000Y-88837500D03*
%TD*%
D17*
%TO.C,R2*%
X92868750Y-71318750D03*
X92868750Y-73143750D03*
%TD*%
D15*
%TO.C,D7*%
X142875000Y-111187500D03*
X142875000Y-107887500D03*
%TD*%
D17*
%TO.C,R3*%
X88900000Y-71318750D03*
X88900000Y-73143750D03*
%TD*%
D18*
%TO.C,F1*%
X84931250Y-77975000D03*
X84931250Y-80775000D03*
%TD*%
D19*
%TO.C,USB1*%
X92881250Y-67206250D03*
X92081250Y-67206250D03*
X91281250Y-67206250D03*
X90481250Y-67206250D03*
X89681250Y-67206250D03*
D20*
X94931250Y-67206250D03*
X94931250Y-62706250D03*
X87631250Y-62706250D03*
X87631250Y-67206250D03*
%TD*%
D21*
%TO.C,SW1*%
X90562500Y-101068750D03*
X96762500Y-97368750D03*
X90562500Y-97368750D03*
X96762500Y-101068750D03*
%TD*%
D22*
%TO.C,C7*%
X101600000Y-97475000D03*
X101600000Y-99375000D03*
%TD*%
D17*
%TO.C,R1*%
X100012500Y-82431250D03*
X100012500Y-84256250D03*
%TD*%
D15*
%TO.C,D1*%
X142875000Y-73087500D03*
X142875000Y-69787500D03*
%TD*%
%TO.C,D3*%
X180975000Y-73087500D03*
X180975000Y-69787500D03*
%TD*%
D23*
%TO.C,C5*%
X120650000Y-87625000D03*
X120650000Y-85725000D03*
%TD*%
D24*
%TO.C,U1*%
X105425000Y-95281250D03*
X105425000Y-94481250D03*
X105425000Y-93681250D03*
X105425000Y-92881250D03*
X105425000Y-92081250D03*
X105425000Y-91281250D03*
X105425000Y-90481250D03*
X105425000Y-89681250D03*
X105425000Y-88881250D03*
X105425000Y-88081250D03*
X105425000Y-87281250D03*
D25*
X107125000Y-85581250D03*
X107925000Y-85581250D03*
X108725000Y-85581250D03*
X109525000Y-85581250D03*
X110325000Y-85581250D03*
X111125000Y-85581250D03*
X111925000Y-85581250D03*
X112725000Y-85581250D03*
X113525000Y-85581250D03*
X114325000Y-85581250D03*
X115125000Y-85581250D03*
D24*
X116825000Y-87281250D03*
X116825000Y-88081250D03*
X116825000Y-88881250D03*
X116825000Y-89681250D03*
X116825000Y-90481250D03*
X116825000Y-91281250D03*
X116825000Y-92081250D03*
X116825000Y-92881250D03*
X116825000Y-93681250D03*
X116825000Y-94481250D03*
X116825000Y-95281250D03*
D25*
X115125000Y-96981250D03*
X114325000Y-96981250D03*
X113525000Y-96981250D03*
X112725000Y-96981250D03*
X111925000Y-96981250D03*
X111125000Y-96981250D03*
X110325000Y-96981250D03*
X109525000Y-96981250D03*
X108725000Y-96981250D03*
X107925000Y-96981250D03*
X107125000Y-96981250D03*
%TD*%
D23*
%TO.C,C4*%
X103187500Y-84293750D03*
X103187500Y-82393750D03*
%TD*%
D15*
%TO.C,D8*%
X161925000Y-111187500D03*
X161925000Y-107887500D03*
%TD*%
D23*
%TO.C,C2*%
X107156250Y-79531250D03*
X107156250Y-77631250D03*
%TD*%
D26*
%TO.C,Y1*%
X112225000Y-79431250D03*
X110025000Y-79431250D03*
X110025000Y-77731250D03*
X112225000Y-77731250D03*
%TD*%
D27*
%TO.C,R4*%
X120650000Y-97750000D03*
X120650000Y-95925000D03*
%TD*%
D22*
%TO.C,C1*%
X115093750Y-77631250D03*
X115093750Y-79531250D03*
%TD*%
D16*
%TO.C,C6*%
X116837500Y-100806250D03*
X114937500Y-100806250D03*
%TD*%
D15*
%TO.C,D9*%
X180975000Y-111187500D03*
X180975000Y-107887500D03*
%TD*%
M02*
